<svg width="32" height="28" viewBox="0 0 32 28" fill="none" xmlns="http://www.w3.org/2000/svg">
<path d="M17.666 0.37439C10.2805 0.37439 4.27235 6.29279 4.0929 13.6601V14.0007H0.151733L6.1233 20.4707L11.9287 14.0007H7.48909V13.6601C7.66687 8.17199 12.1547 3.7822 17.666 3.7822C23.292 3.7822 27.8529 8.35808 27.8529 14.0007C27.8529 19.6433 23.292 24.2191 17.666 24.2191C15.4968 24.2204 13.3845 23.5256 11.6396 22.2369L9.30349 24.7359C11.6878 26.6099 14.6334 27.627 17.666 27.6236C25.1679 27.6236 31.2474 21.5258 31.2474 14.0007C31.2474 6.47556 25.1679 0.37439 17.666 0.37439ZM16.0045 5.69297V14.0007C16.0064 14.4409 16.1812 14.8628 16.4913 15.1754L21.8082 20.4923C22.2784 20.1882 22.7221 19.846 23.1159 19.4489L19.3275 15.6622V5.69297H16.0045Z" fill="url(#paint0_linear)"/>
<defs>
<linearGradient id="paint0_linear" x1="15.6996" y1="0.37439" x2="15.6996" y2="27.6236" gradientUnits="userSpaceOnUse">
<stop stop-color="#FF35E2"/>
<stop offset="1" stop-color="#881DEB"/>
</linearGradient>
</defs>
</svg>
