<svg xmlns="http://www.w3.org/2000/svg" width="435" height="52" fill="none" viewBox="0 0 435 52">
    <path fill="#fff" fill-opacity=".87" d="M41.247 21.85v-1.953h4.381c3.138 0 5.21.059 6.512.177v-7.873c-1.598.296-3.374.414-6.512.414h-4.38V6.4c0-2.368.236-4.322.414-5.506h-8.466c.178 1.184.355 3.138.355 5.506v6.216h-14.03v-5.86c0-2.31.177-4.204.355-5.329H11.47c.177 1.776.355 3.611.355 5.328v5.861H6.793c-2.96 0-5.387-.355-6.394-.533v8.052c1.303-.119 3.434-.237 6.394-.237h5.032v8.05c0 2.665-.178 5.033-.355 6.217h8.288c-.06-1.184-.237-3.611-.237-6.216v-8.051h14.03v2.25c0 14.563-5.032 19.654-16.457 23.62l6.334 5.98c14.267-6.276 17.82-15.215 17.82-29.897zM79.25 4.962h-9.65l-10.616 6.601v8.998l9.628-5.886h.252v33.342H79.25V4.962zm27.324 44.106c11.268.02 18.185-8.304 18.206-22.515.021-14.128-6.938-22.18-18.206-22.18s-18.164 8.031-18.185 22.18c-.042 14.169 6.917 22.515 18.185 22.515zm0-8.514c-4.478 0-7.526-4.5-7.484-14.002.02-9.313 3.027-13.727 7.484-13.727 4.478 0 7.484 4.414 7.505 13.727.021 9.503-3.006 14.002-7.505 14.002zm41.972 8.514c11.268.02 18.184-8.304 18.205-22.515.022-14.128-6.937-22.18-18.205-22.18-11.268 0-18.164 8.031-18.185 22.18-.042 14.169 6.917 22.515 18.185 22.515zm0-8.514c-4.478 0-7.526-4.5-7.484-14.002.021-9.313 3.027-13.727 7.484-13.727 4.478 0 7.484 4.414 7.505 13.727.021 9.503-3.006 14.002-7.505 14.002zm41.972 8.514c11.268.02 18.184-8.304 18.205-22.515.021-14.128-6.937-22.18-18.205-22.18-11.269 0-18.164 8.031-18.185 22.18-.042 14.169 6.916 22.515 18.185 22.515zm0-8.514c-4.478 0-7.526-4.5-7.484-14.002.021-9.313 3.027-13.727 7.484-13.727 4.478 0 7.484 4.414 7.505 13.727.021 9.503-3.006 14.002-7.505 14.002zm41.972 8.514c11.268.02 18.184-8.304 18.205-22.515.021-14.128-6.937-22.18-18.205-22.18-11.269 0-18.164 8.031-18.185 22.18-.042 14.169 6.916 22.515 18.185 22.515zm0-8.514c-4.478 0-7.527-4.5-7.485-14.002.021-9.313 3.028-13.727 7.485-13.727 4.477 0 7.484 4.414 7.505 13.727.021 9.503-3.007 14.002-7.505 14.002zm41.971 8.514c11.269.02 18.185-8.304 18.206-22.515.021-14.128-6.937-22.18-18.206-22.18-11.268 0-18.163 8.031-18.184 22.18-.042 14.169 6.916 22.515 18.184 22.515zm0-8.514c-4.477 0-7.526-4.5-7.484-14.002.021-9.313 3.028-13.727 7.484-13.727 4.478 0 7.485 4.414 7.506 13.727.021 9.503-3.007 14.002-7.506 14.002zm41.972 8.514c11.268.02 18.185-8.304 18.206-22.515.021-14.128-6.938-22.18-18.206-22.18s-18.163 8.031-18.184 22.18c-.042 14.169 6.916 22.515 18.184 22.515zm0-8.514c-4.478 0-7.526-4.5-7.484-14.002.021-9.313 3.027-13.727 7.484-13.727 4.478 0 7.484 4.414 7.505 13.727.021 9.503-3.006 14.002-7.505 14.002zm30.031 8.072c2.88 0 5.424-2.438 5.466-5.466-.042-2.985-2.586-5.402-5.466-5.402-3.027 0-5.508 2.417-5.466 5.402-.042 3.028 2.439 5.466 5.466 5.466zm27.608.442c11.269.02 18.185-8.304 18.206-22.515.021-14.128-6.937-22.18-18.206-22.18-11.268 0-18.163 8.031-18.184 22.18-.042 14.169 6.916 22.515 18.184 22.515zm0-8.514c-4.477 0-7.526-4.5-7.484-14.002.021-9.313 3.028-13.727 7.484-13.727 4.478 0 7.484 4.414 7.505 13.727.022 9.503-3.006 14.002-7.505 14.002zm41.972 8.514c11.268.02 18.185-8.304 18.206-22.515.021-14.128-6.938-22.18-18.206-22.18s-18.163 8.031-18.184 22.18c-.042 14.169 6.916 22.515 18.184 22.515zm0-8.514c-4.478 0-7.526-4.5-7.484-14.002.021-9.313 3.027-13.727 7.484-13.727 4.478 0 7.484 4.414 7.505 13.727.021 9.503-3.006 14.002-7.505 14.002z"/>
</svg>
