<svg width="30" height="30" viewBox="0 0 30 30" fill="none" xmlns="http://www.w3.org/2000/svg">
<path d="M0.848389 26.5003H29.3484V29.3503H0.848389V26.5003ZM3.69839 15.1003H6.54839V25.0753H3.69839V15.1003ZM10.8234 15.1003H13.6734V25.0753H10.8234V15.1003ZM16.5234 15.1003H19.3734V25.0753H16.5234V15.1003ZM23.6484 15.1003H26.4984V25.0753H23.6484V15.1003ZM0.848389 7.97534L15.0984 0.850342L29.3484 7.97534V13.6753H0.848389V7.97534ZM15.0984 9.40034C15.4763 9.40034 15.8388 9.25021 16.106 8.98297C16.3733 8.71573 16.5234 8.35328 16.5234 7.97534C16.5234 7.59741 16.3733 7.23495 16.106 6.96772C15.8388 6.70048 15.4763 6.55034 15.0984 6.55034C14.7205 6.55034 14.358 6.70048 14.0908 6.96772C13.8235 7.23495 13.6734 7.59741 13.6734 7.97534C13.6734 8.35328 13.8235 8.71573 14.0908 8.98297C14.358 9.25021 14.7205 9.40034 15.0984 9.40034Z" fill="url(#paint0_linear)"/>
<defs>
<linearGradient id="paint0_linear" x1="15.0984" y1="0.850342" x2="15.0984" y2="29.3503" gradientUnits="userSpaceOnUse">
<stop stop-color="#FF35E2"/>
<stop offset="1" stop-color="#881DEB"/>
</linearGradient>
</defs>
</svg>
