<svg width="34" height="28" viewBox="0 0 34 28" fill="none" xmlns="http://www.w3.org/2000/svg">
<path d="M31.9362 13.1256C31.8202 13.1256 31.7089 13.1717 31.6269 13.2537C31.5448 13.3358 31.4987 13.447 31.4987 13.5631C31.4987 13.6791 31.5448 13.7904 31.6269 13.8724C31.7089 13.9545 31.8202 14.0006 31.9362 14.0006C32.2433 14.0006 32.3737 14.1309 32.3737 14.438V19.6878C32.3737 19.9949 32.2433 20.1253 31.9362 20.1253H24.9365C24.6294 20.1253 24.499 19.9949 24.499 19.6878V15.313C24.499 15.0059 24.6294 14.8755 24.9365 14.8755H30.1863C30.3023 14.8755 30.4136 14.8294 30.4956 14.7474C30.5777 14.6653 30.6238 14.5541 30.6238 14.438V9.18825C30.6238 8.39116 30.1084 7.8758 29.3113 7.8758H2.6249C1.54606 7.8758 0.874965 7.2047 0.874965 6.12587C0.874965 5.04704 1.54606 4.37594 2.6249 4.37594H7.06622L4.41857 5.24916C4.36203 5.26546 4.30937 5.293 4.26372 5.33014C4.21807 5.36727 4.18038 5.41323 4.15291 5.46527C4.12544 5.51731 4.10875 5.57435 4.10384 5.63299C4.09893 5.69163 4.1059 5.75066 4.12433 5.80654C4.14276 5.86242 4.17227 5.91401 4.21111 5.95822C4.24994 6.00243 4.29729 6.03835 4.35033 6.06384C4.40337 6.08932 4.46101 6.10384 4.51979 6.10653C4.57857 6.10922 4.63729 6.10003 4.69244 6.0795L20.5459 0.853331C20.6005 0.835291 20.651 0.806678 20.6945 0.769125C20.738 0.731573 20.7737 0.685816 20.7996 0.634467C20.8254 0.583118 20.8409 0.527183 20.8451 0.469856C20.8493 0.412528 20.8422 0.354931 20.8242 0.300353C20.8061 0.245774 20.7775 0.195283 20.74 0.151763C20.7024 0.108242 20.6567 0.0725447 20.6053 0.0467078C20.554 0.0208709 20.498 0.00540094 20.4407 0.0011811C20.3834 -0.00303874 20.3258 0.00407421 20.2712 0.0221138L9.68411 3.51323C9.66399 3.50973 9.64562 3.50098 9.62462 3.50098H2.6249C1.05521 3.50098 0 4.55618 0 6.12587V25.3751C0 26.9448 1.05521 28 2.6249 28H29.3113C30.1084 28 30.6238 27.4846 30.6238 26.6876V22.3127C30.6238 22.1967 30.5777 22.0854 30.4956 22.0034C30.4136 21.9213 30.3023 21.8752 30.1863 21.8752C30.0703 21.8752 29.959 21.9213 29.877 22.0034C29.7949 22.0854 29.7488 22.1967 29.7488 22.3127V26.6876C29.7488 26.9947 29.6184 27.125 29.3113 27.125H2.6249C1.54606 27.125 0.874965 26.4539 0.874965 25.3751V8.14879C1.32382 8.52765 1.91792 8.75077 2.6249 8.75077H29.3113C29.6184 8.75077 29.7488 8.88114 29.7488 9.18825V14.0006H24.9365C24.1394 14.0006 23.6241 14.5159 23.6241 15.313V19.6878C23.6241 20.4849 24.1394 21.0003 24.9365 21.0003H31.9362C32.7333 21.0003 33.2487 20.4849 33.2487 19.6878V14.438C33.2487 13.6409 32.7333 13.1256 31.9362 13.1256Z" fill="url(#paint0_linear)"/>
<defs>
<linearGradient id="paint0_linear" x1="16.6243" y1="0" x2="16.6243" y2="28" gradientUnits="userSpaceOnUse">
<stop stop-color="#FF35E2"/>
<stop offset="1" stop-color="#881DEB"/>
</linearGradient>
</defs>
</svg>
