<svg width="30" height="30" viewBox="0 0 30 30" fill="none" xmlns="http://www.w3.org/2000/svg">
<path d="M23.6203 6.14593L13.6702 6.23907C13.3803 6.24179 13.1478 6.4787 13.1505 6.76864L13.1521 6.94353C13.1549 7.23347 13.3918 7.46599 13.6817 7.46327L22.0693 7.38245L6.32647 23.4228C6.12358 23.6295 6.12669 23.9609 6.3334 24.1638L6.45883 24.2869C6.56103 24.3872 6.69729 24.4388 6.83075 24.4376C6.96422 24.4363 7.09721 24.3845 7.19979 24.28L22.9426 8.23958L23.0192 16.4178C23.017 16.4293 23.0171 16.4431 23.0195 16.4546L23.0188 16.6272C23.0216 16.9172 23.2585 17.1497 23.5484 17.147L23.7233 17.1453C24.0132 17.1426 24.2458 16.9057 24.243 16.6158L24.1499 6.66567C24.1472 6.37573 23.9103 6.14321 23.6203 6.14593Z" stroke="white" stroke-width="0.206154" stroke-miterlimit="10"/>
</svg>
