<svg width="474" height="52" viewBox="0 0 474 52" fill="none" xmlns="http://www.w3.org/2000/svg">
<path d="M41.5043 21.8503V19.8967H45.8851C49.0227 19.8967 51.0947 19.9559 52.3971 20.0743V12.2007C50.7987 12.4967 49.0227 12.6151 45.8851 12.6151H41.5043V6.39908C41.5043 4.03108 41.7411 2.07748 41.9187 0.893473H33.4531C33.6307 2.07748 33.8083 4.03108 33.8083 6.39908V12.6151H19.7779V6.75428C19.7779 4.44547 19.9555 2.55108 20.1331 1.42627H11.7267C11.9043 3.20228 12.0819 5.03748 12.0819 6.75428V12.6151H7.04992C4.08992 12.6151 1.66272 12.2599 0.656317 12.0823V20.1335C1.95872 20.0151 4.08992 19.8967 7.04992 19.8967H12.0819V27.9479C12.0819 30.6119 11.9043 32.9799 11.7267 34.1639H20.0147C19.9555 32.9799 19.7779 30.5527 19.7779 27.9479V19.8967H33.8083V22.1463C33.8083 36.7095 28.7763 41.8007 17.3507 45.7671L23.6851 51.7463C37.9523 45.4711 41.5043 36.5319 41.5043 21.8503ZM79.5057 4.96213H69.8562L59.2398 11.5633V20.561L68.8682 14.6746H69.1204V48.0167H79.5057V4.96213ZM106.83 49.0678C118.098 49.0888 125.015 40.7638 125.036 26.5525C125.057 12.4252 118.098 4.37349 106.83 4.37349C95.5618 4.37349 88.6663 12.4042 88.6453 26.5525C88.6033 40.7218 95.5618 49.0678 106.83 49.0678ZM106.83 40.5536C102.352 40.5536 99.3038 36.0547 99.3459 26.5525C99.3669 17.2394 102.373 12.8246 106.83 12.8246C111.308 12.8246 114.314 17.2394 114.335 26.5525C114.356 36.0547 111.329 40.5536 106.83 40.5536ZM147.372 48.6053C157.463 48.6053 164.632 43.2655 164.611 35.7815C164.632 30.4837 161.163 26.6996 154.52 25.9218V25.5854C159.502 24.8707 163.034 21.528 163.013 16.6928C163.034 9.67122 156.685 4.37349 147.456 4.37349C138.164 4.37349 131.395 9.75531 131.311 17.4076H141.255C141.339 14.4644 143.988 12.4883 147.456 12.4883C150.757 12.4883 153.006 14.4854 152.985 17.3655C153.006 20.3508 150.358 22.411 146.531 22.411H142.348V29.811H146.531C150.883 29.811 153.721 31.9553 153.679 34.9826C153.721 38.0309 151.114 40.1542 147.414 40.1542C143.735 40.1542 141.023 38.1991 140.918 35.361H130.449C130.533 43.1394 137.534 48.6053 147.372 48.6053ZM188.288 49.0678C199.556 49.0888 206.472 40.7638 206.493 26.5525C206.514 12.4252 199.556 4.37349 188.288 4.37349C177.02 4.37349 170.124 12.4042 170.103 26.5525C170.061 40.7218 177.02 49.0678 188.288 49.0678ZM188.288 40.5536C183.81 40.5536 180.762 36.0547 180.804 26.5525C180.825 17.2394 183.831 12.8246 188.288 12.8246C192.766 12.8246 195.772 17.2394 195.793 26.5525C195.814 36.0547 192.787 40.5536 188.288 40.5536ZM230.26 49.0678C241.528 49.0888 248.444 40.7638 248.465 26.5525C248.486 12.4252 241.528 4.37349 230.26 4.37349C218.991 4.37349 212.096 12.4042 212.075 26.5525C212.033 40.7218 218.991 49.0678 230.26 49.0678ZM230.26 40.5536C225.782 40.5536 222.734 36.0547 222.776 26.5525C222.797 17.2394 225.803 12.8246 230.26 12.8246C234.737 12.8246 237.744 17.2394 237.765 26.5525C237.786 36.0547 234.759 40.5536 230.26 40.5536ZM272.232 49.0678C283.5 49.0888 290.416 40.7638 290.437 26.5525C290.458 12.4252 283.5 4.37349 272.232 4.37349C260.963 4.37349 254.068 12.4042 254.047 26.5525C254.005 40.7218 260.963 49.0678 272.232 49.0678ZM272.232 40.5536C267.754 40.5536 264.705 36.0547 264.747 26.5525C264.768 17.2394 267.775 12.8246 272.232 12.8246C276.709 12.8246 279.716 17.2394 279.737 26.5525C279.758 36.0547 276.73 40.5536 272.232 40.5536ZM314.203 49.0678C325.472 49.0888 332.388 40.7638 332.409 26.5525C332.43 12.4252 325.472 4.37349 314.203 4.37349C302.935 4.37349 296.04 12.4042 296.019 26.5525C295.977 40.7218 302.935 49.0678 314.203 49.0678ZM314.203 40.5536C309.726 40.5536 306.677 36.0547 306.719 26.5525C306.74 17.2394 309.747 12.8246 314.203 12.8246C318.681 12.8246 321.687 17.2394 321.709 26.5525C321.73 36.0547 318.702 40.5536 314.203 40.5536ZM356.175 49.0678C367.443 49.0888 374.36 40.7638 374.381 26.5525C374.402 12.4252 367.443 4.37349 356.175 4.37349C344.907 4.37349 338.012 12.4042 337.991 26.5525C337.949 40.7218 344.907 49.0678 356.175 49.0678ZM356.175 40.5536C351.697 40.5536 348.649 36.0547 348.691 26.5525C348.712 17.2394 351.718 12.8246 356.175 12.8246C360.653 12.8246 363.659 17.2394 363.68 26.5525C363.701 36.0547 360.674 40.5536 356.175 40.5536ZM386.206 48.6263C389.086 48.6263 391.63 46.1877 391.672 43.1604C391.63 40.1752 389.086 37.7576 386.206 37.7576C383.179 37.7576 380.698 40.1752 380.74 43.1604C380.698 46.1877 383.179 48.6263 386.206 48.6263ZM413.814 49.0678C425.083 49.0888 431.999 40.7638 432.02 26.5525C432.041 12.4252 425.083 4.37349 413.814 4.37349C402.546 4.37349 395.651 12.4042 395.63 26.5525C395.588 40.7218 402.546 49.0678 413.814 49.0678ZM413.814 40.5536C409.336 40.5536 406.288 36.0547 406.33 26.5525C406.351 17.2394 409.358 12.8246 413.814 12.8246C418.292 12.8246 421.298 17.2394 421.319 26.5525C421.34 36.0547 418.313 40.5536 413.814 40.5536ZM455.786 49.0678C467.054 49.0888 473.971 40.7638 473.992 26.5525C474.013 12.4252 467.054 4.37349 455.786 4.37349C444.518 4.37349 437.623 12.4042 437.602 26.5525C437.56 40.7218 444.518 49.0678 455.786 49.0678ZM455.786 40.5536C451.308 40.5536 448.26 36.0547 448.302 26.5525C448.323 17.2394 451.329 12.8246 455.786 12.8246C460.264 12.8246 463.27 17.2394 463.291 26.5525C463.312 36.0547 460.285 40.5536 455.786 40.5536Z" fill="white" fill-opacity="0.87"/>
</svg>
