<svg width="44" height="58" viewBox="0 0 44 58" fill="none" xmlns="http://www.w3.org/2000/svg">
<path d="M12.3433 24.5139L9.17058 37.2388C8.8806 38.1684 7.88272 38.6887 6.95309 38.3987H6.94456C6.99574 38.4669 3.41365 37.5203 3.41365 37.5203L1 43.0725L7.3113 44.6503C8.48827 44.9403 9.63966 45.2559 10.774 45.5458L8.76972 53.6055L13.6141 54.8166L15.6013 46.8422C16.9232 47.2004 18.2111 47.533 19.4733 47.8486L17.4947 55.7889L22.3475 57L24.3518 48.9573C32.6247 50.5181 38.8507 49.8955 41.4691 42.4072C43.5757 36.3774 41.3667 32.9062 37.0085 30.6375C40.1812 29.904 42.5693 27.823 43.2089 23.516C44.0874 17.6311 39.6098 14.4669 33.4861 12.3603L35.4733 4.38592L30.6205 3.17484L28.6844 10.936C27.4051 10.6205 26.1002 10.3134 24.7953 10.0234L26.7484 2.21109L21.8955 1L19.9083 8.96588C18.8507 8.72708 17.8188 8.48827 16.8124 8.24094L16.8209 8.21535L10.1258 6.54371L8.83795 11.7292C8.83795 11.7292 12.4371 12.5565 12.3603 12.6077C13.7591 12.7783 14.7655 14.032 14.6205 15.4307L12.3603 24.5139H12.3433ZM32.1215 39.0384C30.6205 45.0682 20.4797 41.8017 17.1876 40.9915L19.8486 30.3134C23.1407 31.1237 33.6908 32.7527 32.1215 39.0384ZM33.6226 23.4051C32.258 28.8891 23.8145 26.1002 21.0682 25.4179L23.4819 15.7292C26.2281 16.4115 35.0469 17.6823 33.6226 23.4051Z" fill="white" stroke="#0D0D0D" stroke-width="0.180369" stroke-miterlimit="10"/>
</svg>
