<svg width="58" height="54" viewBox="0 0 58 54" fill="none" xmlns="http://www.w3.org/2000/svg">
<rect x="0.25" y="0.25" width="57.2698" height="52.9906" rx="11.5179" stroke="white" stroke-width="0.5"/>
<path d="M21.36 28.8V35.52H18V38.88H23.04V42.24H26.4V38.88H29.76V42.24H33.12V38.7943C36.4262 38.376 39 35.5771 39 32.16C39 29.9424 37.908 27.9869 36.2448 26.7622C37.4714 25.5123 38.1591 23.8312 38.16 22.08C38.16 18.9586 36.0113 16.3495 33.12 15.5986V12H29.76V15.36H26.4V12H23.04V15.36H18V18.72H21.36V28.8ZM32.28 35.52H24.72V28.8H32.28C34.133 28.8 35.64 30.307 35.64 32.16C35.64 34.013 34.133 35.52 32.28 35.52ZM24.72 18.72H31.44C33.293 18.72 34.8 20.227 34.8 22.08C34.8 23.933 33.293 25.44 31.44 25.44H24.72V18.72Z" fill="white"/>
</svg>
