<svg xmlns="http://www.w3.org/2000/svg" width="725" height="282" fill="none" viewBox="0 0 725 282">
    <g clip-path="url(#prefix__clip0)">
        <rect width="725" height="280.645" y=".409" fill="#fff" rx="2.339"/>
        <mask id="prefix__a" width="725" height="282" x="0" y="0" maskUnits="userSpaceOnUse">
            <rect width="725" height="280.645" y=".409" fill="#fff" rx="2.339"/>
        </mask>
        <g mask="url(#prefix__a)">
            <rect width="38.004" height="25.726" x="483.527" y="23.797" fill="#494C55" opacity=".032" rx="2.339"/>
            <path fill="#222429" d="M499.123 38.887v.757h-3.274v-.757h1.199v-3.45c0-.137.004-.277.012-.422l-.851.712c-.049.038-.098.063-.147.074-.047.008-.092.008-.135 0-.041-.009-.078-.022-.111-.041-.033-.022-.057-.045-.074-.07l-.319-.438 1.805-1.535h.831v5.17h1.064zm10.98-5.161l-1.838 5.918h-.994l-1.293-4.044c-.036-.098-.069-.218-.099-.36-.016.068-.032.132-.049.192-.016.06-.034.116-.053.168l-1.305 4.044h-.999l-1.834-5.918h.921c.096 0 .175.023.238.07.065.043.109.103.131.18l1.006 3.54c.022.087.043.182.062.286.022.101.043.207.065.32.022-.115.045-.223.07-.324.027-.101.056-.195.086-.282l1.162-3.54c.022-.063.064-.12.127-.172.065-.052.145-.078.237-.078h.324c.095 0 .173.023.233.07.06.046.105.106.135.18l1.158 3.54c.058.169.109.364.156.585.035-.216.075-.41.118-.585l1.007-3.54c.017-.069.058-.127.123-.177.068-.049.149-.073.242-.073h.863z"/>
            <rect width="38.004" height="25.726" x="528.547" y="23.797" fill="#494C55" opacity=".032" rx="2.339"/>
            <path fill="#222429" d="M544.546 38.886v.758h-3.274v-.758h1.199v-3.45c0-.136.004-.277.012-.421l-.851.712c-.049.038-.098.063-.147.074-.047.008-.092.008-.135 0-.041-.009-.078-.022-.111-.041-.033-.022-.057-.045-.073-.07l-.32-.438 1.805-1.535h.831v5.17h1.064zm9.579-5.16v5.918h-.97V35.82c0-.153.008-.318.025-.495l-1.789 3.36c-.084.16-.214.241-.389.241h-.155c-.175 0-.304-.08-.389-.241l-1.809-3.373.021.267c.005.087.008.167.008.24v3.824h-.97v-5.919h.831c.049 0 .091.002.126.005.036.002.067.01.095.02.03.01.056.029.077.053.025.025.048.058.07.098l1.772 3.287c.046.087.089.177.127.27.041.093.08.188.119.287.038-.101.077-.198.118-.291.041-.096.085-.187.131-.274l1.748-3.279c.022-.04.045-.073.069-.098.025-.024.051-.042.078-.053.03-.01.063-.018.098-.02.036-.003.078-.005.127-.005h.831z"/>
            <rect width="38.004" height="25.726" x="618.586" y="23.797" fill="#494C55" opacity=".032" rx="2.339"/>
            <path fill="#222429" d="M633.334 38.886v.758h-3.274v-.758h1.199v-3.45c0-.136.004-.277.012-.421l-.851.712c-.049.038-.098.063-.147.074-.047.008-.092.008-.135 0-.041-.009-.078-.022-.111-.041-.032-.022-.057-.045-.073-.07l-.32-.438 1.805-1.535h.831v5.17h1.064zm5.376-1.534v2.292h-1.097v-2.292l-2.157-3.627h.97c.095 0 .17.024.225.07.057.046.105.105.143.176l1.081 1.977c.062.117.117.228.163.331.05.104.093.208.131.311.036-.103.077-.207.123-.31.047-.104.1-.215.16-.332l1.076-1.977c.03-.06.075-.116.135-.168.06-.052.137-.078.229-.078h.975l-2.157 3.627zm4.554-.81c.208 0 .388-.027.541-.078.155-.052.282-.123.38-.213.101-.093.176-.202.225-.328.049-.125.074-.263.074-.413 0-.3-.1-.53-.299-.692-.196-.16-.498-.241-.904-.241h-.704v1.964h.687zm2.833 3.102h-.995c-.188 0-.325-.074-.409-.221l-1.244-1.895c-.047-.071-.099-.122-.156-.152-.055-.03-.136-.045-.246-.045h-.47v2.313h-1.101v-5.919h1.805c.401 0 .745.043 1.031.127.289.082.525.198.708.348.186.15.322.33.409.54.088.208.131.437.131.688 0 .2-.03.388-.09.565-.057.177-.142.338-.253.483-.11.144-.246.271-.41.38-.161.11-.345.195-.552.258.071.041.136.09.196.148.06.054.115.12.164.196l1.482 2.186z"/>
            <rect width="38.004" height="25.726" x="573.566" y="23.797" fill="#494C55" opacity=".032" rx="2.339"/>
            <path fill="#222429" d="M587.466 35.874l-.205.254c.115-.057.238-.101.369-.131.134-.033.277-.05.43-.05.223 0 .44.038.65.111.213.074.4.186.561.336.161.147.291.331.389.552.098.221.147.48.147.774 0 .276-.05.535-.151.778-.101.24-.243.45-.426.63s-.404.322-.663.425c-.256.104-.54.156-.851.156-.317 0-.6-.05-.852-.151-.251-.101-.465-.242-.642-.422-.177-.183-.314-.401-.409-.655-.093-.256-.14-.54-.14-.851 0-.278.056-.564.168-.855.115-.295.291-.6.528-.917l1.412-1.895c.049-.066.12-.122.213-.168.096-.046.205-.07.327-.07h.901l-1.756 2.15zm.229 3.008c.161 0 .309-.027.442-.082.137-.054.253-.13.348-.229.098-.098.175-.213.229-.343.055-.134.082-.279.082-.434 0-.17-.026-.321-.078-.455-.051-.136-.125-.25-.221-.343-.095-.096-.21-.168-.343-.217-.134-.05-.281-.074-.442-.074-.161 0-.307.027-.438.082-.131.054-.243.13-.336.229-.093.096-.165.21-.217.344-.052.13-.078.273-.078.425 0 .164.022.314.066.45.046.134.113.249.2.344.091.096.201.171.332.225.131.052.282.078.454.078zm11.45-5.157v5.919h-.97V35.82c0-.153.008-.318.024-.495l-1.788 3.36c-.085.16-.214.241-.389.241h-.156c-.174 0-.304-.08-.388-.241l-1.809-3.373c.008.09.015.18.02.267.006.087.008.167.008.24v3.824h-.97v-5.919h.831c.049 0 .091.002.127.005.035.002.067.01.094.02.03.01.056.029.078.053.024.025.048.058.069.098l1.773 3.287c.046.087.088.177.126.27.041.093.081.188.119.287.038-.101.078-.198.119-.291.041-.096.084-.187.131-.274l1.747-3.279c.022-.04.045-.073.07-.098.025-.024.05-.042.078-.053.03-.01.063-.018.098-.02.035-.003.078-.005.127-.005h.831z"/>
            <rect width="38.004" height="25.726" x="663.609" y="23.797" fill="#494C55" opacity=".032" rx="2.339"/>
            <path fill="#222429" d="M679.303 37.409l-.72-1.969c-.035-.087-.072-.19-.111-.31-.038-.12-.076-.25-.114-.39-.036.14-.072.27-.111.393-.038.12-.075.225-.11.316l-.716 1.96h1.882zm1.944 2.235h-.851c-.095 0-.173-.024-.233-.07-.06-.05-.105-.11-.135-.18l-.442-1.207h-2.452l-.442 1.207c-.022.063-.064.12-.127.172-.062.052-.14.078-.233.078h-.859l2.328-5.919h1.122l2.324 5.919zm4.079-.909v.909h-3.466v-5.919h1.101v5.01h2.365zm4.253 0v.909h-3.466v-5.919h1.1v5.01h2.366z"/>
            <path fill="#5B19D5" d="M28.002 66.73h-1.588v1.686h-.823V66.73h-1.58v-.749h1.58v-1.678h.823v1.678h1.588v.75zm2.96 1.584c.289-.038.507-.135.654-.29.15-.159.225-.365.225-.618 0-.104-.019-.194-.057-.27-.035-.08-.087-.15-.155-.21-.066-.06-.144-.111-.234-.155-.09-.043-.188-.084-.294-.123l-.14 1.666zm-.262-4.326c-.153.02-.283.052-.39.098-.106.044-.193.099-.261.164-.068.066-.119.14-.152.221-.03.082-.045.168-.045.258 0 .103.018.195.054.274.038.076.088.146.151.209.066.06.142.114.23.163.087.047.182.09.286.132l.127-1.519zm.478 1.715c.197.06.392.127.586.2.193.071.367.164.52.279.155.114.28.258.376.43.096.169.143.382.143.638 0 .254-.042.493-.127.716-.084.221-.208.418-.372.59-.164.169-.364.308-.602.417-.237.106-.509.17-.814.188l-.05.602c-.002.063-.03.12-.081.172-.05.054-.112.082-.188.082h-.373l.074-.876c-.32-.044-.62-.131-.9-.262-.282-.131-.52-.293-.717-.487l.311-.463c.027-.04.063-.073.107-.098.046-.027.095-.04.147-.04.06 0 .124.021.192.065.069.04.146.09.234.147.087.055.187.11.298.168.112.057.245.1.397.127l.152-1.83c-.194-.054-.386-.118-.577-.192-.189-.074-.359-.17-.512-.29-.15-.123-.271-.278-.364-.463-.093-.186-.14-.418-.14-.696 0-.207.042-.41.123-.606.082-.199.203-.376.36-.532.162-.155.358-.283.59-.384.232-.101.498-.159.798-.172l.045-.516c.006-.066.033-.124.082-.176.05-.052.113-.078.192-.078h.373l-.066.802c.29.047.54.13.75.25.21.117.39.25.544.397l-.246.373c-.035.054-.072.095-.11.122-.039.028-.085.041-.14.041-.04 0-.09-.012-.147-.037-.057-.027-.121-.058-.192-.094-.071-.038-.152-.076-.242-.114-.087-.038-.184-.07-.29-.094l-.144 1.694zm2.391-.868c.041-.283.12-.532.238-.745.117-.215.263-.394.438-.536.177-.144.379-.252.605-.323.23-.074.475-.11.737-.11.273 0 .518.039.737.118.22.077.409.184.564.323.156.137.275.298.357.483.084.186.126.386.126.602 0 .188-.021.355-.065.5-.041.141-.101.265-.18.372-.08.106-.177.196-.295.27-.117.074-.25.135-.397.184.355.112.62.282.794.512.175.229.262.517.262.863 0 .295-.055.555-.164.782-.109.226-.256.417-.442.573-.185.153-.4.269-.646.348-.243.079-.501.118-.774.118-.297 0-.556-.034-.777-.102-.221-.068-.414-.169-.578-.303-.163-.133-.302-.297-.417-.49-.115-.195-.213-.418-.295-.672l.446-.184c.118-.05.227-.062.328-.037.104.022.179.076.225.164.05.095.102.19.16.282.06.093.13.176.212.25.082.07.178.13.287.176.112.043.244.065.397.065.172 0 .322-.027.45-.082.128-.057.235-.13.32-.22.087-.09.15-.19.192-.3.043-.111.065-.223.065-.335 0-.142-.015-.27-.045-.385-.03-.117-.093-.217-.188-.298-.096-.082-.233-.146-.413-.193-.178-.046-.417-.07-.717-.07v-.72c.249-.002.455-.026.618-.07.164-.043.294-.103.39-.18.097-.079.165-.173.204-.282.038-.109.057-.229.057-.36 0-.278-.078-.49-.233-.634-.156-.145-.363-.217-.622-.217-.12 0-.23.017-.332.053-.1.033-.192.08-.274.143-.08.06-.146.131-.2.213-.055.082-.096.172-.123.27-.047.126-.108.209-.185.25-.073.04-.178.05-.315.028l-.532-.094zm4.658 3.712c0-.084.015-.165.045-.241.033-.076.077-.142.131-.197.055-.054.12-.098.197-.13.076-.033.158-.05.245-.05.088 0 .168.017.242.05.076.032.142.076.196.13.058.055.103.12.135.197.033.076.05.157.05.241 0 .088-.017.17-.05.246-.032.074-.077.138-.135.192-.054.055-.12.097-.196.127-.074.033-.154.05-.242.05-.087 0-.169-.017-.245-.05-.077-.03-.142-.072-.197-.127-.054-.054-.098-.118-.13-.192-.03-.076-.046-.158-.046-.246zm6.06-5.361v.438c0 .13-.014.237-.04.32-.028.078-.055.145-.083.2l-2.242 4.616c-.047.096-.112.178-.197.246-.084.065-.198.098-.34.098h-.732l2.288-4.522c.051-.093.102-.178.151-.254.052-.08.11-.154.172-.225h-2.832c-.063 0-.117-.023-.164-.07-.046-.046-.07-.1-.07-.164v-.683h4.09zm2.653 5.194c.166 0 .312-.024.438-.07.125-.05.23-.116.315-.2.087-.085.153-.186.196-.303.044-.118.066-.245.066-.381 0-.325-.09-.57-.27-.737-.18-.166-.429-.25-.745-.25-.317 0-.565.084-.745.25-.18.167-.27.412-.27.737 0 .136.022.263.065.38.044.118.108.219.193.303.087.085.194.152.319.201.125.046.271.07.438.07zm0-4.498c-.15 0-.28.023-.389.07-.11.046-.2.108-.274.188-.071.076-.124.165-.16.266-.032.1-.049.207-.049.319 0 .117.014.232.041.344.03.109.08.207.147.294.069.085.159.153.27.205.112.052.25.078.414.078.164 0 .301-.026.413-.078.112-.052.202-.12.27-.205.069-.087.116-.185.144-.294.03-.112.045-.227.045-.344 0-.112-.018-.218-.054-.32-.035-.1-.088-.19-.16-.266-.07-.079-.16-.141-.27-.188-.108-.046-.238-.07-.388-.07zm.998 2.136c.36.117.627.297.799.54.171.24.257.535.257.884 0 .262-.05.5-.151.713-.098.212-.237.394-.417.544-.18.15-.397.266-.651.348-.251.082-.53.123-.835.123-.306 0-.585-.041-.84-.123-.25-.082-.466-.198-.646-.348-.18-.15-.32-.332-.421-.544-.099-.213-.148-.45-.148-.713 0-.349.086-.644.258-.884.172-.243.438-.423.798-.54-.286-.12-.502-.29-.646-.511-.142-.222-.213-.488-.213-.799 0-.223.045-.432.135-.626.093-.193.22-.361.385-.503.163-.145.358-.257.585-.336.229-.082.48-.123.753-.123s.522.041.749.123c.23.08.425.191.59.336.163.142.29.31.38.503.093.194.139.403.139.626 0 .311-.072.578-.217.799-.142.22-.356.391-.643.511zm4.541.52c0 .562.069 1.114.205 1.657.136.543.332 1.054.585 1.531.028.055.043.102.045.143.006.044.003.08-.008.11-.01.034-.029.06-.053.083-.022.024-.047.045-.074.061l-.45.274c-.202-.31-.374-.623-.516-.937-.142-.314-.258-.63-.348-.95-.09-.319-.156-.642-.2-.97-.041-.327-.062-.661-.062-1.002 0-.341.021-.675.062-1.003.044-.33.11-.655.2-.974.09-.32.206-.634.348-.945.142-.314.314-.627.516-.938l.45.27c.027.017.052.037.074.062.024.022.042.049.053.082.011.03.014.067.008.11-.002.041-.017.09-.045.148-.253.474-.449.985-.585 1.53-.136.543-.205 1.096-.205 1.658zm5.615-.393c0 .516-.056.965-.168 1.347-.11.379-.262.692-.458.94-.194.25-.425.435-.692.557-.265.12-.551.18-.86.18-.308 0-.594-.06-.859-.18-.262-.122-.49-.308-.683-.556-.194-.249-.346-.562-.455-.942-.109-.382-.163-.83-.163-1.346 0-.519.054-.967.163-1.347.11-.379.26-.693.455-.94.193-.25.421-.433.683-.553.265-.123.551-.185.86-.185.308 0 .594.062.859.185.267.12.498.304.692.552.196.248.349.562.458.941.112.38.168.828.168 1.347zm-1.044 0c0-.428-.031-.783-.094-1.064s-.147-.505-.254-.671c-.103-.167-.223-.283-.36-.348-.136-.069-.278-.103-.425-.103-.145 0-.286.034-.422.103-.134.065-.252.181-.356.348-.104.166-.187.39-.25.67-.06.282-.09.637-.09 1.065 0 .428.03.783.09 1.064.063.281.146.505.25.671.104.167.222.284.356.352.136.066.277.099.422.099.147 0 .289-.033.425-.099.137-.068.257-.185.36-.352.107-.166.191-.39.254-.67.063-.282.094-.637.094-1.065zm1.601 2.402c0-.084.015-.165.045-.241.033-.076.077-.142.131-.197.055-.054.12-.098.197-.13.076-.033.158-.05.245-.05s.168.017.242.05c.076.032.142.076.196.13.057.055.102.12.135.197.033.076.05.157.05.241 0 .088-.017.17-.05.246-.033.074-.078.138-.135.192-.054.055-.12.097-.196.127-.074.033-.155.05-.242.05s-.169-.017-.245-.05c-.077-.03-.142-.072-.197-.127-.054-.054-.098-.118-.13-.192-.03-.076-.046-.158-.046-.246zm6.134-2.402c0 .516-.056.965-.168 1.347-.11.379-.262.692-.459.94-.193.25-.424.435-.691.557-.265.12-.551.18-.86.18-.308 0-.595-.06-.86-.18-.261-.122-.489-.308-.683-.556-.194-.249-.345-.562-.454-.942-.11-.382-.164-.83-.164-1.346 0-.519.055-.967.164-1.347.11-.379.26-.693.454-.94.194-.25.422-.433.684-.553.264-.123.55-.185.86-.185.308 0 .594.062.859.185.267.12.498.304.691.552.197.248.35.562.459.941.112.38.168.828.168 1.347zm-1.044 0c0-.428-.032-.783-.094-1.064-.063-.281-.148-.505-.254-.671-.104-.167-.224-.283-.36-.348-.137-.069-.278-.103-.426-.103-.144 0-.285.034-.421.103-.134.065-.253.181-.356.348-.104.166-.187.39-.25.67-.06.282-.09.637-.09 1.065 0 .428.03.783.09 1.064.063.281.146.505.25.671.103.167.222.284.356.352.136.066.277.099.421.099.148 0 .29-.033.426-.099.136-.068.256-.185.36-.352.106-.166.191-.39.254-.67.063-.282.094-.637.094-1.065zm1.69-1.31c.042-.283.12-.532.238-.745.118-.215.264-.394.438-.536.177-.144.38-.252.606-.323.23-.074.475-.11.737-.11.272 0 .518.039.736.118.221.077.41.184.565.323.156.137.274.298.356.483.085.186.127.386.127.602 0 .188-.022.355-.066.5-.04.141-.1.265-.18.372-.079.106-.177.196-.294.27-.118.074-.25.135-.397.184.355.112.62.282.794.512.174.229.262.517.262.863 0 .295-.055.555-.164.782-.11.226-.256.417-.442.573-.186.153-.401.269-.647.348-.242.079-.5.118-.773.118-.298 0-.557-.034-.778-.102-.22-.068-.413-.169-.577-.303-.164-.133-.303-.297-.417-.49-.115-.195-.213-.418-.295-.672l.446-.184c.117-.05.227-.062.328-.037.103.022.178.076.225.164.049.095.102.19.16.282.06.093.13.176.212.25.082.07.177.13.287.176.111.043.244.065.396.065.172 0 .323-.027.45-.082.129-.057.235-.13.32-.22.087-.09.151-.19.192-.3.044-.111.066-.223.066-.335 0-.142-.015-.27-.045-.385-.03-.117-.093-.217-.188-.298-.096-.082-.234-.146-.414-.193-.177-.046-.416-.07-.716-.07v-.72c.248-.002.454-.026.618-.07.164-.043.293-.103.389-.18.098-.079.166-.173.204-.282.039-.109.058-.229.058-.36 0-.278-.078-.49-.234-.634-.155-.145-.362-.217-.622-.217-.12 0-.23.017-.331.053-.101.033-.193.08-.274.143-.08.06-.146.131-.201.213-.055.082-.096.172-.123.27-.046.126-.108.209-.184.25-.074.04-.179.05-.315.028l-.532-.094zm7.356-.217c0 .224-.038.426-.114.606-.074.18-.174.334-.3.463-.125.125-.27.222-.437.29-.167.068-.34.102-.52.102-.196 0-.378-.034-.544-.102-.167-.068-.311-.165-.434-.29-.12-.129-.214-.283-.282-.463-.069-.18-.103-.382-.103-.606 0-.229.034-.436.103-.622.068-.185.162-.342.282-.47.123-.129.267-.227.434-.295.166-.071.348-.107.544-.107.197 0 .378.036.544.107.17.068.316.166.438.295.123.128.219.285.287.47.068.186.102.393.102.622zm-.778 0c0-.158-.016-.29-.049-.397-.03-.106-.072-.192-.126-.258-.052-.065-.115-.111-.189-.139-.07-.03-.147-.045-.229-.045-.082 0-.158.015-.23.045-.07.028-.131.074-.183.14-.05.065-.089.151-.119.257-.03.107-.045.24-.045.397 0 .153.015.281.045.385.03.101.07.183.119.246.052.062.113.107.184.135.07.027.147.04.23.04.08 0 .157-.013.228-.04.074-.028.137-.073.189-.135.054-.063.096-.145.126-.246.033-.104.05-.232.05-.385zm2.747-1.272c.035-.041.076-.078.123-.111.049-.033.117-.05.204-.05h.737l-4.396 5.768c-.035.043-.078.08-.127.11-.049.027-.109.041-.18.041h-.753l4.392-5.758zm1.375 4.367c0 .223-.038.425-.115.605-.073.18-.173.334-.298.463-.126.125-.272.223-.438.294-.167.069-.34.103-.52.103-.197 0-.378-.034-.544-.103-.167-.07-.311-.169-.434-.294-.12-.129-.215-.283-.283-.463-.068-.18-.102-.382-.102-.605 0-.23.034-.437.102-.623.069-.185.163-.342.283-.47.123-.129.267-.227.434-.295.166-.07.347-.106.544-.106.196 0 .378.035.544.106.17.068.314.166.434.295.123.128.218.285.287.47.07.186.106.393.106.623zm-.782 0c0-.159-.015-.291-.045-.397-.03-.107-.072-.193-.127-.258-.052-.066-.114-.112-.188-.14-.07-.03-.147-.044-.23-.044-.081 0-.157.014-.228.044-.071.028-.133.074-.184.14-.052.065-.093.151-.123.257-.028.107-.041.24-.041.398 0 .152.013.28.04.384.03.104.072.187.124.25.051.063.113.108.184.135.07.027.147.04.229.04.082 0 .158-.013.229-.04.074-.027.136-.072.188-.135.055-.063.097-.146.127-.25.03-.103.045-.232.045-.384zm2.164-1.175c0-.562-.068-1.115-.205-1.658-.133-.545-.327-1.056-.58-1.53-.03-.058-.049-.107-.054-.148-.003-.043.001-.08.012-.11.011-.033.027-.06.05-.082.024-.025.051-.045.081-.061l.45-.27c.202.31.374.623.516.937.142.31.258.626.348.945.09.32.156.644.196.974.041.328.062.662.062 1.003 0 .34-.02.675-.062 1.003-.04.327-.106.65-.196.97-.09.319-.206.635-.348.95-.142.313-.314.625-.516.936l-.45-.274c-.03-.016-.057-.037-.082-.061-.022-.022-.038-.05-.049-.082-.01-.03-.015-.067-.012-.11.005-.042.023-.09.053-.144.254-.477.448-.988.581-1.53.137-.544.205-1.096.205-1.658z"/>
            <path fill="#494C55" d="M30.767 44.766c.827-.109 1.45-.386 1.871-.83.429-.452.643-1.04.643-1.766 0-.296-.054-.553-.163-.771-.102-.227-.25-.425-.445-.597-.187-.171-.409-.32-.666-.444-.257-.125-.538-.242-.842-.35l-.398 4.758zm-.748-12.36c-.437.055-.807.148-1.111.28-.304.126-.553.282-.748.469-.195.187-.34.397-.433.631-.086.234-.129.48-.129.737 0 .296.051.557.152.783.11.219.254.417.433.597.187.171.405.327.655.467.25.133.522.258.818.375l.363-4.339zm1.368 4.9c.561.171 1.119.362 1.672.573.554.203 1.049.468 1.485.795.445.327.803.737 1.076 1.228.273.483.41 1.091.41 1.824 0 .725-.121 1.407-.363 2.046-.242.632-.596 1.193-1.064 1.684-.468.484-1.04.881-1.72 1.193-.677.304-1.453.483-2.326.538l-.14 1.719c-.008.18-.086.343-.234.491-.14.156-.32.234-.538.234H28.58l.21-2.503c-.912-.124-1.77-.374-2.573-.748-.802-.374-1.485-.838-2.046-1.392l.889-1.32c.078-.118.18-.211.304-.282.132-.078.273-.116.42-.116.172 0 .356.062.55.187.195.117.418.257.667.42.25.156.534.316.854.48.32.164.697.285 1.134.363l.433-5.227c-.554-.156-1.103-.34-1.65-.55-.537-.21-1.024-.487-1.46-.83-.43-.351-.777-.792-1.042-1.322s-.397-1.192-.397-1.988c0-.592.117-1.169.35-1.73.234-.57.577-1.076 1.03-1.52.46-.445 1.02-.811 1.683-1.1.663-.288 1.423-.452 2.28-.49l.13-1.474c.015-.187.093-.355.233-.503.14-.148.324-.222.55-.222h1.064l-.187 2.292c.826.132 1.54.37 2.14.713.6.335 1.118.714 1.555 1.134L35 32.968c-.101.155-.206.272-.315.35-.11.078-.242.117-.398.117-.117 0-.257-.035-.42-.105-.165-.078-.348-.168-.55-.269-.203-.109-.433-.218-.69-.327-.25-.11-.527-.2-.83-.27l-.41 4.842zm9.427-2.117c0 .944.242 1.665.725 2.164.491.49 1.185.736 2.081.736.468 0 .885-.074 1.252-.222.366-.148.674-.35.923-.608.25-.257.437-.561.562-.912.132-.35.198-.729.198-1.134 0-.46-.07-.87-.21-1.228-.14-.367-.34-.674-.596-.924-.258-.25-.566-.44-.924-.573-.351-.132-.737-.199-1.158-.199-.436 0-.83.074-1.18.222-.352.14-.652.34-.901.597-.25.257-.44.565-.573.924-.133.35-.2.736-.2 1.157zm3.835 5.274c.133-.164.258-.323.375-.48.117-.155.23-.311.339-.467-.39.25-.819.44-1.287.573-.467.125-.959.187-1.473.187-.585 0-1.158-.101-1.719-.304-.561-.203-1.06-.507-1.497-.912-.436-.413-.791-.92-1.064-1.52-.265-.608-.397-1.318-.397-2.129 0-.756.14-1.465.42-2.128.281-.662.675-1.243 1.182-1.742.506-.499 1.114-.893 1.824-1.181.71-.289 1.493-.433 2.35-.433.866 0 1.641.137 2.327.41.694.272 1.283.654 1.766 1.146.491.49.865 1.08 1.122 1.765.266.686.398 1.439.398 2.257 0 .522-.047 1.017-.14 1.485-.086.468-.21.92-.374 1.357-.164.428-.363.85-.597 1.262-.234.414-.495.823-.783 1.228l-3.87 5.52c-.133.187-.332.347-.597.48-.265.124-.565.186-.9.186h-2.655l5.25-6.56zm7.252 9.425c-.14-.117-.21-.261-.21-.432 0-.063.02-.133.058-.211.047-.078.101-.148.164-.21.086-.094.19-.211.316-.351.124-.133.25-.289.374-.468.124-.172.238-.363.339-.573.11-.203.19-.421.245-.655-.249 0-.475-.043-.678-.129-.202-.093-.378-.218-.526-.374-.14-.156-.253-.339-.34-.55-.077-.21-.116-.44-.116-.69 0-.217.039-.42.117-.607.086-.195.203-.363.35-.503.149-.148.328-.261.539-.34.21-.085.44-.128.69-.128.296 0 .553.055.771.164.226.101.41.245.55.432.148.18.257.39.327.632.078.234.117.483.117.748 0 .374-.058.768-.175 1.181-.11.414-.273.827-.491 1.24-.219.413-.491.815-.819 1.204-.32.39-.686.749-1.099 1.076l-.503-.456zm5.365-15.061c.117-.81.343-1.52.678-2.128.335-.616.752-1.127 1.251-1.532.507-.413 1.084-.721 1.73-.924.656-.21 1.357-.316 2.106-.316.78 0 1.48.113 2.104.34.632.218 1.17.526 1.614.923.444.39.784.85 1.017 1.38.242.53.363 1.103.363 1.719 0 .538-.062 1.013-.187 1.426-.117.406-.289.76-.515 1.065-.226.304-.506.56-.842.771-.335.21-.713.386-1.134.527 1.014.32 1.77.806 2.269 1.461.499.655.748 1.478.748 2.468 0 .842-.156 1.586-.468 2.233-.311.647-.733 1.193-1.263 1.637-.53.437-1.146.768-1.847.994-.694.226-1.43.34-2.21.34-.85 0-1.59-.098-2.222-.293-.631-.195-1.181-.483-1.649-.865-.468-.382-.865-.85-1.193-1.404-.327-.553-.608-1.192-.841-1.917l1.274-.526c.335-.14.647-.176.936-.106.296.063.51.218.643.468.14.273.292.542.456.807.171.265.374.503.608.713.234.203.507.37.818.503.32.125.698.187 1.135.187.49 0 .92-.078 1.286-.234.366-.163.67-.374.912-.631.25-.257.433-.542.55-.854.124-.32.187-.64.187-.959 0-.405-.043-.772-.129-1.099-.086-.335-.265-.62-.538-.854-.273-.233-.666-.417-1.18-.55-.508-.132-1.19-.198-2.047-.198v-2.058c.71-.008 1.298-.074 1.766-.199.467-.125.838-.296 1.11-.514.281-.226.476-.495.585-.807.11-.312.164-.655.164-1.03 0-.794-.222-1.399-.667-1.812-.444-.413-1.037-.62-1.777-.62-.343 0-.659.051-.947.152-.289.094-.55.23-.784.41-.226.171-.417.374-.573.608-.156.234-.273.491-.35.772-.133.358-.309.596-.527.713-.21.117-.51.144-.9.082l-1.52-.27zm18.407 1.426l-.585.725c.328-.163.679-.288 1.053-.374.382-.093.791-.14 1.228-.14.639 0 1.259.105 1.859.316.608.21 1.142.53 1.602.959.46.42.83.947 1.11 1.578.282.632.422 1.368.422 2.21 0 .788-.144 1.528-.433 2.222-.288.686-.694 1.286-1.216 1.8-.522.515-1.154.92-1.894 1.217-.733.296-1.544.444-2.433.444-.904 0-1.715-.144-2.432-.432-.717-.289-1.329-.69-1.836-1.205-.506-.522-.896-1.146-1.17-1.87-.264-.734-.397-1.544-.397-2.433 0-.795.16-1.61.48-2.444.327-.842.83-1.715 1.508-2.62l4.034-5.414c.14-.187.344-.346.609-.479.272-.132.584-.199.935-.199h2.573l-5.017 6.14zm.655 8.595c.46 0 .88-.078 1.263-.234.39-.156.72-.374.994-.654.28-.281.499-.609.655-.983.156-.382.234-.795.234-1.24 0-.483-.075-.915-.223-1.297-.148-.39-.358-.718-.631-.982-.273-.273-.6-.48-.982-.62s-.803-.21-1.263-.21c-.46 0-.877.077-1.251.233-.375.156-.694.374-.96.655-.264.273-.471.6-.62.982-.147.374-.221.78-.221 1.216 0 .468.062.897.187 1.287.132.382.323.709.573.982.257.273.573.487.947.643.374.148.807.222 1.298.222zm19.787-6.28c0 1.474-.16 2.757-.48 3.848-.311 1.084-.748 1.98-1.309 2.69-.553.709-1.212 1.239-1.976 1.59-.756.343-1.575.514-2.456.514-.88 0-1.7-.171-2.455-.514-.749-.351-1.4-.881-1.953-1.59-.554-.71-.986-1.607-1.298-2.69-.312-1.091-.468-2.374-.468-3.847 0-1.481.156-2.764.468-3.847.312-1.084.744-1.98 1.298-2.69.553-.71 1.204-1.236 1.953-1.579.756-.35 1.574-.526 2.455-.526s1.7.176 2.456.526c.764.343 1.423.87 1.976 1.58.561.709.998 1.605 1.31 2.689.32 1.083.48 2.366.48 3.847zm-2.982 0c0-1.223-.09-2.237-.269-3.04-.179-.803-.42-1.442-.725-1.917-.296-.476-.639-.807-1.029-.994-.39-.195-.795-.293-1.216-.293-.413 0-.814.098-1.204.293-.382.187-.721.518-1.017.994-.297.475-.535 1.114-.714 1.917-.171.803-.257 1.817-.257 3.04 0 1.225.086 2.238.257 3.041.18.803.417 1.442.713 1.918.297.475.636.81 1.018 1.005.39.188.791.281 1.204.281.421 0 .827-.093 1.216-.28.39-.195.733-.53 1.03-1.006.303-.476.545-1.115.724-1.918.18-.803.27-1.816.27-3.04zm4.574 6.865c0-.242.043-.472.129-.69.094-.218.218-.405.374-.561.156-.156.343-.281.562-.375.218-.093.452-.14.701-.14.25 0 .48.047.69.14.218.094.405.219.561.375.164.156.293.343.386.561.094.218.141.448.141.69 0 .25-.047.483-.141.702-.093.21-.222.393-.386.55-.156.155-.343.276-.561.362-.21.093-.44.14-.69.14-.25 0-.483-.047-.701-.14-.219-.086-.406-.207-.562-.363-.156-.156-.28-.339-.374-.55-.086-.218-.129-.452-.129-.701zm10.649-9.18l-.585.725c.327-.163.678-.288 1.052-.374.382-.093.792-.14 1.228-.14.639 0 1.259.105 1.859.316.609.21 1.143.53 1.602.959.46.42.831.947 1.111 1.578.281.632.421 1.368.421 2.21 0 .788-.144 1.528-.432 2.222-.289.686-.694 1.286-1.216 1.8-.523.515-1.154.92-1.895 1.217-.733.296-1.543.444-2.432.444-.904 0-1.715-.144-2.432-.432-.718-.289-1.329-.69-1.836-1.205-.507-.522-.897-1.146-1.17-1.87-.265-.734-.397-1.544-.397-2.433 0-.795.16-1.61.479-2.444.328-.842.831-1.715 1.509-2.62l4.034-5.414c.14-.187.343-.346.608-.479.273-.132.585-.199.936-.199h2.572l-5.016 6.14zm.654 8.595c.46 0 .881-.078 1.263-.234.39-.156.721-.374.994-.654.281-.281.499-.609.655-.983.156-.382.234-.795.234-1.24 0-.483-.074-.915-.222-1.297-.148-.39-.359-.718-.632-.982-.272-.273-.6-.48-.982-.62s-.803-.21-1.263-.21c-.46 0-.877.077-1.251.233-.374.156-.694.374-.959.655-.265.273-.471.6-.62.982-.148.374-.222.78-.222 1.216 0 .468.063.897.187 1.287.133.382.324.709.573.982.258.273.573.487.947.643.375.148.807.222 1.298.222zm19.577-14.734v1.252c0 .374-.039.678-.117.912-.078.226-.156.417-.233.573l-6.409 13.19c-.132.273-.319.507-.561.702-.242.187-.565.28-.97.28h-2.094l6.537-12.921c.148-.265.292-.507.433-.725.148-.226.312-.44.491-.643h-8.092c-.179 0-.335-.067-.468-.2-.132-.132-.199-.288-.199-.467v-1.953h11.682z"/>
            <path stroke="#BE6CFF" stroke-miterlimit="10" stroke-width="1.136" d="M0 250.646l5.754-.751 5.754-.553 5.754-.867 5.754.23 5.754-.857 5.754-1.813 5.754-.367 5.754-1.615 5.754.075 5.754.234 5.754-.942 5.754.489 5.754-.896 5.754-1.785 5.754-1.103 5.754-1.215 5.754-.926 5.753-.058 5.754-.612 5.754.14 5.754-1.035 5.754-.03 5.754-.5 5.754-.489 5.754-.935 5.754-1.074 5.754-.434 5.754-1.687 5.754-1.494 5.754.306 5.754-.131 5.754-.92 5.754-.922 5.754-1.306 5.754.171 5.754-1.025 5.754-.998 5.754-.637 5.754-.727 5.754-.319 5.754-1.02 5.754-.752 5.754-.777 5.754-.68 5.754.151 5.754 2.942 5.754-1.365 5.753 1.957 5.754.985 5.754-4.551 5.754-.184 5.754-1.838 5.754 1.964 5.754-.911 5.754-.766 5.754-.111 5.754-1.941 5.754-.645 5.754-1.32 5.754-1.003 5.754-1.462 5.754-1.102 5.754-.79 5.754-1.476 5.754-7.099 5.754-.612 5.754-1.645 5.754.17 5.754-4.222 5.754-8.117 5.754-9.115 5.754-4.029 5.754-.833 5.754 6.515 5.754-9.722 5.754-12.61 5.754.374 5.754-6.067 5.754 9.396 5.753-4.719 5.754 7.518 5.754-12.186 5.754-4.874 5.754 8.673 5.754 1.11 5.754 1.882 5.754-5.832 5.754.006 5.754 1.199 5.754 14.806 5.754.89 5.754-4.174 5.754-.225 5.754-11.569 5.754 2.258 5.754.662 5.754 3.724 5.754 12.255 5.754-4.611 5.754-1.733 5.754 2.612 5.754-3.828 5.754.063 5.754-.358 5.754-7.627 5.754-5.369 5.754.346 5.754-7.048 5.754-7.589 5.753.638 5.754-.676 5.754 11.228 5.754 3.628 5.754 19.123 5.754-8.724 5.754-1.696 5.754-14.429 5.754-3.496 5.754-3.167 5.754-9.306 5.754-19.286 5.754 1.567 5.754-15.363 5.754 13.869 5.754-12.18L725 93.591"/>
            <path fill="url(#prefix__paint0_linear)" fill-opacity=".302" d="M0 250.646l5.754-.751 5.754-.553 5.754-.867 5.754.23 5.754-.857 5.754-1.813 5.754-.367 5.754-1.615 5.754.075 5.754.234 5.754-.942 5.754.489 5.754-.896 5.754-1.785 5.754-1.103 5.754-1.215 5.754-.926 5.753-.058 5.754-.612 5.754.14 5.754-1.035 5.754-.03 5.754-.5 5.754-.489 5.754-.935 5.754-1.074 5.754-.434 5.754-1.687 5.754-1.494 5.754.306 5.754-.131 5.754-.92 5.754-.922 5.754-1.306 5.754.171 5.754-1.025 5.754-.998 5.754-.637 5.754-.727 5.754-.319 5.754-1.02 5.754-.752 5.754-.777 5.754-.68 5.754.151 5.754 2.942 5.754-1.365 5.753 1.957 5.754.985 5.754-4.551 5.754-.184 5.754-1.838 5.754 1.964 5.754-.911 5.754-.766 5.754-.111 5.754-1.941 5.754-.645 5.754-1.32 5.754-1.003 5.754-1.462 5.754-1.102 5.754-.79 5.754-1.476 5.754-7.099 5.754-.612 5.754-1.645 5.754.17 5.754-4.222 5.754-8.117 5.754-9.115 5.754-4.029 5.754-.833 5.754 6.515 5.754-9.722 5.754-12.61 5.754.374 5.754-6.067 5.754 9.396 5.754-4.719 5.753 7.518 5.754-12.186 5.754-4.874 5.754 8.673 5.754 1.11 5.754 1.882 5.754-5.832 5.754.006 5.754 1.199 5.754 14.806 5.754.89 5.754-4.174 5.754-.225 5.754-11.569 5.754 2.258 5.754.662 5.754 3.724 5.754 12.255 5.754-4.611 5.754-1.733 5.754 2.612 5.754-3.828 5.754.063 5.754-.358 5.754-7.627 5.754-5.369 5.754.346 5.754-7.048 5.754-7.589 5.754.638 5.753-.676 5.754 11.228 5.754 3.628 5.754 19.123 5.754-8.724 5.754-1.696 5.754-14.429 5.754-3.496 5.754-3.167 5.754-9.306 5.754-19.286 5.754 1.567 5.754-15.363 5.754 13.869 5.754-12.18L725 93.591v157.813H0v-.758z"/>
        </g>
        <path fill="#494C55" d="M17.405 261.579h-.7l-1.446.96v.712l1.412-.938h.034v5.051h.7v-5.785zm3.698 0h-.7l-1.447.96v.712l1.413-.938h.034v5.051h.7v-5.785zm2.161 5.045c.28 0 .508-.229.508-.509 0-.279-.228-.508-.508-.508s-.508.229-.508.508c0 .28.228.509.508.509zm0-2.927c.28 0 .508-.228.508-.508s-.228-.508-.508-.508-.508.228-.508.508.228.508.508.508zm3.648 3.746c1.122 0 1.955-.703 1.955-1.65 0-.734-.435-1.268-1.164-1.389v-.046c.585-.177.95-.658.95-1.31 0-.819-.648-1.548-1.718-1.548-1 0-1.83.616-1.865 1.525h.678c.026-.576.574-.915 1.175-.915.639 0 1.051.387 1.051.972 0 .61-.477 1.005-1.163 1.005h-.464v.622h.463c.879 0 1.368.446 1.368 1.084 0 .613-.534 1.029-1.277 1.029-.67 0-1.2-.345-1.243-.904h-.712c.042.909.845 1.525 1.966 1.525zm4.997 0c1.277 0 2.011-1.082 2.011-2.972 0-1.875-.745-2.971-2.01-2.971-1.266 0-2.012 1.096-2.012 2.971 0 1.89.734 2.972 2.011 2.972zm0-.621c-.842 0-1.333-.845-1.333-2.351 0-1.502.497-2.361 1.333-2.361s1.333.859 1.333 2.361c0 1.506-.491 2.351-1.333 2.351zm5.661.542l.582-1.638h2.339l.582 1.638h.734l-2.124-5.785h-.723l-2.124 5.785h.734zm.802-2.26l.927-2.61h.045l.926 2.61h-1.898zm4.336-3.525v5.785h.656v-4.395h.056l1.808 4.395h.633l1.808-4.395h.056v4.395h.655v-5.785h-.836l-1.966 4.802h-.068l-1.966-4.802h-.836zM152.633 261.579h-.701l-1.446.96v.712l1.412-.938h.034v5.051h.701v-5.785zm2.161 5.045c.279 0 .508-.229.508-.509 0-.279-.229-.508-.508-.508-.28 0-.509.229-.509.508 0 .28.229.509.509.509zm0-2.927c.279 0 .508-.228.508-.508s-.229-.508-.508-.508c-.28 0-.509.228-.509.508s.229.508.509.508zm3.58 3.746c1.277 0 2.011-1.082 2.011-2.972 0-1.875-.745-2.971-2.011-2.971-1.265 0-2.011 1.096-2.011 2.971 0 1.89.734 2.972 2.011 2.972zm0-.621c-.842 0-1.333-.845-1.333-2.351 0-1.502.497-2.361 1.333-2.361s1.333.859 1.333 2.361c0 1.506-.491 2.351-1.333 2.351zm4.972.621c1.276 0 2.011-1.082 2.011-2.972 0-1.875-.746-2.971-2.011-2.971-1.266 0-2.012 1.096-2.012 2.971 0 1.89.735 2.972 2.012 2.972zm0-.621c-.842 0-1.334-.845-1.334-2.351 0-1.502.497-2.361 1.334-2.361.836 0 1.333.859 1.333 2.361 0 1.506-.492 2.351-1.333 2.351zm5.423.542h.701v-2.113h1.265c1.348 0 1.955-.819 1.955-1.842 0-1.022-.607-1.83-1.966-1.83h-1.955v5.785zm.701-2.734v-2.43h1.231c.941 0 1.3.514 1.3 1.209 0 .695-.359 1.221-1.288 1.221h-1.243zm4.348-3.051v5.785h.656v-4.395h.056l1.808 4.395h.633l1.808-4.395h.056v4.395h.656v-5.785h-.837l-1.966 4.802h-.067l-1.966-4.802h-.837zM281.281 267.364h3.649v-.621h-2.689v-.046l1.3-1.389c.994-1.065 1.288-1.563 1.288-2.204 0-.892-.723-1.604-1.74-1.604-1.015 0-1.786.689-1.786 1.706h.667c0-.658.427-1.096 1.096-1.096.627 0 1.107.384 1.107.994 0 .534-.313.93-.983 1.661l-1.909 2.091v.508zm5.313-.74c.28 0 .509-.229.509-.509 0-.279-.229-.508-.509-.508s-.508.229-.508.508c0 .28.228.509.508.509zm0-2.927c.28 0 .509-.228.509-.508s-.229-.508-.509-.508-.508.228-.508.508.228.508.508.508zm3.648 3.746c1.122 0 1.955-.703 1.955-1.65 0-.734-.435-1.268-1.164-1.389v-.046c.585-.177.949-.658.949-1.31 0-.819-.647-1.548-1.717-1.548-1 0-1.831.616-1.864 1.525h.678c.025-.576.573-.915 1.175-.915.638 0 1.05.387 1.05.972 0 .61-.477 1.005-1.163 1.005h-.464v.622h.464c.878 0 1.367.446 1.367 1.084 0 .613-.534 1.029-1.277 1.029-.669 0-1.201-.345-1.243-.904h-.712c.043.909.845 1.525 1.966 1.525zm4.997 0c1.277 0 2.012-1.082 2.012-2.972 0-1.875-.746-2.971-2.012-2.971-1.265 0-2.011 1.096-2.011 2.971 0 1.89.735 2.972 2.011 2.972zm0-.621c-.841 0-1.333-.845-1.333-2.351 0-1.502.497-2.361 1.333-2.361s1.334.859 1.334 2.361c0 1.506-.492 2.351-1.334 2.351zm5.424.542h.7v-2.113h1.266c1.347 0 1.955-.819 1.955-1.842 0-1.022-.608-1.83-1.966-1.83h-1.955v5.785zm.7-2.734v-2.43h1.232c.941 0 1.299.514 1.299 1.209 0 .695-.358 1.221-1.288 1.221h-1.243zm4.349-3.051v5.785h.655v-4.395h.057l1.808 4.395h.633l1.807-4.395h.057v4.395h.655v-5.785h-.836l-1.966 4.802h-.068l-1.966-4.802h-.836zM412.963 266.178h2.723v1.186h.667v-1.186h.791v-.622h-.791v-3.977h-.847l-2.543 4.022v.577zm2.723-.622h-1.966v-.045l1.921-3.039h.045v3.084zm3.014 1.068c.279 0 .508-.229.508-.509 0-.279-.229-.508-.508-.508-.28 0-.509.229-.509.508 0 .28.229.509.509.509zm0-2.927c.279 0 .508-.228.508-.508s-.229-.508-.508-.508c-.28 0-.509.228-.509.508s.229.508.509.508zm3.58 3.746c1.277 0 2.011-1.082 2.011-2.972 0-1.875-.745-2.971-2.011-2.971-1.265 0-2.011 1.096-2.011 2.971 0 1.89.734 2.972 2.011 2.972zm0-.621c-.842 0-1.333-.845-1.333-2.351 0-1.502.497-2.361 1.333-2.361s1.333.859 1.333 2.361c0 1.506-.491 2.351-1.333 2.351zm4.972.621c1.276 0 2.011-1.082 2.011-2.972 0-1.875-.746-2.971-2.011-2.971-1.266 0-2.012 1.096-2.012 2.971 0 1.89.735 2.972 2.012 2.972zm0-.621c-.842 0-1.334-.845-1.334-2.351 0-1.502.498-2.361 1.334-2.361.836 0 1.333.859 1.333 2.361 0 1.506-.492 2.351-1.333 2.351zm5.423.542h.701v-2.113h1.265c1.348 0 1.955-.819 1.955-1.842 0-1.022-.607-1.83-1.966-1.83h-1.955v5.785zm.701-2.734v-2.43h1.231c.941 0 1.3.514 1.3 1.209 0 .695-.359 1.221-1.288 1.221h-1.243zm4.348-3.051v5.785h.656v-4.395h.056l1.808 4.395h.633l1.808-4.395h.056v4.395h.656v-5.785h-.837l-1.966 4.802h-.067l-1.966-4.802h-.837zM546.725 267.443c1.101 0 1.909-.813 1.909-1.921 0-1.121-.779-1.943-1.841-1.943-.39 0-.769.138-1.006.327h-.034l.203-1.706h2.418v-.621h-3.005l-.35 2.847.655.079c.24-.172.65-.296 1.006-.293.737.005 1.276.565 1.276 1.322 0 .742-.519 1.288-1.231 1.288-.593 0-1.065-.382-1.119-.904h-.678c.043.881.802 1.525 1.797 1.525zm3.529-.819c.279 0 .508-.229.508-.509 0-.279-.229-.508-.508-.508-.28 0-.509.229-.509.508 0 .28.229.509.509.509zm0-2.927c.279 0 .508-.228.508-.508s-.229-.508-.508-.508c-.28 0-.509.228-.509.508s.229.508.509.508zm3.648 3.746c1.121 0 1.955-.703 1.955-1.65 0-.734-.435-1.268-1.164-1.389v-.046c.585-.177.949-.658.949-1.31 0-.819-.647-1.548-1.718-1.548-1 0-1.83.616-1.864 1.525h.678c.025-.576.573-.915 1.175-.915.639 0 1.051.387 1.051.972 0 .61-.477 1.005-1.164 1.005h-.463v.622h.463c.879 0 1.367.446 1.367 1.084 0 .613-.534 1.029-1.276 1.029-.67 0-1.201-.345-1.243-.904h-.712c.042.909.844 1.525 1.966 1.525zm4.997 0c1.277 0 2.011-1.082 2.011-2.972 0-1.875-.746-2.971-2.011-2.971-1.266 0-2.011 1.096-2.011 2.971 0 1.89.734 2.972 2.011 2.972zm0-.621c-.842 0-1.333-.845-1.333-2.351 0-1.502.497-2.361 1.333-2.361s1.333.859 1.333 2.361c0 1.506-.491 2.351-1.333 2.351zm5.423.542h.701v-2.113h1.265c1.348 0 1.955-.819 1.955-1.842 0-1.022-.607-1.83-1.966-1.83h-1.955v5.785zm.701-2.734v-2.43h1.232c.94 0 1.299.514 1.299 1.209 0 .695-.359 1.221-1.288 1.221h-1.243zm4.349-3.051v5.785h.655v-4.395h.057l1.807 4.395h.633l1.808-4.395h.056v4.395h.656v-5.785h-.836l-1.966 4.802h-.068l-1.966-4.802h-.836zM678.543 267.443c1.102 0 1.91-.813 1.91-1.921 0-1.121-.78-1.943-1.842-1.943-.39 0-.768.138-1.006.327h-.034l.204-1.706h2.418v-.621h-3.006l-.35 2.847.655.079c.24-.172.65-.296 1.006-.293.737.005 1.277.565 1.277 1.322 0 .742-.52 1.288-1.232 1.288-.593 0-1.065-.382-1.119-.904h-.677c.042.881.802 1.525 1.796 1.525zm3.529-.819c.28 0 .508-.229.508-.509 0-.279-.228-.508-.508-.508s-.509.229-.509.508c0 .28.229.509.509.509zm0-2.927c.28 0 .508-.228.508-.508s-.228-.508-.508-.508-.509.228-.509.508.229.508.509.508zm3.648 3.746c1.122 0 1.955-.703 1.955-1.65 0-.734-.435-1.268-1.164-1.389v-.046c.585-.177.949-.658.949-1.31 0-.819-.647-1.548-1.717-1.548-1 0-1.831.616-1.865 1.525h.678c.026-.576.574-.915 1.175-.915.639 0 1.051.387 1.051.972 0 .61-.477 1.005-1.164 1.005h-.463v.622h.463c.879 0 1.368.446 1.368 1.084 0 .613-.534 1.029-1.277 1.029-.67 0-1.201-.345-1.243-.904h-.712c.042.909.845 1.525 1.966 1.525zm4.997 0c1.277 0 2.011-1.082 2.011-2.972 0-1.875-.745-2.971-2.011-2.971-1.265 0-2.011 1.096-2.011 2.971 0 1.89.734 2.972 2.011 2.972zm0-.621c-.842 0-1.333-.845-1.333-2.351 0-1.502.497-2.361 1.333-2.361s1.333.859 1.333 2.361c0 1.506-.491 2.351-1.333 2.351zm5.424.542h.7v-2.113h1.266c1.347 0 1.954-.819 1.954-1.842 0-1.022-.607-1.83-1.966-1.83h-1.954v5.785zm.7-2.734v-2.43h1.232c.94 0 1.299.514 1.299 1.209 0 .695-.359 1.221-1.288 1.221h-1.243zm4.349-3.051v5.785h.655v-4.395h.057l1.808 4.395h.632l1.808-4.395h.057v4.395h.655v-5.785h-.836l-1.966 4.802h-.068l-1.966-4.802h-.836z"/>
    </g>
    <defs>
        <linearGradient id="prefix__paint0_linear" x1="362.5" x2="362.5" y1="93.591" y2="251.404" gradientUnits="userSpaceOnUse">
            <stop stop-color="#FF35E2"/>
            <stop offset="1" stop-color="#881DEB"/>
        </linearGradient>
        <clipPath id="prefix__clip0">
            <path fill="#fff" d="M0 0H725V280.645H0z" transform="translate(0 .41)"/>
        </clipPath>
    </defs>
</svg>
