<svg width="220" height="228" viewBox="0 0 220 228" fill="none" xmlns="http://www.w3.org/2000/svg">
<g clip-path="url(#clip0)">
<rect y="0.0986328" width="219.366" height="226.97" fill="white"/>
<mask id="mask0" mask-type="alpha" maskUnits="userSpaceOnUse" x="0" y="0" width="220" height="228">
<rect y="0.0986328" width="219.366" height="226.97" fill="white"/>
</mask>
<g mask="url(#mask0)">
</g>
<g clip-path="url(#clip1)">
<g opacity="0.2" filter="url(#filter0_i)">
<rect y="196.65" width="219.366" height="30.4187" fill="black" fill-opacity="0.01"/>
</g>
<path d="M19.6652 214.493V215.01H16.745V214.493H17.9123V210.778C17.9123 210.666 17.9161 210.554 17.9237 210.44L16.9541 211.272C16.9212 211.3 16.8882 211.318 16.8553 211.326C16.8223 211.331 16.7919 211.331 16.764 211.326C16.7361 211.32 16.7095 211.31 16.6842 211.295C16.6614 211.28 16.6436 211.263 16.6309 211.246L16.418 210.953L18.0416 209.55H18.593V214.493H19.6652ZM24.0765 214.493V215.01H21.1563V214.493H22.3236V210.778C22.3236 210.666 22.3274 210.554 22.3351 210.44L21.3655 211.272C21.3325 211.3 21.2995 211.318 21.2666 211.326C21.2336 211.331 21.2032 211.331 21.1753 211.326C21.1475 211.32 21.1208 211.31 21.0955 211.295C21.0727 211.28 21.0549 211.263 21.0423 211.246L20.8293 210.953L22.4529 209.55H23.0043V214.493H24.0765ZM25.0923 214.592C25.0923 214.526 25.1037 214.464 25.1266 214.405C25.1519 214.347 25.1849 214.296 25.2254 214.253C25.2685 214.21 25.3192 214.176 25.3775 214.151C25.4358 214.125 25.4979 214.113 25.5638 214.113C25.6297 214.113 25.6918 214.125 25.7501 214.151C25.8085 214.176 25.8591 214.21 25.9022 214.253C25.9453 214.296 25.9796 214.347 26.0049 214.405C26.0303 214.464 26.0429 214.526 26.0429 214.592C26.0429 214.66 26.0303 214.724 26.0049 214.782C25.9796 214.838 25.9453 214.887 25.9022 214.93C25.8591 214.973 25.8085 215.006 25.7501 215.029C25.6918 215.054 25.6297 215.067 25.5638 215.067C25.4979 215.067 25.4358 215.054 25.3775 215.029C25.3192 215.006 25.2685 214.973 25.2254 214.93C25.1849 214.887 25.1519 214.838 25.1266 214.782C25.1037 214.724 25.0923 214.66 25.0923 214.592ZM25.0923 211.74C25.0923 211.674 25.1037 211.612 25.1266 211.554C25.1519 211.495 25.1849 211.445 25.2254 211.402C25.2685 211.358 25.3192 211.324 25.3775 211.299C25.4358 211.274 25.4979 211.261 25.5638 211.261C25.6297 211.261 25.6918 211.274 25.7501 211.299C25.8085 211.324 25.8591 211.358 25.9022 211.402C25.9453 211.445 25.9796 211.495 26.0049 211.554C26.0303 211.612 26.0429 211.674 26.0429 211.74C26.0429 211.808 26.0303 211.872 26.0049 211.93C25.9796 211.986 25.9453 212.035 25.9022 212.078C25.8591 212.121 25.8085 212.156 25.7501 212.181C25.6918 212.204 25.6297 212.215 25.5638 212.215C25.4979 212.215 25.4358 212.204 25.3775 212.181C25.3192 212.156 25.2685 212.121 25.2254 212.078C25.1849 212.035 25.1519 211.986 25.1266 211.93C25.1037 211.872 25.0923 211.808 25.0923 211.74ZM27.0125 211.037C27.048 210.788 27.1165 210.569 27.2179 210.379C27.3192 210.186 27.4473 210.025 27.6019 209.896C27.7591 209.767 27.9378 209.669 28.138 209.603C28.3408 209.535 28.5588 209.5 28.792 209.5C29.0227 209.5 29.2356 209.533 29.4308 209.599C29.626 209.665 29.7933 209.759 29.9327 209.881C30.0747 210.002 30.1849 210.149 30.2635 210.322C30.3421 210.494 30.3814 210.685 30.3814 210.896C30.3814 211.068 30.3586 211.223 30.313 211.36C30.2699 211.494 30.2065 211.612 30.1228 211.713C30.0417 211.815 29.9429 211.901 29.8263 211.972C29.7097 212.043 29.5791 212.101 29.4346 212.147C29.7895 212.238 30.0557 212.395 30.2331 212.618C30.4131 212.839 30.5031 213.115 30.5031 213.447C30.5031 213.698 30.4549 213.924 30.3586 214.124C30.2648 214.324 30.1355 214.495 29.9707 214.637C29.806 214.777 29.6133 214.885 29.3928 214.961C29.1748 215.034 28.9403 215.071 28.6894 215.071C28.4004 215.071 28.1532 215.035 27.9479 214.964C27.7426 214.891 27.5689 214.791 27.427 214.664C27.285 214.537 27.1684 214.388 27.0772 214.215C26.9859 214.04 26.9086 213.852 26.8452 213.649L27.138 213.527C27.214 213.494 27.2876 213.485 27.3585 213.5C27.432 213.516 27.4853 213.558 27.5182 213.626C27.5512 213.697 27.5917 213.782 27.6399 213.881C27.6906 213.98 27.7591 214.075 27.8452 214.166C27.9314 214.257 28.0404 214.334 28.1722 214.398C28.3066 214.461 28.4764 214.493 28.6818 214.493C28.8719 214.493 29.0379 214.462 29.1799 214.402C29.3243 214.338 29.4435 214.257 29.5373 214.158C29.6336 214.059 29.7058 213.949 29.754 213.827C29.8022 213.706 29.8263 213.585 29.8263 213.466C29.8263 213.319 29.8072 213.185 29.7692 213.063C29.7312 212.942 29.6602 212.836 29.5563 212.748C29.4524 212.659 29.3091 212.589 29.1266 212.538C28.9466 212.488 28.7147 212.462 28.4308 212.462V211.972C28.664 211.969 28.8617 211.944 29.024 211.896C29.1887 211.848 29.3218 211.782 29.4232 211.698C29.5271 211.615 29.6019 211.514 29.6475 211.398C29.6957 211.281 29.7198 211.152 29.7198 211.01C29.7198 210.853 29.6944 210.716 29.6437 210.599C29.5956 210.483 29.5284 210.386 29.4422 210.31C29.356 210.234 29.2534 210.177 29.1342 210.139C29.0176 210.101 28.8909 210.082 28.754 210.082C28.6171 210.082 28.4891 210.102 28.37 210.143C28.2534 210.184 28.1494 210.241 28.0582 210.314C27.9694 210.385 27.8947 210.47 27.8338 210.569C27.773 210.668 27.7299 210.777 27.7045 210.896C27.6716 210.985 27.6298 211.044 27.5791 211.075C27.5309 211.102 27.4599 211.11 27.3661 211.097L27.0125 211.037ZM35.1121 212.288C35.1121 212.764 35.0601 213.177 34.9562 213.527C34.8548 213.874 34.7154 214.162 34.5379 214.39C34.3605 214.618 34.1501 214.788 33.9068 214.9C33.6659 215.011 33.4074 215.067 33.1311 215.067C32.8522 215.067 32.5924 215.011 32.3516 214.9C32.1133 214.788 31.9055 214.618 31.728 214.39C31.5506 214.162 31.4112 213.874 31.3098 213.527C31.2084 213.177 31.1577 212.764 31.1577 212.288C31.1577 211.811 31.2084 211.398 31.3098 211.048C31.4112 210.698 31.5506 210.409 31.728 210.181C31.9055 209.95 32.1133 209.779 32.3516 209.668C32.5924 209.556 32.8522 209.5 33.1311 209.5C33.4074 209.5 33.6659 209.556 33.9068 209.668C34.1501 209.779 34.3605 209.95 34.5379 210.181C34.7154 210.409 34.8548 210.698 34.9562 211.048C35.0601 211.398 35.1121 211.811 35.1121 212.288ZM34.4087 212.288C34.4087 211.872 34.3732 211.523 34.3022 211.242C34.2338 210.958 34.14 210.73 34.0208 210.557C33.9042 210.385 33.7686 210.262 33.614 210.189C33.4594 210.113 33.2984 210.075 33.1311 210.075C32.9638 210.075 32.8028 210.113 32.6482 210.189C32.4936 210.262 32.3579 210.385 32.2413 210.557C32.1247 210.73 32.0309 210.958 31.96 211.242C31.8915 211.523 31.8573 211.872 31.8573 212.288C31.8573 212.703 31.8915 213.052 31.96 213.333C32.0309 213.615 32.1247 213.841 32.2413 214.014C32.3579 214.186 32.4936 214.31 32.6482 214.386C32.8028 214.46 32.9638 214.497 33.1311 214.497C33.2984 214.497 33.4594 214.46 33.614 214.386C33.7686 214.31 33.9042 214.186 34.0208 214.014C34.14 213.841 34.2338 213.615 34.3022 213.333C34.3732 213.052 34.4087 212.703 34.4087 212.288ZM40.6235 212.987L39.7679 210.77C39.7426 210.704 39.716 210.628 39.6881 210.542C39.6602 210.454 39.6336 210.36 39.6082 210.261C39.555 210.466 39.5005 210.637 39.4447 210.774L38.5892 212.987H40.6235ZM42.1596 215.01H41.5893C41.5234 215.01 41.4701 214.994 41.4296 214.961C41.389 214.928 41.3586 214.886 41.3383 214.835L40.8288 213.519H38.3839L37.8744 214.835C37.8592 214.881 37.83 214.921 37.7869 214.957C37.7438 214.992 37.6906 215.01 37.6272 215.01H37.0569L39.2356 209.561H39.9809L42.1596 215.01ZM48.5457 209.561V215.01H47.8993V211.006C47.8993 210.953 47.9006 210.896 47.9031 210.835C47.9082 210.774 47.9133 210.712 47.9183 210.649L46.0476 214.056C45.9893 214.17 45.9005 214.227 45.7814 214.227H45.6749C45.5558 214.227 45.4671 214.17 45.4088 214.056L43.5 210.634C43.5152 210.768 43.5228 210.892 43.5228 211.006V215.01H42.8764V209.561H43.4202C43.4861 209.561 43.5368 209.568 43.5722 209.58C43.6077 209.593 43.642 209.628 43.6749 209.687L45.5571 213.04C45.5875 213.101 45.6166 213.165 45.6445 213.231C45.6749 213.296 45.7028 213.364 45.7282 213.432C45.7535 213.364 45.7801 213.296 45.808 213.231C45.8359 213.162 45.8663 213.097 45.8993 213.037L47.7472 209.687C47.7776 209.628 47.8106 209.593 47.8461 209.58C47.8841 209.568 47.9361 209.561 48.002 209.561H48.5457Z" fill="#494C55"/>
<path d="M101.444 214.367C101.517 214.367 101.576 214.389 101.619 214.432C101.662 214.475 101.683 214.531 101.683 214.599V215.01H98.0483V214.778C98.0483 214.73 98.0585 214.68 98.0788 214.63C98.099 214.579 98.1307 214.532 98.1738 214.489L99.9191 212.736C100.064 212.589 100.195 212.449 100.315 212.314C100.434 212.177 100.535 212.04 100.619 211.903C100.702 211.767 100.767 211.628 100.813 211.489C100.858 211.347 100.881 211.196 100.881 211.037C100.881 210.877 100.856 210.737 100.805 210.618C100.754 210.497 100.685 210.397 100.596 210.318C100.51 210.239 100.407 210.181 100.288 210.143C100.169 210.102 100.041 210.082 99.9039 210.082C99.7645 210.082 99.6364 210.102 99.5198 210.143C99.4032 210.184 99.2993 210.241 99.2081 210.314C99.1193 210.385 99.0446 210.47 98.9837 210.569C98.9229 210.668 98.8798 210.777 98.8544 210.896C98.824 210.985 98.7822 211.044 98.729 211.075C98.6783 211.102 98.606 211.11 98.5122 211.097L98.1586 211.037C98.1941 210.788 98.2625 210.569 98.3639 210.379C98.4679 210.186 98.5971 210.025 98.7518 209.896C98.9089 209.767 99.0876 209.669 99.2879 209.603C99.4882 209.535 99.7049 209.5 99.9381 209.5C100.169 209.5 100.384 209.535 100.584 209.603C100.785 209.672 100.958 209.772 101.105 209.903C101.252 210.033 101.368 210.191 101.451 210.379C101.535 210.566 101.577 210.779 101.577 211.018C101.577 211.22 101.546 211.409 101.486 211.584C101.425 211.756 101.342 211.921 101.239 212.078C101.135 212.236 101.014 212.389 100.877 212.538C100.743 212.688 100.6 212.839 100.448 212.991L99.0103 214.459C99.1117 214.431 99.2144 214.409 99.3183 214.394C99.4223 214.376 99.5224 214.367 99.6187 214.367H101.444ZM102.578 214.592C102.578 214.526 102.589 214.464 102.612 214.405C102.637 214.347 102.67 214.296 102.711 214.253C102.754 214.21 102.804 214.176 102.863 214.151C102.921 214.125 102.983 214.113 103.049 214.113C103.115 214.113 103.177 214.125 103.235 214.151C103.294 214.176 103.344 214.21 103.387 214.253C103.431 214.296 103.465 214.347 103.49 214.405C103.515 214.464 103.528 214.526 103.528 214.592C103.528 214.66 103.515 214.724 103.49 214.782C103.465 214.838 103.431 214.887 103.387 214.93C103.344 214.973 103.294 215.006 103.235 215.029C103.177 215.054 103.115 215.067 103.049 215.067C102.983 215.067 102.921 215.054 102.863 215.029C102.804 215.006 102.754 214.973 102.711 214.93C102.67 214.887 102.637 214.838 102.612 214.782C102.589 214.724 102.578 214.66 102.578 214.592ZM102.578 211.74C102.578 211.674 102.589 211.612 102.612 211.554C102.637 211.495 102.67 211.445 102.711 211.402C102.754 211.358 102.804 211.324 102.863 211.299C102.921 211.274 102.983 211.261 103.049 211.261C103.115 211.261 103.177 211.274 103.235 211.299C103.294 211.324 103.344 211.358 103.387 211.402C103.431 211.445 103.465 211.495 103.49 211.554C103.515 211.612 103.528 211.674 103.528 211.74C103.528 211.808 103.515 211.872 103.49 211.93C103.465 211.986 103.431 212.035 103.387 212.078C103.344 212.121 103.294 212.156 103.235 212.181C103.177 212.204 103.115 212.215 103.049 212.215C102.983 212.215 102.921 212.204 102.863 212.181C102.804 212.156 102.754 212.121 102.711 212.078C102.67 212.035 102.637 211.986 102.612 211.93C102.589 211.872 102.578 211.808 102.578 211.74ZM104.498 211.037C104.533 210.788 104.602 210.569 104.703 210.379C104.804 210.186 104.932 210.025 105.087 209.896C105.244 209.767 105.423 209.669 105.623 209.603C105.826 209.535 106.044 209.5 106.277 209.5C106.508 209.5 106.721 209.533 106.916 209.599C107.111 209.665 107.278 209.759 107.418 209.881C107.56 210.002 107.67 210.149 107.749 210.322C107.827 210.494 107.867 210.685 107.867 210.896C107.867 211.068 107.844 211.223 107.798 211.36C107.755 211.494 107.692 211.612 107.608 211.713C107.527 211.815 107.428 211.901 107.311 211.972C107.195 212.043 107.064 212.101 106.92 212.147C107.275 212.238 107.541 212.395 107.718 212.618C107.898 212.839 107.988 213.115 107.988 213.447C107.988 213.698 107.94 213.924 107.844 214.124C107.75 214.324 107.621 214.495 107.456 214.637C107.291 214.777 107.099 214.885 106.878 214.961C106.66 215.034 106.425 215.071 106.175 215.071C105.886 215.071 105.638 215.035 105.433 214.964C105.228 214.891 105.054 214.791 104.912 214.664C104.77 214.537 104.654 214.388 104.562 214.215C104.471 214.04 104.394 213.852 104.33 213.649L104.623 213.527C104.699 213.494 104.773 213.485 104.844 213.5C104.917 213.516 104.97 213.558 105.003 213.626C105.036 213.697 105.077 213.782 105.125 213.881C105.176 213.98 105.244 214.075 105.33 214.166C105.417 214.257 105.526 214.334 105.657 214.398C105.792 214.461 105.962 214.493 106.167 214.493C106.357 214.493 106.523 214.462 106.665 214.402C106.81 214.338 106.929 214.257 107.022 214.158C107.119 214.059 107.191 213.949 107.239 213.827C107.287 213.706 107.311 213.585 107.311 213.466C107.311 213.319 107.292 213.185 107.254 213.063C107.216 212.942 107.145 212.836 107.041 212.748C106.938 212.659 106.794 212.589 106.612 212.538C106.432 212.488 106.2 212.462 105.916 212.462V211.972C106.149 211.969 106.347 211.944 106.509 211.896C106.674 211.848 106.807 211.782 106.908 211.698C107.012 211.615 107.087 211.514 107.133 211.398C107.181 211.281 107.205 211.152 107.205 211.01C107.205 210.853 107.18 210.716 107.129 210.599C107.081 210.483 107.014 210.386 106.927 210.31C106.841 210.234 106.739 210.177 106.619 210.139C106.503 210.101 106.376 210.082 106.239 210.082C106.102 210.082 105.974 210.102 105.855 210.143C105.739 210.184 105.635 210.241 105.543 210.314C105.455 210.385 105.38 210.47 105.319 210.569C105.258 210.668 105.215 210.777 105.19 210.896C105.157 210.985 105.115 211.044 105.064 211.075C105.016 211.102 104.945 211.11 104.851 211.097L104.498 211.037ZM112.597 212.288C112.597 212.764 112.545 213.177 112.441 213.527C112.34 213.874 112.201 214.162 112.023 214.39C111.846 214.618 111.635 214.788 111.392 214.9C111.151 215.011 110.893 215.067 110.616 215.067C110.337 215.067 110.078 215.011 109.837 214.9C109.598 214.788 109.391 214.618 109.213 214.39C109.036 214.162 108.896 213.874 108.795 213.527C108.694 213.177 108.643 212.764 108.643 212.288C108.643 211.811 108.694 211.398 108.795 211.048C108.896 210.698 109.036 210.409 109.213 210.181C109.391 209.95 109.598 209.779 109.837 209.668C110.078 209.556 110.337 209.5 110.616 209.5C110.893 209.5 111.151 209.556 111.392 209.668C111.635 209.779 111.846 209.95 112.023 210.181C112.201 210.409 112.34 210.698 112.441 211.048C112.545 211.398 112.597 211.811 112.597 212.288ZM111.894 212.288C111.894 211.872 111.858 211.523 111.787 211.242C111.719 210.958 111.625 210.73 111.506 210.557C111.389 210.385 111.254 210.262 111.099 210.189C110.945 210.113 110.784 210.075 110.616 210.075C110.449 210.075 110.288 210.113 110.133 210.189C109.979 210.262 109.843 210.385 109.727 210.557C109.61 210.73 109.516 210.958 109.445 211.242C109.377 211.523 109.342 211.872 109.342 212.288C109.342 212.703 109.377 213.052 109.445 213.333C109.516 213.615 109.61 213.841 109.727 214.014C109.843 214.186 109.979 214.31 110.133 214.386C110.288 214.46 110.449 214.497 110.616 214.497C110.784 214.497 110.945 214.46 111.099 214.386C111.254 214.31 111.389 214.186 111.506 214.014C111.625 213.841 111.719 213.615 111.787 213.333C111.858 213.052 111.894 212.703 111.894 212.288ZM117.076 212.386C117.286 212.386 117.471 212.359 117.631 212.303C117.793 212.247 117.929 212.17 118.038 212.071C118.149 211.969 118.233 211.849 118.289 211.71C118.345 211.57 118.373 211.417 118.373 211.249C118.373 210.902 118.265 210.631 118.049 210.436C117.836 210.241 117.512 210.143 117.076 210.143H116.201V212.386H117.076ZM117.076 209.561C117.421 209.561 117.72 209.602 117.973 209.683C118.229 209.762 118.441 209.874 118.608 210.021C118.776 210.168 118.9 210.346 118.981 210.554C119.065 210.762 119.106 210.993 119.106 211.249C119.106 211.503 119.062 211.735 118.973 211.945C118.885 212.156 118.754 212.337 118.582 212.489C118.412 212.641 118.2 212.76 117.947 212.846C117.696 212.93 117.405 212.972 117.076 212.972H116.201V215.01H115.468V209.561H117.076ZM125.704 209.561V215.01H125.058V211.006C125.058 210.953 125.059 210.896 125.062 210.835C125.067 210.774 125.072 210.712 125.077 210.649L123.206 214.056C123.148 214.17 123.059 214.227 122.94 214.227H122.833C122.714 214.227 122.625 214.17 122.567 214.056L120.658 210.634C120.674 210.768 120.681 210.892 120.681 211.006V215.01H120.035V209.561H120.579C120.644 209.561 120.695 209.568 120.731 209.58C120.766 209.593 120.8 209.628 120.833 209.687L122.715 213.04C122.746 213.101 122.775 213.165 122.803 213.231C122.833 213.296 122.861 213.364 122.887 213.432C122.912 213.364 122.939 213.296 122.966 213.231C122.994 213.162 123.025 213.097 123.058 213.037L124.906 209.687C124.936 209.628 124.969 209.593 125.004 209.58C125.043 209.568 125.094 209.561 125.16 209.561H125.704Z" fill="#494C55"/>
<path d="M176.284 211.618C176.568 211.557 176.829 211.527 177.067 211.527C177.351 211.527 177.602 211.569 177.82 211.653C178.038 211.736 178.22 211.852 178.364 211.999C178.511 212.146 178.621 212.319 178.695 212.519C178.771 212.72 178.809 212.938 178.809 213.173C178.809 213.462 178.758 213.724 178.657 213.957C178.558 214.19 178.42 214.39 178.242 214.558C178.067 214.722 177.861 214.849 177.623 214.938C177.384 215.026 177.127 215.071 176.851 215.071C176.691 215.071 176.538 215.054 176.391 215.021C176.244 214.991 176.105 214.949 175.976 214.896C175.849 214.843 175.732 214.782 175.623 214.713C175.514 214.645 175.417 214.573 175.334 214.497L175.543 214.208C175.588 214.142 175.648 214.109 175.721 214.109C175.772 214.109 175.829 214.129 175.893 214.17C175.956 214.208 176.033 214.251 176.124 214.299C176.216 214.347 176.322 214.391 176.444 214.432C176.568 214.47 176.715 214.489 176.885 214.489C177.075 214.489 177.246 214.459 177.398 214.398C177.55 214.337 177.681 214.251 177.79 214.139C177.899 214.025 177.983 213.89 178.041 213.732C178.099 213.575 178.128 213.399 178.128 213.204C178.128 213.034 178.103 212.881 178.052 212.744C178.004 212.607 177.929 212.49 177.828 212.394C177.729 212.298 177.605 212.223 177.455 212.17C177.306 212.116 177.131 212.09 176.931 212.09C176.794 212.09 176.65 212.101 176.501 212.124C176.354 212.147 176.203 212.184 176.048 212.234L175.623 212.109L176.06 209.561H178.642V209.858C178.642 209.954 178.611 210.034 178.55 210.097C178.492 210.158 178.391 210.189 178.246 210.189H176.535L176.284 211.618ZM179.794 214.592C179.794 214.526 179.806 214.464 179.829 214.405C179.854 214.347 179.887 214.296 179.927 214.253C179.97 214.21 180.021 214.176 180.079 214.151C180.138 214.125 180.2 214.113 180.266 214.113C180.332 214.113 180.394 214.125 180.452 214.151C180.51 214.176 180.561 214.21 180.604 214.253C180.647 214.296 180.682 214.347 180.707 214.405C180.732 214.464 180.745 214.526 180.745 214.592C180.745 214.66 180.732 214.724 180.707 214.782C180.682 214.838 180.647 214.887 180.604 214.93C180.561 214.973 180.51 215.006 180.452 215.029C180.394 215.054 180.332 215.067 180.266 215.067C180.2 215.067 180.138 215.054 180.079 215.029C180.021 215.006 179.97 214.973 179.927 214.93C179.887 214.887 179.854 214.838 179.829 214.782C179.806 214.724 179.794 214.66 179.794 214.592ZM179.794 211.74C179.794 211.674 179.806 211.612 179.829 211.554C179.854 211.495 179.887 211.445 179.927 211.402C179.97 211.358 180.021 211.324 180.079 211.299C180.138 211.274 180.2 211.261 180.266 211.261C180.332 211.261 180.394 211.274 180.452 211.299C180.51 211.324 180.561 211.358 180.604 211.402C180.647 211.445 180.682 211.495 180.707 211.554C180.732 211.612 180.745 211.674 180.745 211.74C180.745 211.808 180.732 211.872 180.707 211.93C180.682 211.986 180.647 212.035 180.604 212.078C180.561 212.121 180.51 212.156 180.452 212.181C180.394 212.204 180.332 212.215 180.266 212.215C180.2 212.215 180.138 212.204 180.079 212.181C180.021 212.156 179.97 212.121 179.927 212.078C179.887 212.035 179.854 211.986 179.829 211.93C179.806 211.872 179.794 211.808 179.794 211.74ZM181.714 211.037C181.75 210.788 181.818 210.569 181.92 210.379C182.021 210.186 182.149 210.025 182.304 209.896C182.461 209.767 182.64 209.669 182.84 209.603C183.043 209.535 183.261 209.5 183.494 209.5C183.725 209.5 183.938 209.533 184.133 209.599C184.328 209.665 184.495 209.759 184.635 209.881C184.777 210.002 184.887 210.149 184.965 210.322C185.044 210.494 185.083 210.685 185.083 210.896C185.083 211.068 185.061 211.223 185.015 211.36C184.972 211.494 184.908 211.612 184.825 211.713C184.744 211.815 184.645 211.901 184.528 211.972C184.412 212.043 184.281 212.101 184.137 212.147C184.491 212.238 184.758 212.395 184.935 212.618C185.115 212.839 185.205 213.115 185.205 213.447C185.205 213.698 185.157 213.924 185.061 214.124C184.967 214.324 184.837 214.495 184.673 214.637C184.508 214.777 184.315 214.885 184.095 214.961C183.877 215.034 183.642 215.071 183.391 215.071C183.102 215.071 182.855 215.035 182.65 214.964C182.445 214.891 182.271 214.791 182.129 214.664C181.987 214.537 181.87 214.388 181.779 214.215C181.688 214.04 181.611 213.852 181.547 213.649L181.84 213.527C181.916 213.494 181.99 213.485 182.061 213.5C182.134 213.516 182.187 213.558 182.22 213.626C182.253 213.697 182.294 213.782 182.342 213.881C182.393 213.98 182.461 214.075 182.547 214.166C182.633 214.257 182.742 214.334 182.874 214.398C183.009 214.461 183.178 214.493 183.384 214.493C183.574 214.493 183.74 214.462 183.882 214.402C184.026 214.338 184.145 214.257 184.239 214.158C184.336 214.059 184.408 213.949 184.456 213.827C184.504 213.706 184.528 213.585 184.528 213.466C184.528 213.319 184.509 213.185 184.471 213.063C184.433 212.942 184.362 212.836 184.258 212.748C184.154 212.659 184.011 212.589 183.829 212.538C183.649 212.488 183.417 212.462 183.133 212.462V211.972C183.366 211.969 183.564 211.944 183.726 211.896C183.891 211.848 184.024 211.782 184.125 211.698C184.229 211.615 184.304 211.514 184.35 211.398C184.398 211.281 184.422 211.152 184.422 211.01C184.422 210.853 184.396 210.716 184.346 210.599C184.298 210.483 184.23 210.386 184.144 210.31C184.058 210.234 183.955 210.177 183.836 210.139C183.72 210.101 183.593 210.082 183.456 210.082C183.319 210.082 183.191 210.102 183.072 210.143C182.955 210.184 182.851 210.241 182.76 210.314C182.671 210.385 182.597 210.47 182.536 210.569C182.475 210.668 182.432 210.777 182.407 210.896C182.374 210.985 182.332 211.044 182.281 211.075C182.233 211.102 182.162 211.11 182.068 211.097L181.714 211.037ZM189.814 212.288C189.814 212.764 189.762 213.177 189.658 213.527C189.557 213.874 189.417 214.162 189.24 214.39C189.062 214.618 188.852 214.788 188.609 214.9C188.368 215.011 188.109 215.067 187.833 215.067C187.554 215.067 187.294 215.011 187.054 214.9C186.815 214.788 186.607 214.618 186.43 214.39C186.253 214.162 186.113 213.874 186.012 213.527C185.91 213.177 185.86 212.764 185.86 212.288C185.86 211.811 185.91 211.398 186.012 211.048C186.113 210.698 186.253 210.409 186.43 210.181C186.607 209.95 186.815 209.779 187.054 209.668C187.294 209.556 187.554 209.5 187.833 209.5C188.109 209.5 188.368 209.556 188.609 209.668C188.852 209.779 189.062 209.95 189.24 210.181C189.417 210.409 189.557 210.698 189.658 211.048C189.762 211.398 189.814 211.811 189.814 212.288ZM189.111 212.288C189.111 211.872 189.075 211.523 189.004 211.242C188.936 210.958 188.842 210.73 188.723 210.557C188.606 210.385 188.471 210.262 188.316 210.189C188.161 210.113 188 210.075 187.833 210.075C187.666 210.075 187.505 210.113 187.35 210.189C187.196 210.262 187.06 210.385 186.943 210.557C186.827 210.73 186.733 210.958 186.662 211.242C186.593 211.523 186.559 211.872 186.559 212.288C186.559 212.703 186.593 213.052 186.662 213.333C186.733 213.615 186.827 213.841 186.943 214.014C187.06 214.186 187.196 214.31 187.35 214.386C187.505 214.46 187.666 214.497 187.833 214.497C188 214.497 188.161 214.46 188.316 214.386C188.471 214.31 188.606 214.186 188.723 214.014C188.842 213.841 188.936 213.615 189.004 213.333C189.075 213.052 189.111 212.703 189.111 212.288ZM194.293 212.386C194.503 212.386 194.688 212.359 194.848 212.303C195.01 212.247 195.146 212.17 195.255 212.071C195.366 211.969 195.45 211.849 195.506 211.71C195.561 211.57 195.589 211.417 195.589 211.249C195.589 210.902 195.482 210.631 195.266 210.436C195.053 210.241 194.729 210.143 194.293 210.143H193.418V212.386H194.293ZM194.293 209.561C194.638 209.561 194.937 209.602 195.19 209.683C195.446 209.762 195.658 209.874 195.825 210.021C195.992 210.168 196.117 210.346 196.198 210.554C196.281 210.762 196.323 210.993 196.323 211.249C196.323 211.503 196.279 211.735 196.19 211.945C196.101 212.156 195.971 212.337 195.798 212.489C195.629 212.641 195.417 212.76 195.163 212.846C194.913 212.93 194.622 212.972 194.293 212.972H193.418V215.01H192.684V209.561H194.293ZM202.921 209.561V215.01H202.275V211.006C202.275 210.953 202.276 210.896 202.278 210.835C202.283 210.774 202.288 210.712 202.294 210.649L200.423 214.056C200.364 214.17 200.276 214.227 200.157 214.227H200.05C199.931 214.227 199.842 214.17 199.784 214.056L197.875 210.634C197.89 210.768 197.898 210.892 197.898 211.006V215.01H197.252V209.561H197.795C197.861 209.561 197.912 209.568 197.947 209.58C197.983 209.593 198.017 209.628 198.05 209.687L199.932 213.04C199.963 213.101 199.992 213.165 200.02 213.231C200.05 213.296 200.078 213.364 200.103 213.432C200.129 213.364 200.155 213.296 200.183 213.231C200.211 213.162 200.242 213.097 200.274 213.037L202.122 209.687C202.153 209.628 202.186 209.593 202.221 209.58C202.259 209.568 202.311 209.561 202.377 209.561H202.921Z" fill="#494C55"/>
</g>
<path d="M11.467 43.2495H12.3594V41.9308H13.6781V41.0384H12.3594V39.7197H11.467V41.0384H10.1483V41.9308H11.467V43.2495ZM16.3154 44.6654H16.9037L16.9087 44.0895C17.9881 44.0073 18.6138 43.4339 18.6163 42.5689C18.6138 41.7189 17.9731 41.2677 17.0857 41.0683L16.9386 41.0334L16.9486 39.787C17.2802 39.8643 17.4821 40.0761 17.512 40.3902H18.5465C18.534 39.5651 17.9183 38.9743 16.9586 38.8696L16.9636 38.2838H16.3753L16.3703 38.8646C15.3956 38.9594 14.7076 39.5477 14.7126 40.3977C14.7101 41.1505 15.241 41.5818 16.1036 41.7887L16.3429 41.8485L16.3304 43.1672C15.9241 43.0899 15.6499 42.8407 15.6224 42.4244H14.578C14.6029 43.4314 15.2635 43.9948 16.3204 44.087L16.3154 44.6654ZM16.9187 43.1672L16.9287 42.0031C17.3151 42.1252 17.5244 42.2823 17.5269 42.5664C17.5244 42.8681 17.2951 43.0924 16.9187 43.1672ZM16.3503 40.8813C16.0387 40.7741 15.8144 40.6121 15.8194 40.3254C15.8194 40.0587 16.0088 39.8518 16.3603 39.7795L16.3503 40.8813ZM21.1994 44.097C22.3461 44.097 23.1663 43.4663 23.1638 42.5939C23.1663 41.9582 22.7624 41.5045 22.0121 41.4098V41.3699C22.5829 41.2677 22.9768 40.8639 22.9743 40.2905C22.9768 39.4854 22.2713 38.8522 21.2144 38.8522C20.1674 38.8522 19.3797 39.4654 19.3648 40.3479H20.3993C20.4117 39.959 20.7682 39.7072 21.2094 39.7072C21.6457 39.7072 21.9373 39.9714 21.9348 40.3553C21.9373 40.7567 21.5958 41.0284 21.1047 41.0284H20.6286V41.8211H21.1047C21.683 41.8211 22.0445 42.1103 22.042 42.5216C22.0445 42.9279 21.6955 43.2071 21.2019 43.2071C20.7258 43.2071 20.3693 42.9578 20.3494 42.5839H19.2625C19.28 43.4763 20.0777 44.097 21.1994 44.097ZM24.3304 44.092C24.6495 44.092 24.9262 43.8253 24.9287 43.4938C24.9262 43.1672 24.6495 42.9005 24.3304 42.9005C24.0013 42.9005 23.7296 43.1672 23.7321 43.4938C23.7296 43.8253 24.0013 44.092 24.3304 44.092ZM25.9925 44.0272H27.1067L29.2256 39.8169V38.922H25.6435V39.8044H28.1088V39.8393L25.9925 44.0272ZM31.767 44.097C32.9187 44.097 33.7463 43.4813 33.7488 42.6537C33.7463 42.0155 33.2552 41.4945 32.642 41.3923V41.3574C33.1754 41.2478 33.5568 40.7866 33.5593 40.2257C33.5568 39.4355 32.799 38.8522 31.767 38.8522C30.7325 38.8522 29.9747 39.4355 29.9772 40.2257C29.9747 40.7841 30.3511 41.2478 30.8945 41.3574V41.3923C30.2713 41.4945 29.7852 42.0155 29.7877 42.6537C29.7852 43.4813 30.6154 44.097 31.767 44.097ZM31.767 43.3043C31.2535 43.3043 30.9095 43.0002 30.9095 42.5689C30.9095 42.1277 31.271 41.8086 31.767 41.8086C32.2606 41.8086 32.6245 42.1277 32.6245 42.5689C32.6245 43.0027 32.278 43.3043 31.767 43.3043ZM31.767 41.0234C31.3358 41.0234 31.0292 40.7417 31.0292 40.3379C31.0292 39.939 31.3308 39.6648 31.767 39.6648C32.2008 39.6648 32.5049 39.9415 32.5049 40.3379C32.5049 40.7417 32.1958 41.0234 31.767 41.0234ZM36.3725 41.4746C36.3725 42.7135 36.699 43.743 37.3795 44.6305H38.3941C37.8731 43.9724 37.4768 42.6562 37.4768 41.4746C37.4768 40.2955 37.8731 38.9793 38.3941 38.3212H37.3795C36.699 39.2087 36.3725 40.2357 36.3725 41.4746ZM41.0022 44.1394C42.286 44.1394 43.0612 43.1622 43.0637 41.4796C43.0662 39.8094 42.281 38.8522 41.0022 38.8522C39.7209 38.8522 38.9431 39.8069 38.9407 41.4796C38.9357 43.1572 39.7159 44.1369 41.0022 44.1394ZM41.0022 43.2445C40.4164 43.2445 40.0375 42.6562 40.04 41.4796C40.0425 40.3204 40.4189 39.7371 41.0022 39.7371C41.583 39.7371 41.9619 40.3204 41.9619 41.4796C41.9644 42.6562 41.5855 43.2445 41.0022 43.2445ZM44.4641 44.092C44.7831 44.092 45.0598 43.8253 45.0623 43.4938C45.0598 43.1672 44.7831 42.9005 44.4641 42.9005C44.135 42.9005 43.8633 43.1672 43.8658 43.4938C43.8633 43.8253 44.135 44.092 44.4641 44.092ZM47.6449 44.1394C48.9287 44.1394 49.7039 43.1622 49.7064 41.4796C49.7089 39.8094 48.9237 38.8522 47.6449 38.8522C46.3636 38.8522 45.5858 39.8069 45.5833 41.4796C45.5783 43.1572 46.3586 44.1369 47.6449 44.1394ZM47.6449 43.2445C47.0591 43.2445 46.6802 42.6562 46.6826 41.4796C46.6851 40.3204 47.0616 39.7371 47.6449 39.7371C48.2257 39.7371 48.6046 40.3204 48.6046 41.4796C48.6071 42.6562 48.2282 43.2445 47.6449 43.2445ZM52.3631 44.097C53.5098 44.097 54.3299 43.4663 54.3274 42.5939C54.3299 41.9582 53.9261 41.5045 53.1757 41.4098V41.3699C53.7466 41.2677 54.1405 40.8639 54.138 40.2905C54.1405 39.4854 53.435 38.8522 52.3781 38.8522C51.3311 38.8522 50.5434 39.4654 50.5284 40.3479H51.5629C51.5754 39.959 51.9318 39.7072 52.3731 39.7072C52.8093 39.7072 53.101 39.9714 53.0985 40.3553C53.101 40.7567 52.7595 41.0284 52.2684 41.0284H51.7922V41.8211H52.2684C52.8467 41.8211 53.2082 42.1103 53.2057 42.5216C53.2082 42.9279 52.8592 43.2071 52.3656 43.2071C51.8895 43.2071 51.533 42.9578 51.5131 42.5839H50.4262C50.4436 43.4763 51.2413 44.097 52.3631 44.097ZM57.8977 43.07C57.9002 43.6832 58.2916 44.2042 59.022 44.2042C59.7449 44.2042 60.1487 43.6832 60.1462 43.07V42.8008C60.1487 42.1826 59.7549 41.6665 59.022 41.6665C58.3016 41.6665 57.9002 42.1875 57.8977 42.8008V43.07ZM55.2778 40.1484C55.2803 40.7617 55.6717 41.2777 56.3996 41.2777C57.125 41.2777 57.5288 40.7666 57.5263 40.1484V39.8792C57.5288 39.261 57.1349 38.745 56.3996 38.745C55.6866 38.745 55.2803 39.261 55.2778 39.8792V40.1484ZM55.5221 44.0272H56.1727L59.6826 38.922H59.0319L55.5221 44.0272ZM58.6231 42.8008C58.6256 42.5565 58.7228 42.3047 59.022 42.3047C59.3361 42.3047 59.4183 42.5565 59.4158 42.8008V43.07C59.4183 43.3143 59.3261 43.5611 59.022 43.5611C58.7179 43.5611 58.6256 43.3068 58.6231 43.07V42.8008ZM56.0082 39.8792C56.0107 39.6424 56.1029 39.3831 56.3996 39.3831C56.7136 39.3831 56.7984 39.6349 56.7959 39.8792V40.1484C56.7984 40.3927 56.7037 40.6395 56.3996 40.6395C56.1054 40.6395 56.0107 40.3927 56.0082 40.1484V39.8792ZM62.9357 41.4746C62.9357 40.2357 62.6091 39.2062 61.9286 38.3187H60.914C61.435 38.9768 61.8314 40.293 61.8314 41.4746C61.8314 42.6537 61.435 43.9699 60.914 44.628H61.9286C62.6091 43.7406 62.9357 42.7135 62.9357 41.4746Z" fill="#5B19D5"/>
<path d="M13.393 29.4145H14.5696L14.5795 28.2628C16.7383 28.0983 17.9897 26.9516 17.9947 25.2216C17.9897 23.5215 16.7084 22.6191 14.9335 22.2203L14.6394 22.1505L14.6593 19.6577C15.3224 19.8123 15.7262 20.236 15.786 20.8642H17.8551C17.8301 19.214 16.5987 18.0324 14.6792 17.823L14.6892 16.6514H13.5126L13.5026 17.813C11.5533 18.0025 10.1773 19.1791 10.1872 20.8792C10.1822 22.3848 11.2442 23.2473 12.9692 23.6611L13.4478 23.7808L13.4229 26.4182C12.6102 26.2636 12.0618 25.765 12.007 24.9325H9.918C9.96786 26.9466 11.289 28.0734 13.4029 28.2578L13.393 29.4145ZM14.5995 26.4182L14.6194 24.0899C15.3922 24.3342 15.811 24.6483 15.816 25.2166C15.811 25.8199 15.3523 26.2686 14.5995 26.4182ZM13.4628 21.8464C12.8396 21.632 12.3909 21.3079 12.4008 20.7346C12.4008 20.2011 12.7797 19.7873 13.4827 19.6427L13.4628 21.8464ZM23.0812 17.7582C20.7978 17.7482 19.2573 19.2439 19.2672 21.3179C19.2573 23.2324 20.5934 24.6134 22.4032 24.6134C23.5249 24.6134 24.522 24.0699 24.9757 23.1725H25.0455C25.0405 25.1967 24.3376 26.4281 23.0064 26.4281C22.2237 26.4281 21.6603 25.9994 21.4958 25.2565H19.3669C19.5664 26.9765 20.9623 28.2778 23.0064 28.2778C25.5341 28.2778 27.1544 26.2337 27.1594 22.7687C27.1544 19.0345 25.1801 17.7632 23.0812 17.7582ZM23.0962 19.4533C24.0883 19.4533 24.8212 20.261 24.8311 21.2481C24.8212 22.2402 24.0634 23.0479 23.0762 23.0479C22.0791 23.0479 21.3512 22.2701 21.3612 21.2581C21.3512 20.236 22.0941 19.4533 23.0962 19.4533ZM30.9834 26.7422H29.2284L29.2035 27.3006C29.1437 28.6567 28.7548 30.0477 28.6102 30.631H29.9862C30.2255 30.0277 30.7939 28.6118 30.9285 27.2906L30.9834 26.7422ZM36.1995 28.2778C38.4929 28.2778 40.1331 27.0164 40.1282 25.2715C40.1331 24.0001 39.3255 23.0928 37.8248 22.9033V22.8235C38.9665 22.6191 39.7542 21.8115 39.7493 20.6648C39.7542 19.0544 38.3433 17.7881 36.2294 17.7881C34.1355 17.7881 32.56 19.0146 32.5301 20.7795H34.5991C34.6241 20.0017 35.337 19.4982 36.2195 19.4982C37.0919 19.4982 37.6753 20.0266 37.6703 20.7944C37.6753 21.5971 36.9922 22.1405 36.0101 22.1405H35.0578V23.7259H36.0101C37.1667 23.7259 37.8896 24.3043 37.8847 25.1269C37.8896 25.9395 37.1917 26.4979 36.2045 26.4979C35.2523 26.4979 34.5393 25.9994 34.4994 25.2515H32.3257C32.3606 27.0364 33.956 28.2778 36.1995 28.2778ZM45.5986 28.2778C47.872 28.2878 49.4225 26.7971 49.4176 24.7181C49.4225 22.8036 48.0864 21.4226 46.2766 21.4226C45.1549 21.4226 44.1628 21.961 43.7041 22.8634H43.6343C43.6442 20.8443 44.3422 19.6078 45.6734 19.6078C46.4561 19.6078 47.0195 20.0316 47.184 20.7795H49.3129C49.1085 19.0644 47.7125 17.7582 45.6734 17.7582C43.1507 17.7582 41.5304 19.8023 41.5204 23.2623C41.5304 27.0015 43.4997 28.2678 45.5986 28.2778ZM45.5886 26.5827C44.5915 26.5827 43.8536 25.78 43.8536 24.7829C43.8586 23.7908 44.6115 22.9831 45.6036 22.9831C46.6007 22.9831 47.3286 23.7658 47.3236 24.7779C47.3286 25.7999 46.5857 26.5827 45.5886 26.5827ZM54.9516 28.3625C57.5191 28.3625 59.0697 26.4082 59.0746 23.0429C59.0796 19.7026 57.5092 17.7881 54.9516 17.7881C52.389 17.7881 50.8335 19.6976 50.8285 23.0429C50.8185 26.3982 52.379 28.3575 54.9516 28.3625ZM54.9516 26.5727C53.7799 26.5727 53.0221 25.3961 53.0271 23.0429C53.0321 20.7246 53.7849 19.558 54.9516 19.558C56.1132 19.558 56.871 20.7246 56.871 23.0429C56.876 25.3961 56.1182 26.5727 54.9516 26.5727ZM61.8753 28.2678C62.5134 28.2678 63.0668 27.7344 63.0718 27.0713C63.0668 26.4182 62.5134 25.8847 61.8753 25.8847C61.2172 25.8847 60.6738 26.4182 60.6788 27.0713C60.6738 27.7344 61.2172 28.2678 61.8753 28.2678ZM68.1521 28.2778C70.4256 28.2878 71.9761 26.7971 71.9711 24.7181C71.9761 22.8036 70.64 21.4226 68.8302 21.4226C67.7084 21.4226 66.7163 21.961 66.2576 22.8634H66.1878C66.1978 20.8443 66.8958 19.6078 68.2269 19.6078C69.0097 19.6078 69.573 20.0316 69.7376 20.7795H71.8664C71.662 19.0644 70.266 17.7582 68.2269 17.7582C65.7042 17.7582 64.0839 19.8023 64.0739 23.2623C64.0839 27.0015 66.0532 28.2678 68.1521 28.2778ZM68.1422 26.5827C67.1451 26.5827 66.4072 25.78 66.4072 24.7829C66.4122 23.7908 67.165 22.9831 68.1571 22.9831C69.1542 22.9831 69.8821 23.7658 69.8772 24.7779C69.8821 25.7999 69.1393 26.5827 68.1422 26.5827ZM73.9055 28.1382H76.1341L80.3718 19.7175V17.9277H73.2075V19.6926H78.1383V19.7624L73.9055 28.1382Z" fill="#494C55"/>
<path opacity="0.3" fill-rule="evenodd" clip-rule="evenodd" d="M-9.94458 165.097L-8.11189 163.525H-4.90042L-4.35999 161.629L-3.06729 163.397H-1.61142L1.57604 159.539L3.13895 161.629L4.18187 158.894V156.823L6.65373 158.894L8.39311 155.277L8.73566 156.056V159.539L9.80453 163.397L13.4059 158.894L15.0159 163.397L18.9316 158.894L20.1305 159.539L21.6078 158.894L23.6255 161.629L24.8932 159.539L26.9544 162.044L29.0227 159.539L29.558 161.629L34.2931 161.139L35.6701 155.277L36.8691 157.846H40.452L42.4528 159.539L44.0686 157.846L45.6526 157.335L46.2771 155.277L47.6901 154.158L49.2517 156.056H51.1342L52.2689 157.846H54.5221L56.1022 156.056L58.1621 155.277L59.1499 154.676L60.4559 155.277L61.055 157.846L63.1798 159.539L64.3833 157.846L65.5008 159.662L65.8378 162.834L67.9626 163.525L69.6695 161.139L71.3392 159.539L73.4484 162.044L75.3052 161.629L76.4795 157.846L78.7061 161.139L80.0351 168.529L81.6986 162.834L85.6386 159.539L87.2233 160.152L88.3152 161.344L89.6325 159.539L90.2729 156.056H93.5194L95.3872 158.333L97.0685 155.277L98.5633 149.439L100.539 152.032L101.478 149.439L102.263 145.805H103.698L105.325 147.768L108.952 148.38L109.98 149.439H112.142L113.887 147.022L116.076 149.439L117.494 147.022L119.289 144.902H121.086L121.854 147.022L123.505 149.439L124.875 150.371L127.303 148.38L129.406 146.493L130.785 147.768L133.137 145.805H135.128L138.281 131.398L140.594 116.516L142.525 97.3456L144.222 81.6112L146.468 70.2557L148.351 53.3313L150.062 103.489H151.893L153.186 83.6043L155.342 90.1432L156.675 87.6775H158.628L160.575 71.7577L162.176 57.397L164.192 65.955L166.043 71.0148L167.629 81.6112L170.68 90.1432L171.798 84.0729L174.219 80.5882L174.824 86.6866L176.499 92.6691L178.028 96.4843L179.291 97.3456L180.757 115.356L182.761 118.036L184.119 124.893L185.901 130.56L187.201 122.31L188.389 115.356L189.327 109.281L189.751 107.936L191.55 107.38L193.139 110.32L193.716 116.516L194.85 122.31L197.994 118.036L198.852 111.036L200.03 100.597L201.361 91.3307L202.067 94.019V99.3443L203.109 103.489H205.164L206.261 99.857L206.668 97.9506L208.08 103.071L209.391 107.38L211.622 112.969L212.578 107.936L213.08 104.224L214.258 101.576L215.735 101.047L217.662 101.576L218.411 103.489L219.499 104.644H222.03L222.779 106.907L223.764 110.32L224.48 106.471V103.489L225.639 101.576L227.576 100.597L227.976 97.3456L229.035 94.019L230.651 93.4104L232.823 89.2706V198.57H-9.94458L-9.94458 165.097Z" fill="url(#paint0_linear)"/>
<path fill-rule="evenodd" clip-rule="evenodd" d="M-9.94458 165.441L-7.99495 163.861H-4.78348L-4.24304 161.956L-2.95035 163.732H-1.49448L1.69298 159.856L3.2559 161.956L4.29881 159.208V157.126L6.77067 159.208L8.51005 155.572L8.85261 156.356V159.856L9.92148 163.732L13.5229 159.208L15.1328 163.732L19.0485 159.208L20.2475 159.856L21.7248 159.208L23.7425 161.956L25.0102 159.856L27.0714 162.373L29.1397 159.856L29.6749 161.956L34.4101 161.463L35.7871 155.572L36.986 158.154H40.5689L42.5698 159.856L44.1856 158.154L45.7696 157.641L46.394 155.572L47.8071 154.448L49.3687 156.356H51.2511L52.3858 158.154H54.6391L56.2192 156.356L58.2791 155.572L59.2668 154.968L60.5728 155.572L61.172 158.154L63.2967 159.856L64.5002 158.154L65.6177 159.979L65.9548 163.167L68.0795 163.861L69.7865 161.463L71.4561 159.856L73.5653 162.373L75.4221 161.956L76.5964 158.154L78.823 161.463L80.1521 168.89L81.8155 163.167L85.7556 159.856L87.3402 160.471L88.4321 161.669L89.7495 159.856L90.3898 156.356H93.6363L95.5042 158.644L97.1855 155.572L98.6803 149.705L100.656 152.311L101.595 149.705L102.38 146.053H103.815L105.442 148.025L109.069 148.641L110.097 149.705H112.259L114.004 147.276L116.193 149.705L117.611 147.276L119.406 145.145H121.203L121.971 147.276L123.622 149.705L124.992 150.642L127.42 148.641L129.523 146.744L130.902 148.025L133.254 146.053H135.245L138.398 131.574L140.711 116.618L142.642 97.3523L144.339 81.5396L146.585 70.1275L148.351 53.3313L150.179 103.526H152.01L153.303 83.5425L155.459 90.114L156.792 87.636H158.745L160.692 71.637L162.293 57.2047L164.309 65.8054L166.16 70.8903L167.746 81.5396L170.797 90.114L171.915 84.0135L174.336 80.5114L174.941 86.6402L176.616 92.6524L178.145 96.4867L179.408 97.3523L180.874 115.453L182.878 118.146L184.236 125.037L186.018 130.732L187.318 122.441L188.506 115.453L189.444 109.347L189.868 107.996L191.667 107.437L193.256 110.391L193.833 116.618L194.967 122.441L198.111 118.146L198.969 111.111L200.147 100.62L201.478 91.3074L202.184 94.0092V99.361L203.226 103.526H205.281L206.378 99.8762L206.785 97.9603L208.197 103.106L209.508 107.437L211.739 113.054L212.695 107.996L213.197 104.265L214.375 101.604L215.852 101.072L217.779 101.604L218.528 103.526L219.616 104.687H222.147L222.896 106.962L223.881 110.391L224.597 106.523V103.526L225.756 101.604L227.693 100.62L228.093 97.3523L229.152 94.0092L230.768 93.3975L234.575 86.6402V254.771H112.259H-9.94458V165.441Z" stroke="#5B19D5" stroke-width="0.678571" stroke-linecap="round" stroke-linejoin="bevel"/>
</g>
<defs>
<filter id="filter0_i" x="0" y="196.65" width="219.366" height="30.4187" filterUnits="userSpaceOnUse" color-interpolation-filters="sRGB">
<feFlood flood-opacity="0" result="BackgroundImageFix"/>
<feBlend mode="normal" in="SourceGraphic" in2="BackgroundImageFix" result="shape"/>
<feColorMatrix in="SourceAlpha" type="matrix" values="0 0 0 0 0 0 0 0 0 0 0 0 0 0 0 0 0 0 127 0" result="hardAlpha"/>
<feOffset dy="0.584975"/>
<feComposite in2="hardAlpha" operator="arithmetic" k2="-1" k3="1"/>
<feColorMatrix type="matrix" values="0 0 0 0 0.28548 0 0 0 0 0.298716 0 0 0 0 0.331805 0 0 0 1 0"/>
<feBlend mode="normal" in2="shape" result="effect1_innerShadow"/>
</filter>
<linearGradient id="paint0_linear" x1="213.309" y1="54.4697" x2="212.58" y2="176.367" gradientUnits="userSpaceOnUse">
<stop stop-color="#5B19D5" stop-opacity="0.01"/>
<stop offset="1" stop-color="#5B19D5" stop-opacity="0.10831"/>
</linearGradient>
<clipPath id="clip0">
<rect width="219.366" height="226.97" fill="white" transform="translate(0 0.0986328)"/>
</clipPath>
<clipPath id="clip1">
<rect width="219.366" height="30.4187" fill="white" transform="translate(0 196.65)"/>
</clipPath>
</defs>
</svg>
