<svg xmlns="http://www.w3.org/2000/svg" width="656" height="146" fill="none" viewBox="0 0 656 146">
    <path fill="#494C55" d="M13.133 52L16.3 41.916h16.58L36.045 52h12.477L32.317 3.97H16.862L.657 52h12.476zm5.933-18.902l5.324-17.026h.375l5.347 17.026H19.066zM69.45 52.68c10.132 0 16.417-5.886 16.721-14.798H75.454c-.422 3.823-2.72 5.91-5.863 5.91-4.033 0-6.66-3.4-6.66-9.803 0-6.355 2.65-9.756 6.66-9.756 3.283 0 5.418 2.228 5.863 5.91h10.718c-.258-8.865-6.731-14.634-16.745-14.634-11.327 0-18.175 7.552-18.175 18.597 0 11 6.8 18.574 18.198 18.574zm40.605 0c10.131 0 16.416-5.886 16.721-14.798h-10.717c-.422 3.823-2.721 5.91-5.863 5.91-4.034 0-6.66-3.4-6.66-9.803 0-6.355 2.65-9.756 6.66-9.756 3.283 0 5.417 2.228 5.863 5.91h10.717c-.258-8.865-6.73-14.634-16.744-14.634-11.328 0-18.175 7.552-18.175 18.597 0 11 6.8 18.574 18.198 18.574zm47.031-16.228c0 4.197-2.674 6.543-6.074 6.543-3.518 0-5.676-2.392-5.699-6.309V15.978h-11.468v22.96c.023 8.137 4.972 13.531 12.383 13.531 5.393 0 9.404-2.767 10.998-7.176h.376V52h10.928V15.978h-11.444v20.474zM177.029 52h11.468V30.682c0-3.564 2.088-5.84 5.089-5.84 2.979 0 4.949 2.088 4.949 5.418V52h11.022V30.495c0-3.448 1.9-5.652 5.066-5.652 2.908 0 4.971 1.946 4.971 5.535V52h11.468V27.75c0-7.62-4.69-12.24-11.491-12.24-5.324 0-9.522 2.79-10.858 7.082h-.376c-.961-4.316-4.831-7.083-9.826-7.083-4.925 0-8.677 2.697-10.178 7.083h-.399v-6.614h-10.905V52zm85.58-15.548c0 4.197-2.674 6.543-6.074 6.543-3.518 0-5.676-2.392-5.699-6.309V15.978h-11.468v22.96c.023 8.137 4.972 13.531 12.383 13.531 5.393 0 9.404-2.767 10.998-7.176h.376V52h10.928V15.978h-11.444v20.474zM294.02 3.97h-11.468V52h11.468V3.97zm18.654 48.639c5.019 0 8.49-1.947 10.46-5.629h.281V52h10.788V27.516c0-7.621-6.778-12.007-15.947-12.007-9.686 0-15.174 4.878-16.088 11.445l10.577.375c.492-2.299 2.392-3.706 5.417-3.706 2.814 0 4.596 1.36 4.596 3.776v.117c0 2.205-2.392 2.674-8.536 3.213-7.293.61-13.391 3.307-13.391 11.28 0 7.13 4.948 10.6 11.843 10.6zm3.541-7.505c-2.65 0-4.526-1.266-4.526-3.658 0-2.322 1.83-3.73 5.089-4.222 2.134-.304 4.761-.773 6.051-1.454v3.424c0 3.518-2.955 5.91-6.614 5.91zm46.533-29.127h-6.497v-8.63h-11.467v8.63h-4.761v8.443h4.761v17.518c-.071 7.294 4.666 10.952 12.757 10.577 2.768-.14 4.761-.704 5.863-1.032l-1.735-8.278c-.493.117-1.642.351-2.51.351-1.852 0-2.908-.75-2.908-2.884V24.42h6.497v-8.443zM386.25 52.68c9.451 0 15.666-4.573 16.979-11.655l-10.53-.305c-.891 2.392-3.236 3.682-6.238 3.682-4.409 0-7.129-2.932-7.129-7.34v-.306h24.014v-2.86c0-11.867-7.223-18.387-17.448-18.387-10.881 0-17.87 7.458-17.87 18.62 0 11.539 6.895 18.551 18.222 18.551zm-6.918-22.584c.164-3.588 3.002-6.308 6.801-6.308 3.776 0 6.496 2.626 6.543 6.308h-13.344zM425.792 52h21.552c10.624 0 16.721-5.675 16.721-13.438 0-6.941-5.042-11.303-10.858-11.561v-.47c5.276-1.102 8.982-4.924 8.982-10.412 0-7.247-5.582-12.148-16.369-12.148h-20.028V52zm11.608-9.357V31.198h7.388c4.432 0 7.152 2.346 7.152 6.027 0 3.4-2.345 5.418-7.363 5.418H437.4zm0-18.926v-10.53h6.614c3.869 0 6.332 1.994 6.332 5.183 0 3.377-2.721 5.347-6.52 5.347H437.4zM470.847 52h11.467V15.978h-11.467V52zm5.745-40.22c3.26 0 5.887-2.462 5.887-5.487 0-3.026-2.627-5.465-5.887-5.465-3.236 0-5.886 2.44-5.886 5.465s2.65 5.487 5.886 5.487zm34.554 4.198h-6.496v-8.63h-11.468v8.63h-4.76v8.443h4.76v17.518c-.07 7.294 4.667 10.952 12.758 10.577 2.767-.14 4.761-.704 5.863-1.032l-1.735-8.278c-.493.117-1.642.351-2.51.351-1.852 0-2.908-.75-2.908-2.884V24.42h6.496v-8.443zm23.479 36.702c10.132 0 16.417-5.886 16.722-14.798h-10.718c-.422 3.823-2.72 5.91-5.863 5.91-4.033 0-6.66-3.4-6.66-9.803 0-6.355 2.65-9.756 6.66-9.756 3.283 0 5.418 2.228 5.863 5.91h10.718c-.258-8.865-6.731-14.634-16.745-14.634-11.327 0-18.175 7.552-18.175 18.597 0 11 6.801 18.574 18.198 18.574zm40.605 0c11.327 0 18.199-7.481 18.199-18.574 0-11.116-6.872-18.597-18.199-18.597-11.327 0-18.198 7.481-18.198 18.597 0 11.093 6.871 18.574 18.198 18.574zm.071-8.654c-4.245 0-6.59-4.033-6.59-9.99 0-5.98 2.345-10.037 6.59-10.037 4.104 0 6.449 4.057 6.449 10.037 0 5.957-2.345 9.99-6.449 9.99zM600.503 52h11.468V15.978h-11.468V52zm5.746-40.22c3.26 0 5.886-2.462 5.886-5.487 0-3.026-2.626-5.465-5.886-5.465-3.236 0-5.886 2.44-5.886 5.465s2.65 5.487 5.886 5.487zm25.689 19.676c.024-4.104 2.416-6.543 6.051-6.543 3.635 0 5.793 2.392 5.769 6.38V52h11.468V29.04c.023-8.113-4.925-13.53-12.5-13.53-5.323 0-9.357 2.696-10.952 7.082h-.398v-6.614h-10.905V52h11.467V31.456zM74.638 132H85.8l8.654-29.127h.375L103.483 132h11.186l13.954-48.03h-12.805l-7.27 31.543h-.398l-8.279-31.542h-10.46l-8.278 31.472h-.398l-7.247-31.472H60.66L74.637 132zm71.449-20.544c.023-4.104 2.462-6.543 6.097-6.543 3.682 0 5.816 2.369 5.793 6.379V132h11.468v-22.959c.023-8.161-4.949-13.532-12.523-13.532-5.394 0-9.194 2.65-10.812 7.083h-.398V83.971h-11.093V132h11.468v-20.544zM177.803 132h11.468V95.978h-11.468V132zm5.746-40.22c3.26 0 5.886-2.462 5.886-5.487 0-3.026-2.626-5.465-5.886-5.465-3.236 0-5.886 2.44-5.886 5.465s2.65 5.487 5.886 5.487zm25.689-7.81h-11.467V132h11.467V83.97zm25.338 48.71c9.451 0 15.666-4.573 16.979-11.655l-10.53-.305c-.891 2.392-3.236 3.682-6.238 3.682-4.409 0-7.129-2.932-7.129-7.341v-.305h24.014v-2.861c0-11.866-7.223-18.386-17.448-18.386-10.881 0-17.87 7.458-17.87 18.621 0 11.538 6.895 18.55 18.222 18.55zm-6.918-22.584c.164-3.588 3.002-6.308 6.801-6.308 3.776 0 6.496 2.626 6.543 6.308h-13.344zm53.472 35.365c8.255 0 12.359-4.174 14.352-10.014l13.579-39.445-12.078-.024-6.73 25.703h-.376l-6.636-25.703h-12.008l12.805 37.335-.446 1.079c-1.243 2.58-3.588 2.697-6.965 1.595l-2.533 8.325c1.736.68 4.292 1.149 7.036 1.149zm49.182-12.781c11.327 0 18.199-7.481 18.199-18.574 0-11.116-6.872-18.597-18.199-18.597-11.327 0-18.198 7.481-18.198 18.597 0 11.093 6.871 18.574 18.198 18.574zm.07-8.654c-4.244 0-6.59-4.033-6.59-9.99 0-5.98 2.346-10.037 6.59-10.037 4.104 0 6.45 4.057 6.45 10.037 0 5.957-2.346 9.99-6.45 9.99zm48.444-7.574c0 4.197-2.674 6.543-6.074 6.543-3.518 0-5.675-2.393-5.699-6.309V95.978h-11.468v22.959c.024 8.138 4.972 13.532 12.383 13.532 5.394 0 9.404-2.767 10.999-7.176h.375V132h10.928V95.978h-11.444v20.474z"/>
    <path fill="url(#prefix__paint0_linear)" d="M440.119 98.37h11.116c-.094-8.982-7.247-15.056-18.41-15.056-10.975 0-18.878 5.98-18.808 14.916-.023 7.293 5.089 11.397 13.391 13.297l5.019 1.172c5.276 1.22 7.645 2.65 7.692 5.347-.047 2.932-2.791 4.972-7.458 4.972-5.136 0-8.513-2.392-8.771-7.012h-11.116c.141 11.233 7.95 16.604 20.028 16.604 11.96 0 19.043-5.418 19.09-14.54-.047-7.669-5.23-12.359-14.705-14.447l-4.127-.938c-4.362-.938-7.129-2.392-7.036-5.253.024-2.626 2.275-4.526 6.778-4.526 4.526 0 7.012 2.04 7.317 5.464zm30.303-14.4h-11.467V132h11.467V83.97z"/>
    <path fill="url(#prefix__paint1_linear)" d="M495.76 132.68c9.451 0 15.666-4.573 16.979-11.655l-10.53-.305c-.891 2.392-3.236 3.682-6.238 3.682-4.409 0-7.129-2.932-7.129-7.341v-.305h24.014v-2.861c0-11.866-7.223-18.386-17.448-18.386-10.881 0-17.87 7.458-17.87 18.621 0 11.538 6.895 18.55 18.222 18.55zm-6.918-22.584c.164-3.588 3.002-6.308 6.801-6.308 3.776 0 6.496 2.626 6.543 6.308h-13.344zm47.91 22.584c9.451 0 15.666-4.573 16.979-11.655l-10.53-.305c-.891 2.392-3.236 3.682-6.238 3.682-4.409 0-7.129-2.932-7.129-7.341v-.305h24.014v-2.861c0-11.866-7.223-18.386-17.448-18.386-10.882 0-17.87 7.458-17.87 18.621 0 11.538 6.895 18.55 18.222 18.55zm-6.918-22.584c.164-3.588 3.001-6.308 6.801-6.308 3.775 0 6.496 2.626 6.543 6.308h-13.344z"/>
    <path fill="url(#prefix__paint2_linear)" d="M560.905 145.508h11.468v-19.347h.235c1.454 3.33 4.69 6.355 10.131 6.355 7.973 0 14.399-6.238 14.399-18.503 0-12.711-6.801-18.504-14.329-18.504-5.699 0-8.818 3.33-10.201 6.637h-.352v-6.168h-11.351v49.53zm11.234-31.519c0-5.886 2.439-9.521 6.636-9.521 4.245 0 6.59 3.729 6.59 9.521 0 5.816-2.345 9.592-6.59 9.592-4.197 0-6.636-3.752-6.636-9.592z"/>
    <defs>
        <linearGradient id="prefix__paint0_linear" x1="329.5" x2="329.5" y1="-12" y2="166" gradientUnits="userSpaceOnUse">
            <stop offset="0" stop-color="#7E1DEB"/>
            <stop offset=".542" stop-color="#D28EFB"/>
            <stop offset=".635" stop-color="#EE7ADD"/>
            <stop offset=".818" stop-color="#7E1DEB"/>
            <stop offset=".979" stop-color="#FF35E3" stop-opacity=".68"/>
            <stop offset="1" stop-color="#D72EE5" stop-opacity=".781"/>
        </linearGradient>
        <linearGradient id="prefix__paint1_linear" x1="329.5" x2="329.5" y1="-12" y2="166" gradientUnits="userSpaceOnUse">
            <stop stop-color="#D28EFB"/>
            <stop offset="0" stop-color="#7E1DEB"/>
            <stop offset=".552" stop-color="#7E1DEB"/>
            <stop offset=".786" stop-color="#EE7ADD"/>
            <stop offset=".979" stop-color="#FF35E3" stop-opacity=".68"/>
            <stop offset="1" stop-color="#D72EE5" stop-opacity=".781"/>
        </linearGradient>
        <linearGradient id="prefix__paint2_linear" x1="329.5" x2="329.5" y1="-12" y2="166" gradientUnits="userSpaceOnUse">
            <stop stop-color="#D28EFB"/>
            <stop offset="0" stop-color="#7E1DEB"/>
            <stop offset=".479" stop-color="#7E1DEB"/>
            <stop offset=".813" stop-color="#EE7ADD"/>
            <stop offset=".979" stop-color="#FF35E3" stop-opacity=".68"/>
            <stop offset="1" stop-color="#D72EE5" stop-opacity=".781"/>
        </linearGradient>
    </defs>
</svg>
