<svg width="347" height="273" viewBox="0 0 347 273" fill="none" xmlns="http://www.w3.org/2000/svg">
<g clip-path="url(#clip0)">
<rect x="1" width="335.086" height="273" rx="2.27419" fill="white"/>
<mask id="mask0" mask-type="alpha" maskUnits="userSpaceOnUse" x="1" y="0" width="336" height="273">
<rect x="1" width="335.086" height="273" rx="2.27419" fill="white"/>
</mask>
<g mask="url(#mask0)">
</g>
</g>
<g clip-path="url(#clip1)">
<path d="M47.5564 262H50.9475V261.423H48.4488V261.381L49.6562 260.089C50.5801 259.1 50.853 258.638 50.853 258.042C50.853 257.213 50.1811 256.551 49.2362 256.551C48.294 256.551 47.5774 257.192 47.5774 258.136H48.1969C48.1969 257.525 48.5932 257.118 49.2152 257.118C49.7979 257.118 50.2441 257.475 50.2441 258.042C50.2441 258.538 49.9528 258.905 49.3307 259.585L47.5564 261.528V262ZM53.7848 262.073C54.9712 262.073 55.6536 261.068 55.6536 259.312C55.6536 257.57 54.9607 256.551 53.7848 256.551C52.609 256.551 51.916 257.57 51.916 259.312C51.916 261.068 52.5985 262.073 53.7848 262.073ZM53.7848 261.496C53.0027 261.496 52.546 260.711 52.546 259.312C52.546 257.916 53.0079 257.118 53.7848 257.118C54.5617 257.118 55.0237 257.916 55.0237 259.312C55.0237 260.711 54.567 261.496 53.7848 261.496ZM58.5408 256.625H57.8898L56.546 257.517V258.178L57.8583 257.307H57.8898V262H58.5408V256.625ZM61.8085 262.073C62.882 262.073 63.63 261.446 63.6353 260.572C63.63 259.892 63.176 259.315 62.5959 259.207V259.176C63.0999 259.045 63.4306 258.551 63.4358 257.979C63.4306 257.16 62.7429 256.551 61.8085 256.551C60.8636 256.551 60.1759 257.16 60.1812 257.979C60.1759 258.551 60.5067 259.045 61.0211 259.176V259.207C60.4305 259.315 59.9765 259.892 59.9817 260.572C59.9765 261.446 60.7245 262.073 61.8085 262.073ZM61.8085 261.496C61.071 261.496 60.6169 261.118 60.6221 260.541C60.6169 259.934 61.1182 259.501 61.8085 259.501C62.4883 259.501 62.9896 259.934 62.9949 260.541C62.9896 261.118 62.5355 261.496 61.8085 261.496ZM61.8085 258.945C61.2206 258.945 60.8059 258.577 60.8111 258.021C60.8059 257.475 61.2048 257.118 61.8085 257.118C62.4017 257.118 62.8006 257.475 62.8059 258.021C62.8006 258.577 62.3859 258.945 61.8085 258.945Z" fill="#494C55"/>
<path d="M161.556 262H164.948V261.423H162.449V261.381L163.656 260.089C164.58 259.1 164.853 258.638 164.853 258.042C164.853 257.213 164.181 256.551 163.236 256.551C162.294 256.551 161.577 257.192 161.577 258.136H162.197C162.197 257.525 162.593 257.118 163.215 257.118C163.798 257.118 164.244 257.475 164.244 258.042C164.244 258.538 163.953 258.905 163.331 259.585L161.556 261.528V262ZM167.785 262.073C168.971 262.073 169.654 261.068 169.654 259.312C169.654 257.57 168.961 256.551 167.785 256.551C166.609 256.551 165.916 257.57 165.916 259.312C165.916 261.068 166.598 262.073 167.785 262.073ZM167.785 261.496C167.003 261.496 166.546 260.711 166.546 259.312C166.546 257.916 167.008 257.118 167.785 257.118C168.562 257.118 169.024 257.916 169.024 259.312C169.024 260.711 168.567 261.496 167.785 261.496ZM172.541 256.625H171.89L170.546 257.517V258.178L171.858 257.307H171.89V262H172.541V256.625ZM175.798 256.541C174.706 256.53 174.003 257.349 174.003 258.346C174.003 259.386 174.769 260.131 175.693 260.131C176.249 260.131 176.722 259.858 177.016 259.417H177.058C177.058 260.74 176.543 261.496 175.714 261.496C175.147 261.496 174.801 261.139 174.685 260.646H174.045C174.171 261.496 174.811 262.073 175.714 262.073C176.921 262.073 177.667 261.003 177.667 259.092C177.667 257.108 176.68 256.551 175.798 256.541ZM175.798 257.118C176.47 257.118 176.963 257.696 176.963 258.336C176.963 258.976 176.438 259.554 175.777 259.554C175.116 259.554 174.633 259.018 174.633 258.346C174.633 257.664 175.137 257.118 175.798 257.118Z" fill="#494C55"/>
<path d="M275.556 262H278.948V261.423H276.449V261.381L277.656 260.089C278.58 259.1 278.853 258.638 278.853 258.042C278.853 257.213 278.181 256.551 277.236 256.551C276.294 256.551 275.577 257.192 275.577 258.136H276.197C276.197 257.525 276.593 257.118 277.215 257.118C277.798 257.118 278.244 257.475 278.244 258.042C278.244 258.538 277.953 258.905 277.331 259.585L275.556 261.528V262ZM281.785 262.073C282.971 262.073 283.654 261.068 283.654 259.312C283.654 257.57 282.961 256.551 281.785 256.551C280.609 256.551 279.916 257.57 279.916 259.312C279.916 261.068 280.598 262.073 281.785 262.073ZM281.785 261.496C281.003 261.496 280.546 260.711 280.546 259.312C280.546 257.916 281.008 257.118 281.785 257.118C282.562 257.118 283.024 257.916 283.024 259.312C283.024 260.711 282.567 261.496 281.785 261.496ZM284.651 262H288.042V261.423H285.543V261.381L286.751 260.089C287.675 259.1 287.948 258.638 287.948 258.042C287.948 257.213 287.276 256.551 286.331 256.551C285.389 256.551 284.672 257.192 284.672 258.136H285.291C285.291 257.525 285.688 257.118 286.31 257.118C286.892 257.118 287.339 257.475 287.339 258.042C287.339 258.538 287.047 258.905 286.425 259.585L284.651 261.528V262ZM290.879 262.073C292.066 262.073 292.748 261.068 292.748 259.312C292.748 257.57 292.055 256.551 290.879 256.551C289.704 256.551 289.011 257.57 289.011 259.312C289.011 261.068 289.693 262.073 290.879 262.073ZM290.879 261.496C290.097 261.496 289.641 260.711 289.641 259.312C289.641 257.916 290.102 257.118 290.879 257.118C291.656 257.118 292.118 257.916 292.118 259.312C292.118 260.711 291.662 261.496 290.879 261.496Z" fill="#494C55"/>
</g>
<rect x="26.1394" y="22.1394" width="164.721" height="44.8733" rx="2.6478" fill="white" stroke="url(#paint0_linear)" stroke-width="0.278716"/>
<path d="M86.696 50.4353H88.941L88.9601 48.2378C93.0792 47.9239 95.4669 45.7359 95.4764 42.4349C95.4669 39.191 93.0221 37.4692 89.6355 36.7081L89.0742 36.5749L89.1123 31.8185C90.3775 32.1134 91.148 32.922 91.2622 34.1206H95.2101C95.1625 30.9718 92.8128 28.7172 89.1503 28.3177L89.1694 26.0821H86.9243L86.9053 28.2987C83.1857 28.6602 80.5601 30.9052 80.5792 34.1491C80.5696 37.022 82.5959 38.6678 85.8874 39.4574L86.8006 39.6857L86.7531 44.718C85.2024 44.4231 84.156 43.4718 84.0514 41.8832H80.0655C80.1606 45.7264 82.6815 47.8763 86.715 48.2283L86.696 50.4353ZM88.9981 44.718L89.0362 40.2755C90.5107 40.7416 91.3098 41.3409 91.3193 42.4254C91.3098 43.5765 90.4346 44.4326 88.9981 44.718ZM86.8292 35.9946C85.64 35.5856 84.7839 34.9672 84.8029 33.8733C84.8029 32.8554 85.5259 32.0658 86.8672 31.7899L86.8292 35.9946ZM99.9188 48H113.808V44.6324H105.627V44.4992L108.471 41.7119C112.476 38.059 113.551 36.2325 113.551 34.016C113.551 30.6389 110.792 28.2511 106.616 28.2511C102.525 28.2511 99.7191 30.6959 99.7286 34.5201H103.638C103.629 32.6556 104.808 31.514 106.587 31.514C108.3 31.514 109.574 32.5795 109.574 34.2918C109.574 35.8424 108.623 36.9079 106.854 38.6107L99.9188 45.032V48ZM125.694 48.2664C130.032 48.2664 132.981 45.441 132.971 41.5026C132.981 37.7736 130.374 35.0909 126.864 35.0909C125.152 35.0909 123.677 35.8044 122.992 36.7652H122.878L123.382 31.885H131.896V28.5175H119.986L119.064 38.7915L122.726 39.4479C123.325 38.6392 124.486 38.1351 125.637 38.1351C127.597 38.1446 129.005 39.562 129.005 41.6073C129.005 43.6336 127.625 45.032 125.694 45.032C124.058 45.032 122.736 44.0046 122.64 42.492H118.645C118.721 45.8596 121.661 48.2664 125.694 48.2664Z" fill="#E5E5E5"/>
<path d="M71.7095 54.3311H141.946" stroke="#494E55" stroke-opacity="0.34" stroke-width="0.48492"/>
<path d="M89.5256 60.5608C90.5138 60.5608 91.0712 59.9463 91.0712 58.9328C91.0712 57.9257 90.5138 57.3175 89.57 57.3175H88.5248V60.5608H89.5256ZM88.9175 60.2124V57.6659H89.5446C90.3048 57.6659 90.6912 58.1474 90.6912 58.9328C90.6912 59.7246 90.3048 60.2124 89.5003 60.2124H88.9175ZM92.6992 60.6115C93.1933 60.6115 93.5543 60.3644 93.6684 59.997L93.3073 59.8957C93.2123 60.1491 92.9922 60.2757 92.6992 60.2757C92.2605 60.2757 91.9581 59.9923 91.9406 59.4713H93.7064V59.3129C93.7064 58.4071 93.1679 58.0967 92.6612 58.0967C92.0024 58.0967 91.5653 58.6161 91.5653 59.3636C91.5653 60.111 91.9961 60.6115 92.6992 60.6115ZM91.9406 59.1482C91.966 58.7697 92.2336 58.4324 92.6612 58.4324C93.0666 58.4324 93.3263 58.7365 93.3263 59.1482H91.9406ZM94.2749 61.473H94.6486V60.1871H94.6803C94.7626 60.3201 94.921 60.6115 95.3897 60.6115C95.9979 60.6115 96.4223 60.1237 96.4223 59.3509C96.4223 58.5844 95.9979 58.0967 95.3834 58.0967C94.9083 58.0967 94.7626 58.3881 94.6803 58.5148H94.6359V58.1284H94.2749V61.473ZM94.6423 59.3446C94.6423 58.7998 94.883 58.4324 95.3391 58.4324C95.8142 58.4324 96.0485 58.8315 96.0485 59.3446C96.0485 59.864 95.8078 60.2757 95.3391 60.2757C94.8893 60.2757 94.6423 59.8957 94.6423 59.3446ZM97.9805 60.6115C98.6393 60.6115 99.0827 60.111 99.0827 59.3572C99.0827 58.5971 98.6393 58.0967 97.9805 58.0967C97.3218 58.0967 96.8783 58.5971 96.8783 59.3572C96.8783 60.111 97.3218 60.6115 97.9805 60.6115ZM97.9805 60.2757C97.4801 60.2757 97.2521 59.845 97.2521 59.3572C97.2521 58.8695 97.4801 58.4324 97.9805 58.4324C98.481 58.4324 98.709 58.8695 98.709 59.3572C98.709 59.845 98.481 60.2757 97.9805 60.2757ZM101.376 58.6731C101.259 58.3279 100.996 58.0967 100.515 58.0967C100.002 58.0967 99.6216 58.3881 99.6216 58.7998C99.6216 59.1355 99.8211 59.3604 100.268 59.4649L100.673 59.5599C100.919 59.617 101.034 59.7341 101.034 59.902C101.034 60.111 100.812 60.2821 100.464 60.2821C100.158 60.2821 99.9668 60.1506 99.9003 59.8893L99.5455 59.978C99.6326 60.3913 99.9731 60.6115 100.47 60.6115C101.036 60.6115 101.421 60.3027 101.421 59.883C101.421 59.5441 101.208 59.3303 100.774 59.2242L100.413 59.1355C100.125 59.0643 99.9953 58.9677 99.9953 58.7808C99.9953 58.5718 100.217 58.4197 100.515 58.4197C100.841 58.4197 100.976 58.6003 101.04 58.7681L101.376 58.6731ZM101.983 60.5608H102.357V58.1284H101.983V60.5608ZM102.173 57.723C102.319 57.723 102.439 57.6089 102.439 57.4696C102.439 57.3302 102.319 57.2162 102.173 57.2162C102.027 57.2162 101.907 57.3302 101.907 57.4696C101.907 57.6089 102.027 57.723 102.173 57.723ZM104.099 58.1284H103.58V57.5456H103.206V58.1284H102.839V58.4451H103.206V59.9654C103.206 60.3898 103.548 60.5925 103.865 60.5925C104.004 60.5925 104.093 60.5671 104.144 60.5481L104.068 60.2124C104.036 60.2187 103.985 60.2314 103.903 60.2314C103.738 60.2314 103.58 60.1807 103.58 59.864V58.4451H104.099V58.1284ZM105.655 60.6115C106.149 60.6115 106.51 60.3644 106.624 59.997L106.263 59.8957C106.168 60.1491 105.948 60.2757 105.655 60.2757C105.216 60.2757 104.914 59.9923 104.897 59.4713H106.662V59.3129C106.662 58.4071 106.124 58.0967 105.617 58.0967C104.958 58.0967 104.521 58.6161 104.521 59.3636C104.521 60.111 104.952 60.6115 105.655 60.6115ZM104.897 59.1482C104.922 58.7697 105.19 58.4324 105.617 58.4324C106.023 58.4324 106.282 58.7365 106.282 59.1482H104.897ZM108.149 60.6115C108.618 60.6115 108.776 60.3201 108.859 60.1871H108.903V60.5608H109.264V57.3175H108.89V58.5148H108.859C108.776 58.3881 108.631 58.0967 108.156 58.0967C107.541 58.0967 107.117 58.5844 107.117 59.3509C107.117 60.1237 107.541 60.6115 108.149 60.6115ZM108.2 60.2757C107.731 60.2757 107.491 59.864 107.491 59.3446C107.491 58.8315 107.725 58.4324 108.2 58.4324C108.656 58.4324 108.897 58.7998 108.897 59.3446C108.897 59.8957 108.65 60.2757 108.2 60.2757ZM111.895 60.5608H112.3L113.016 57.9763H113.041L113.757 60.5608H114.162L115.049 57.3175H114.65L113.972 59.959H113.941L113.25 57.3175H112.807L112.116 59.959H112.085L111.407 57.3175H111.008L111.895 60.5608ZM116.281 60.6115C116.775 60.6115 117.136 60.3644 117.25 59.997L116.889 59.8957C116.794 60.1491 116.574 60.2757 116.281 60.2757C115.843 60.2757 115.54 59.9923 115.523 59.4713H117.288V59.3129C117.288 58.4071 116.75 58.0967 116.243 58.0967C115.584 58.0967 115.147 58.6161 115.147 59.3636C115.147 60.111 115.578 60.6115 116.281 60.6115ZM115.523 59.1482C115.548 58.7697 115.816 58.4324 116.243 58.4324C116.649 58.4324 116.908 58.7365 116.908 59.1482H115.523ZM118.877 60.6115C119.371 60.6115 119.732 60.3644 119.846 59.997L119.485 59.8957C119.39 60.1491 119.17 60.2757 118.877 60.2757C118.438 60.2757 118.136 59.9923 118.118 59.4713H119.884V59.3129C119.884 58.4071 119.345 58.0967 118.839 58.0967C118.18 58.0967 117.743 58.6161 117.743 59.3636C117.743 60.111 118.174 60.6115 118.877 60.6115ZM118.118 59.1482C118.144 58.7697 118.411 58.4324 118.839 58.4324C119.244 58.4324 119.504 58.7365 119.504 59.1482H118.118ZM120.452 60.5608H120.826V59.6502L121.087 59.4079L121.998 60.5608H122.473L121.369 59.1672L122.397 58.1284H121.935L120.871 59.2116H120.826V57.3175H120.452V60.5608ZM123.252 57.3175H122.878V60.5608H123.252V57.3175ZM124.177 61.4666C124.514 61.4666 124.754 61.2877 124.893 60.9155L125.929 58.1347L125.52 58.1284L124.849 60.0667H124.823L124.152 58.1284H123.746L124.646 60.5735L124.576 60.7635C124.443 61.1277 124.272 61.1626 124 61.0929L123.905 61.4223C123.943 61.4413 124.05 61.4666 124.177 61.4666Z" fill="#494C55" fill-opacity="0.67"/>
<rect x="26.1394" y="78.1394" width="164.721" height="44.8733" rx="2.6478" fill="white" stroke="url(#paint1_linear)" stroke-width="0.278716"/>
<g clip-path="url(#clip2)">
<g filter="url(#filter0_i)">
<rect x="36.5925" y="88.0336" width="68.6053" height="28.4291" fill="black" fill-opacity="0.01"/>
</g>
<path d="M36.8574 90.9077H38.361V95.0338H39.2352V90.9077H40.7388V90.1689H36.8574V90.9077ZM42.5115 95.1051C43.5804 95.1051 44.2598 94.3521 44.2598 93.2237C44.2598 92.093 43.5804 91.3377 42.5115 91.3377C41.4425 91.3377 40.7631 92.093 40.7631 93.2237C40.7631 94.3521 41.4425 95.1051 42.5115 95.1051ZM42.5162 94.4162C41.9247 94.4162 41.6349 93.8889 41.6349 93.2214C41.6349 92.5539 41.9247 92.0194 42.5162 92.0194C43.0982 92.0194 43.388 92.5539 43.388 93.2214C43.388 93.8889 43.0982 94.4162 42.5162 94.4162ZM46.8116 91.3852H46.0918V90.511H45.2319V91.3852H44.7141V92.0503H45.2319V94.0789C45.2272 94.7654 45.726 95.1027 46.3721 95.0837C46.6168 95.0766 46.7854 95.0291 46.8781 94.9982L46.7332 94.3259C46.6857 94.3378 46.5883 94.3592 46.4814 94.3592C46.2652 94.3592 46.0918 94.2832 46.0918 93.9364V92.0503H46.8116V91.3852ZM48.5807 95.1075C49.1531 95.1075 49.4952 94.839 49.652 94.5326H49.6805V95.0338H50.5071V92.5919C50.5071 91.6275 49.7209 91.3377 49.0249 91.3377C48.2576 91.3377 47.6685 91.6797 47.4785 92.3448L48.2814 92.4589C48.3669 92.2094 48.6092 91.9956 49.0296 91.9956C49.4287 91.9956 49.6472 92.1999 49.6472 92.5586V92.5729C49.6472 92.8199 49.3883 92.8318 48.7446 92.9007C48.0367 92.9767 47.3597 93.1881 47.3597 94.01C47.3597 94.7274 47.8847 95.1075 48.5807 95.1075ZM48.8039 94.4756C48.4453 94.4756 48.1887 94.3117 48.1887 93.9958C48.1887 93.6656 48.4761 93.5278 48.861 93.4732C49.0866 93.4423 49.538 93.3853 49.6496 93.295V93.725C49.6496 94.1312 49.3218 94.4756 48.8039 94.4756ZM52.2317 90.1689H51.3718V95.0338H52.2317V90.1689ZM55.6945 90.1689H54.8132V95.0338H55.6945V90.1689ZM57.4707 92.8959C57.4707 92.3686 57.789 92.0645 58.2427 92.0645C58.6869 92.0645 58.9529 92.3567 58.9529 92.8437V95.0338H59.8128V92.7107C59.8152 91.8365 59.3164 91.3377 58.5634 91.3377C58.017 91.3377 57.6417 91.599 57.4754 92.0052H57.4327V91.3852H56.6108V95.0338H57.4707V92.8959ZM63.8154 91.3852H62.9009L62.06 94.0955H62.022L61.1835 91.3852H60.2665L61.5659 95.0338H62.5161L63.8154 91.3852ZM65.9016 95.1051C66.752 95.1051 67.3364 94.6894 67.4884 94.0551L66.6855 93.9649C66.5691 94.2737 66.2841 94.4352 65.9135 94.4352C65.3577 94.4352 64.9895 94.0694 64.9824 93.4447H67.5241V93.181C67.5241 91.9006 66.7544 91.3377 65.8565 91.3377C64.8113 91.3377 64.1296 92.1049 64.1296 93.2309C64.1296 94.3758 64.8018 95.1051 65.9016 95.1051ZM64.9847 92.8651C65.0109 92.3995 65.3553 92.0075 65.8684 92.0075C66.3625 92.0075 66.695 92.3686 66.6998 92.8651H64.9847ZM71.1353 92.3496C71.0165 91.732 70.5224 91.3377 69.6673 91.3377C68.7884 91.3377 68.1898 91.77 68.1921 92.4446C68.1898 92.9767 68.5176 93.3283 69.2183 93.4732L69.8407 93.6038C70.1756 93.6774 70.3324 93.8128 70.3324 94.0195C70.3324 94.2689 70.0616 94.4566 69.653 94.4566C69.2587 94.4566 69.0022 94.2856 68.9285 93.9577L68.09 94.0385C68.1969 94.7084 68.7599 95.1051 69.6554 95.1051C70.5676 95.1051 71.2113 94.6324 71.2137 93.9411C71.2113 93.4209 70.8764 93.1026 70.1875 92.9529L69.5651 92.8199C69.1946 92.7368 69.0473 92.6085 69.0497 92.3971C69.0473 92.1501 69.3205 91.979 69.6792 91.979C70.0759 91.979 70.2849 92.1952 70.3514 92.4351L71.1353 92.3496ZM73.7447 91.3852H73.0249V90.511H72.165V91.3852H71.6472V92.0503H72.165V94.0789C72.1603 94.7654 72.6591 95.1027 73.3052 95.0837C73.5499 95.0766 73.7186 95.0291 73.8112 94.9982L73.6663 94.3259C73.6188 94.3378 73.5214 94.3592 73.4145 94.3592C73.1983 94.3592 73.0249 94.2832 73.0249 93.9364V92.0503H73.7447V91.3852ZM76.0399 95.1051C76.8903 95.1051 77.4747 94.6894 77.6267 94.0551L76.8238 93.9649C76.7074 94.2737 76.4224 94.4352 76.0518 94.4352C75.496 94.4352 75.1278 94.0694 75.1207 93.4447H77.6624V93.181C77.6624 91.9006 76.8927 91.3377 75.9948 91.3377C74.9496 91.3377 74.2679 92.1049 74.2679 93.2309C74.2679 94.3758 74.9401 95.1051 76.0399 95.1051ZM75.123 92.8651C75.1492 92.3995 75.4936 92.0075 76.0067 92.0075C76.5008 92.0075 76.8333 92.3686 76.8381 92.8651H75.123ZM79.7438 95.0979C80.3709 95.0979 80.6536 94.725 80.789 94.459H80.8413V95.0338H81.6869V90.1689H80.8246V91.9885H80.789C80.6584 91.7249 80.3899 91.3377 79.7462 91.3377C78.9029 91.3377 78.2402 91.998 78.2402 93.2142C78.2402 94.4162 78.8839 95.0979 79.7438 95.0979ZM79.9837 94.3924C79.416 94.3924 79.1167 93.8936 79.1167 93.2095C79.1167 92.5301 79.4113 92.0432 79.9837 92.0432C80.5372 92.0432 80.8413 92.5016 80.8413 93.2095C80.8413 93.9174 80.5325 94.3924 79.9837 94.3924Z" fill="black"/>
<path d="M41.2419 111.234H41.8758L41.8788 110.549C43.1615 110.456 43.8971 109.751 43.9001 108.749C43.8971 107.687 43.021 107.203 42.1 106.985L41.9027 106.934L41.9147 105.227C42.3931 105.31 42.7011 105.597 42.7489 106.028H43.8164C43.7984 105.077 43.0509 104.383 41.9206 104.276L41.9236 103.579H41.2897L41.2867 104.276C40.1654 104.389 39.3581 105.077 39.3611 106.067C39.3611 106.946 39.986 107.451 40.9937 107.711L41.2628 107.78L41.2508 109.589C40.7156 109.505 40.3299 109.2 40.291 108.659H39.1996C39.2415 109.781 40.0129 110.447 41.2449 110.549L41.2419 111.234ZM41.8848 109.589L41.8967 107.948C42.4409 108.106 42.7878 108.315 42.7908 108.74C42.7878 109.183 42.4319 109.499 41.8848 109.589ZM41.2688 106.772C40.8562 106.641 40.4794 106.423 40.4854 105.998C40.4884 105.612 40.7784 105.313 41.2807 105.227L41.2688 106.772ZM47.027 110.552C48.3367 110.552 49.2905 109.801 49.2875 108.767C49.2905 108.001 48.8121 107.451 47.9539 107.329V107.281C48.6177 107.137 49.0633 106.644 49.0603 105.956C49.0633 105.023 48.2679 104.261 47.0449 104.261C45.8549 104.261 44.9339 104.969 44.91 105.995H45.9775C45.9954 105.481 46.4738 105.161 47.039 105.161C47.6101 105.161 47.9898 105.508 47.9868 106.022C47.9898 106.557 47.5473 106.913 46.9134 106.913H46.3722V107.768H46.9134C47.6878 107.768 48.1483 108.157 48.1453 108.71C48.1483 109.251 47.6788 109.622 47.024 109.622C46.408 109.622 45.9326 109.302 45.9057 108.803H44.7814C44.8113 109.837 45.7353 110.552 47.027 110.552ZM51.3088 109.631H50.352L50.3311 109.966C50.2802 110.776 50.0679 111.602 49.9812 111.963H50.7108C50.8543 111.587 51.1863 110.713 51.27 109.96L51.3088 109.631ZM54.3341 104.345H53.2786L51.7566 105.322V106.339L53.1889 105.424H53.2248V110.468H54.3341V104.345ZM56.1132 110.468H57.2644L59.8658 105.292V104.345H55.6946V105.271H58.7176V105.313L56.1132 110.468ZM62.8776 110.552C64.1723 110.552 65.0753 109.673 65.0753 108.456C65.0753 107.278 64.256 106.429 63.1437 106.429C62.6474 106.429 62.2078 106.626 61.9806 106.895H61.9447L62.1211 105.271H64.7554V104.345H61.2031L60.8832 107.502L61.8849 107.667C62.0912 107.439 62.4799 107.287 62.8477 107.29C63.5205 107.293 64.0049 107.789 64.0019 108.483C64.0049 109.168 63.5324 109.655 62.8776 109.655C62.3244 109.655 61.8789 109.305 61.84 108.803H60.7636C60.7935 109.819 61.6816 110.552 62.8776 110.552Z" fill="#222429"/>
</g>
<g clip-path="url(#clip3)">
<g filter="url(#filter1_i)">
<rect x="112.144" y="88.0336" width="68.6053" height="28.4291" fill="black" fill-opacity="0.01"/>
</g>
<path d="M117.046 90.8104C116.896 89.7295 116.065 89.1024 114.987 89.1024C113.716 89.1024 112.758 90.0289 112.758 91.6014C112.758 93.1715 113.704 94.1003 114.987 94.1003C116.143 94.1003 116.911 93.3521 117.046 92.4233L116.158 92.4185C116.046 92.9886 115.58 93.3093 114.998 93.3093C114.21 93.3093 113.644 92.7178 113.644 91.6014C113.644 90.5039 114.205 89.8935 115.001 89.8935C115.592 89.8935 116.055 90.2284 116.158 90.8104H117.046ZM120.141 92.4993C120.141 93.0551 119.744 93.3307 119.364 93.3307C118.951 93.3307 118.675 93.0385 118.675 92.5753V90.3852H117.815V92.7083C117.815 93.5849 118.314 94.0813 119.031 94.0813C119.578 94.0813 119.962 93.7939 120.129 93.3853H120.167V94.0338H121.001V90.3852H120.141V92.4993ZM121.885 94.0338H122.745V91.8888C122.745 91.4256 123.094 91.0978 123.567 91.0978C123.711 91.0978 123.892 91.1239 123.966 91.1477V90.3567C123.887 90.3424 123.752 90.3329 123.657 90.3329C123.239 90.3329 122.89 90.5704 122.757 90.9933H122.719V90.3852H121.885V94.0338ZM124.537 94.0338H125.397V91.8888C125.397 91.4256 125.746 91.0978 126.219 91.0978C126.364 91.0978 126.544 91.1239 126.618 91.1477V90.3567C126.539 90.3424 126.404 90.3329 126.309 90.3329C125.891 90.3329 125.542 90.5704 125.409 90.9933H125.371V90.3852H124.537V94.0338ZM128.654 94.1051C129.505 94.1051 130.089 93.6894 130.241 93.0551L129.438 92.9649C129.322 93.2737 129.037 93.4352 128.666 93.4352C128.11 93.4352 127.742 93.0694 127.735 92.4447H130.277V92.181C130.277 90.9006 129.507 90.3377 128.609 90.3377C127.564 90.3377 126.882 91.1049 126.882 92.2309C126.882 93.3758 127.554 94.1051 128.654 94.1051ZM127.737 91.8651C127.763 91.3995 128.108 91.0075 128.621 91.0075C129.115 91.0075 129.448 91.3686 129.452 91.8651H127.737ZM131.864 91.8959C131.864 91.3686 132.182 91.0645 132.636 91.0645C133.08 91.0645 133.346 91.3567 133.346 91.8437V94.0338H134.206V91.7107C134.208 90.8365 133.71 90.3377 132.957 90.3377C132.41 90.3377 132.035 90.599 131.869 91.0052H131.826V90.3852H131.004V94.0338H131.864V91.8959ZM136.902 90.3852H136.182V89.511H135.323V90.3852H134.805V91.0503H135.323V93.0789C135.318 93.7654 135.817 94.1027 136.463 94.0837C136.707 94.0766 136.876 94.0291 136.969 93.9982L136.824 93.3259C136.776 93.3378 136.679 93.3592 136.572 93.3592C136.356 93.3592 136.182 93.2832 136.182 92.9364V91.0503H136.902V90.3852ZM139.969 89.1689H139.003L140.715 94.0338H141.803L143.518 89.1689H142.549L141.285 92.9981H141.236L139.969 89.1689ZM144.786 94.1075C145.358 94.1075 145.7 93.839 145.857 93.5326H145.885V94.0338H146.712V91.5919C146.712 90.6275 145.926 90.3377 145.23 90.3377C144.463 90.3377 143.873 90.6797 143.683 91.3448L144.486 91.4589C144.572 91.2094 144.814 90.9956 145.235 90.9956C145.634 90.9956 145.852 91.1999 145.852 91.5586V91.5729C145.852 91.8199 145.593 91.8318 144.95 91.9007C144.242 91.9767 143.565 92.1881 143.565 93.01C143.565 93.7274 144.09 94.1075 144.786 94.1075ZM145.009 93.4756C144.65 93.4756 144.394 93.3117 144.394 92.9958C144.394 92.6656 144.681 92.5278 145.066 92.4732C145.292 92.4423 145.743 92.3853 145.855 92.295V92.725C145.855 93.1312 145.527 93.4756 145.009 93.4756ZM148.437 89.1689H147.577V94.0338H148.437V89.1689ZM151.646 92.4993C151.646 93.0551 151.25 93.3307 150.87 93.3307C150.456 93.3307 150.181 93.0385 150.181 92.5753V90.3852H149.321V92.7083C149.321 93.5849 149.82 94.0813 150.537 94.0813C151.083 94.0813 151.468 93.7939 151.635 93.3853H151.673V94.0338H152.506V90.3852H151.646V92.4993ZM155.006 94.1051C155.856 94.1051 156.441 93.6894 156.593 93.0551L155.79 92.9649C155.673 93.2737 155.388 93.4352 155.018 93.4352C154.462 93.4352 154.094 93.0694 154.087 92.4447H156.628V92.181C156.628 90.9006 155.859 90.3377 154.961 90.3377C153.916 90.3377 153.234 91.1049 153.234 92.2309C153.234 93.3758 153.906 94.1051 155.006 94.1051ZM154.089 91.8651C154.115 91.3995 154.46 91.0075 154.973 91.0075C155.467 91.0075 155.799 91.3686 155.804 91.8651H154.089Z" fill="#881DEB"/>
<path d="M116.524 111.955H117.158L117.161 111.271C118.443 111.178 119.179 110.472 119.182 109.471C119.179 108.409 118.303 107.925 117.382 107.707L117.184 107.656L117.196 105.948C117.675 106.032 117.983 106.319 118.031 106.75H119.098C119.08 105.799 118.333 105.105 117.202 104.997L117.205 104.301H116.571L116.568 104.997C115.447 105.111 114.64 105.799 114.643 106.789C114.643 107.668 115.268 108.173 116.275 108.433L116.545 108.502L116.533 110.311C115.997 110.227 115.612 109.922 115.573 109.381H114.481C114.523 110.502 115.295 111.169 116.527 111.271L116.524 111.955ZM117.166 110.311L117.178 108.669C117.723 108.828 118.07 109.037 118.072 109.462C118.07 109.904 117.714 110.221 117.166 110.311ZM116.551 107.494C116.138 107.363 115.761 107.144 115.767 106.72C115.77 106.334 116.06 106.035 116.562 105.948L116.551 107.494ZM122.24 111.274C123.535 111.274 124.438 110.395 124.438 109.178C124.438 108 123.618 107.15 122.506 107.15C122.01 107.15 121.57 107.348 121.343 107.617H121.307L121.483 105.993H124.118V105.066H120.566L120.246 108.224L121.247 108.388C121.454 108.161 121.842 108.009 122.21 108.012C122.883 108.015 123.367 108.511 123.364 109.205C123.367 109.889 122.895 110.377 122.24 110.377C121.687 110.377 121.241 110.027 121.202 109.525H120.126C120.156 110.541 121.044 111.274 122.24 111.274ZM126.434 110.353H125.478L125.457 110.688C125.406 111.498 125.193 112.323 125.107 112.685H125.836C125.98 112.308 126.312 111.435 126.395 110.682L126.434 110.353ZM127.635 111.19H131.833V110.263H129.166V110.221L130.221 109.148C131.411 108.006 131.74 107.449 131.74 106.759C131.74 105.733 130.906 104.983 129.674 104.983C128.46 104.983 127.599 105.736 127.599 106.899H128.655C128.655 106.274 129.049 105.883 129.659 105.883C130.242 105.883 130.676 106.238 130.676 106.815C130.676 107.327 130.365 107.692 129.761 108.305L127.635 110.389V111.19ZM135.128 111.307C136.605 111.31 137.487 110.143 137.487 108.134C137.487 106.137 136.599 104.983 135.128 104.983C133.657 104.983 132.772 106.134 132.769 108.134C132.769 110.14 133.651 111.307 135.128 111.307ZM135.128 110.371C134.366 110.371 133.887 109.605 133.89 108.134C133.893 106.675 134.369 105.906 135.128 105.906C135.891 105.906 136.366 106.675 136.369 108.134C136.369 109.605 135.894 110.371 135.128 110.371ZM140.61 111.274C141.904 111.274 142.807 110.395 142.807 109.178C142.807 108 141.988 107.15 140.876 107.15C140.379 107.15 139.94 107.348 139.713 107.617H139.677L139.853 105.993H142.488V105.066H138.935L138.615 108.224L139.617 108.388C139.823 108.161 140.212 108.009 140.58 108.012C141.253 108.015 141.737 108.511 141.734 109.205C141.737 109.889 141.265 110.377 140.61 110.377C140.057 110.377 139.611 110.027 139.572 109.525H138.496C138.526 110.541 139.414 111.274 140.61 111.274Z" fill="#222429"/>
</g>
<path d="M1 246.414L3.65873 245.834L6.31746 245.406L8.97619 244.736L11.6349 244.914L14.2936 244.251L16.9524 242.85L19.6111 242.566L22.2698 241.317L24.9286 241.375L27.5873 241.556L30.246 240.828L32.9048 241.206L35.5635 240.514L38.2222 239.133L40.8809 238.281L43.5397 237.341L46.1984 236.625L48.8571 236.581L51.5159 236.107L54.1746 236.216L56.8333 235.416L59.4921 235.393L62.1508 235.006L64.8095 234.628L67.4683 233.905L70.127 233.075L72.7857 232.74L75.4444 231.435L78.1032 230.28L80.7619 230.516L83.4206 230.416L86.0794 229.704L88.7381 228.991L91.3968 227.982L94.0556 228.114L96.7143 227.322L99.373 226.55L102.032 226.058L104.69 225.496L107.349 225.249L110.008 224.46L112.667 223.879L115.325 223.278L117.984 222.753L120.643 222.869L123.302 225.144L125.96 224.088L128.619 225.601L131.278 226.363L133.937 222.845L136.595 222.703L139.254 221.281L141.913 222.8L144.571 222.095L147.23 221.504L149.889 221.418L152.548 219.917L155.206 219.419L157.865 218.398L160.524 217.623L163.183 216.493L165.841 215.64L168.5 215.03L171.159 213.889L173.817 208.401L176.476 207.928L179.135 206.656L181.794 206.787L184.452 203.523L187.111 197.249L189.77 190.202L192.429 187.087L195.087 186.443L197.746 191.48L200.405 183.964L203.063 174.216L205.722 174.505L208.381 169.815L211.04 177.079L213.698 173.43L216.357 179.242L219.016 169.822L221.675 166.053L224.333 172.758L226.992 173.617L229.651 175.072L232.31 170.563L234.968 170.567L237.627 171.495L240.286 182.941L242.944 183.628L245.603 180.402L248.262 180.228L250.921 171.284L253.579 173.03L256.238 173.542L258.897 176.421L261.556 185.894L264.214 182.33L266.873 180.99L269.532 183.01L272.19 180.05L274.849 180.099L277.508 179.822L280.167 173.926L282.825 169.775L285.484 170.043L288.143 164.594L290.802 158.727L293.46 159.22L296.119 158.698L298.778 167.378L301.437 170.183L304.095 184.966L306.754 178.222L309.413 176.911L312.071 165.756L314.73 163.054L317.389 160.605L320.048 153.411L322.706 138.501L325.365 139.713L328.024 127.836L330.683 138.558L333.341 129.142L336 125" stroke="#BE6CFF" stroke-width="1.10502" stroke-miterlimit="10"/>
<path d="M1 246.414L3.65873 245.834L6.31746 245.406L8.97619 244.736L11.6349 244.914L14.2936 244.251L16.9524 242.85L19.6111 242.566L22.2698 241.317L24.9286 241.375L27.5873 241.556L30.246 240.828L32.9048 241.206L35.5635 240.514L38.2222 239.133L40.881 238.281L43.5397 237.341L46.1984 236.625L48.8571 236.581L51.5159 236.107L54.1746 236.216L56.8333 235.416L59.4921 235.393L62.1508 235.006L64.8095 234.628L67.4683 233.905L70.127 233.075L72.7857 232.74L75.4445 231.435L78.1032 230.28L80.7619 230.516L83.4206 230.416L86.0794 229.704L88.7381 228.991L91.3968 227.982L94.0556 228.114L96.7143 227.322L99.373 226.55L102.032 226.058L104.69 225.496L107.349 225.249L110.008 224.46L112.667 223.879L115.325 223.278L117.984 222.753L120.643 222.869L123.302 225.144L125.96 224.088L128.619 225.601L131.278 226.363L133.937 222.845L136.595 222.703L139.254 221.281L141.913 222.8L144.571 222.095L147.23 221.504L149.889 221.418L152.548 219.917L155.206 219.419L157.865 218.398L160.524 217.623L163.183 216.493L165.841 215.64L168.5 215.03L171.159 213.889L173.817 208.401L176.476 207.928L179.135 206.656L181.794 206.787L184.452 203.523L187.111 197.249L189.77 190.202L192.429 187.087L195.087 186.443L197.746 191.48L200.405 183.964L203.063 174.216L205.722 174.505L208.381 169.815L211.04 177.079L213.698 173.43L216.357 179.242L219.016 169.822L221.675 166.053L224.333 172.758L226.992 173.617L229.651 175.072L232.31 170.563L234.968 170.567L237.627 171.495L240.286 182.94L242.944 183.628L245.603 180.402L248.262 180.228L250.921 171.284L253.579 173.03L256.238 173.542L258.897 176.421L261.556 185.894L264.214 182.33L266.873 180.99L269.532 183.01L272.19 180.05L274.849 180.099L277.508 179.822L280.167 173.926L282.825 169.775L285.484 170.043L288.143 164.594L290.802 158.727L293.46 159.22L296.119 158.698L298.778 167.378L301.437 170.183L304.095 184.966L306.754 178.222L309.413 176.911L312.071 165.756L314.73 163.054L317.389 160.605L320.048 153.411L322.706 138.501L325.365 139.713L328.024 127.836L330.683 138.558L333.341 129.142L336 125V247H333.341H330.683H328.024H325.365H322.706H320.048H317.389H314.73H312.071H309.413H306.754H304.095H301.437H298.778H296.119H293.46H290.802H288.143H285.484H282.825H280.167H277.508H274.849H272.19H269.532H266.873H264.214H261.556H258.897H256.238H253.579H250.921H248.262H245.603H242.944H240.286H237.627H234.968H232.31H229.651H226.992H224.333H221.675H219.016H216.357H213.698H211.04H208.381H205.722H203.063H200.405H197.746H195.087H192.429H189.77H187.111H184.452H181.794H179.135H176.476H173.817H171.159H168.5H165.841H163.183H160.524H157.865H155.206H152.548H149.889H147.23H144.571H141.913H139.254H136.595H133.937H131.278H128.619H125.96H123.302H120.643H117.984H115.325H112.667H110.008H107.349H104.69H102.032H99.373H96.7143H94.0556H91.3968H88.7381H86.0794H83.4206H80.7619H78.1032H75.4445H72.7857H70.127H67.4683H64.8095H62.1508H59.4921H56.8333H54.1746H51.5159H48.8571H46.1984H43.5397H40.881H38.2222H35.5635H32.9048H30.246H27.5873H24.9286H22.2698H19.6111H16.9524H14.2936H11.6349H8.97619H6.31746H3.65873H1V246.414Z" fill="url(#paint2_linear)" fill-opacity="0.301961"/>
<defs>
<filter id="filter0_i" x="36.5925" y="88.0336" width="68.6053" height="28.4291" filterUnits="userSpaceOnUse" color-interpolation-filters="sRGB">
<feFlood flood-opacity="0" result="BackgroundImageFix"/>
<feBlend mode="normal" in="SourceGraphic" in2="BackgroundImageFix" result="shape"/>
<feColorMatrix in="SourceAlpha" type="matrix" values="0 0 0 0 0 0 0 0 0 0 0 0 0 0 0 0 0 0 127 0" result="hardAlpha"/>
<feOffset dy="-0.421008"/>
<feComposite in2="hardAlpha" operator="arithmetic" k2="-1" k3="1"/>
<feColorMatrix type="matrix" values="0 0 0 0 0.878431 0 0 0 0 0.52549 0 0 0 0 0.827451 0 0 0 0.293242 0"/>
<feBlend mode="normal" in2="shape" result="effect1_innerShadow"/>
</filter>
<filter id="filter1_i" x="112.144" y="88.0336" width="68.6053" height="28.4291" filterUnits="userSpaceOnUse" color-interpolation-filters="sRGB">
<feFlood flood-opacity="0" result="BackgroundImageFix"/>
<feBlend mode="normal" in="SourceGraphic" in2="BackgroundImageFix" result="shape"/>
<feColorMatrix in="SourceAlpha" type="matrix" values="0 0 0 0 0 0 0 0 0 0 0 0 0 0 0 0 0 0 127 0" result="hardAlpha"/>
<feOffset dy="-0.421008"/>
<feComposite in2="hardAlpha" operator="arithmetic" k2="-1" k3="1"/>
<feColorMatrix type="matrix" values="0 0 0 0 0.878431 0 0 0 0 0.52549 0 0 0 0 0.827451 0 0 0 0.293242 0"/>
<feBlend mode="normal" in2="shape" result="effect1_innerShadow"/>
</filter>
<linearGradient id="paint0_linear" x1="108.5" y1="22" x2="108.5" y2="67.152" gradientUnits="userSpaceOnUse">
<stop stop-color="#FF35E2"/>
<stop offset="1" stop-color="#881DEB"/>
</linearGradient>
<linearGradient id="paint1_linear" x1="108.5" y1="78" x2="108.5" y2="123.152" gradientUnits="userSpaceOnUse">
<stop stop-color="#FF35E2"/>
<stop offset="1" stop-color="#881DEB"/>
</linearGradient>
<linearGradient id="paint2_linear" x1="168.5" y1="125" x2="168.5" y2="247" gradientUnits="userSpaceOnUse">
<stop stop-color="#FF35E2"/>
<stop offset="1" stop-color="#881DEB"/>
</linearGradient>
<clipPath id="clip0">
<rect x="1" width="335.086" height="273" rx="15" fill="white"/>
</clipPath>
<clipPath id="clip1">
<rect width="340.761" height="19.3375" fill="white" transform="translate(6 250)"/>
</clipPath>
<clipPath id="clip2">
<rect width="68.6053" height="28.4291" fill="white" transform="translate(36.5913 88.0338)"/>
</clipPath>
<clipPath id="clip3">
<rect width="68.6053" height="28.4291" fill="white" transform="translate(112.145 88.0338)"/>
</clipPath>
</defs>
</svg>
