<svg width="905" height="613" viewBox="0 0 905 613" fill="none" xmlns="http://www.w3.org/2000/svg">
<g filter="url(#filter0_d)">
<rect x="69" y="99" width="736" height="413" rx="10" fill="white"/>
<rect x="116.25" y="123.25" width="295.5" height="80.5" rx="4.75" fill="white" stroke="url(#paint0_linear)" stroke-width="0.5"/>
<path d="M226.806 174.369H230.834L230.868 170.427C238.257 169.863 242.541 165.938 242.558 160.017C242.541 154.197 238.155 151.108 232.079 149.743L231.073 149.504L231.141 140.971C233.411 141.5 234.793 142.951 234.998 145.101H242.08C241.995 139.452 237.779 135.408 231.209 134.691L231.243 130.681H227.216L227.182 134.657C220.509 135.305 215.799 139.333 215.833 145.152C215.816 150.306 219.451 153.259 225.356 154.675L226.994 155.085L226.909 164.112C224.127 163.583 222.25 161.877 222.062 159.027H214.911C215.082 165.921 219.604 169.778 226.84 170.41L226.806 174.369ZM230.936 164.112L231.004 156.143C233.649 156.979 235.083 158.054 235.1 160C235.083 162.064 233.513 163.6 230.936 164.112ZM227.045 148.463C224.912 147.729 223.376 146.62 223.41 144.657C223.41 142.831 224.707 141.415 227.113 140.92L227.045 148.463ZM250.527 170H275.443V163.959H260.767V163.72L265.869 158.72C273.054 152.166 274.982 148.89 274.982 144.913C274.982 138.855 270.033 134.572 262.541 134.572C255.203 134.572 250.169 138.958 250.186 145.818H257.2C257.183 142.473 259.299 140.425 262.49 140.425C265.562 140.425 267.849 142.337 267.849 145.408C267.849 148.19 266.142 150.101 262.968 153.156L250.527 164.676V170ZM296.766 170.478C304.548 170.478 309.839 165.409 309.822 158.344C309.839 151.654 305.163 146.842 298.865 146.842C295.794 146.842 293.148 148.122 291.92 149.845H291.715L292.619 141.091H307.893V135.05H286.527L284.871 153.48L291.442 154.658C292.517 153.207 294.599 152.303 296.664 152.303C300.179 152.32 302.705 154.863 302.705 158.532C302.705 162.167 300.231 164.676 296.766 164.676C293.831 164.676 291.459 162.832 291.288 160.119H284.121C284.257 166.16 289.53 170.478 296.766 170.478Z" fill="#E5E5E5"/>
<path d="M198 181H324" stroke="#494E55" stroke-opacity="0.34" stroke-width="0.869918"/>
<path d="M229.961 193C231.734 193 232.734 191.898 232.734 190.08C232.734 188.273 231.734 187.182 230.04 187.182H228.165V193H229.961ZM228.87 192.375V187.807H229.995C231.359 187.807 232.052 188.67 232.052 190.08C232.052 191.5 231.359 192.375 229.915 192.375H228.87ZM235.654 193.091C236.54 193.091 237.188 192.648 237.393 191.989L236.745 191.807C236.575 192.261 236.18 192.489 235.654 192.489C234.867 192.489 234.325 191.98 234.293 191.045H237.461V190.761C237.461 189.136 236.495 188.58 235.586 188.58C234.404 188.58 233.62 189.511 233.62 190.852C233.62 192.193 234.393 193.091 235.654 193.091ZM234.293 190.466C234.339 189.787 234.819 189.182 235.586 189.182C236.313 189.182 236.779 189.727 236.779 190.466H234.293ZM238.481 194.636H239.151V192.33H239.208C239.356 192.568 239.64 193.091 240.481 193.091C241.572 193.091 242.333 192.216 242.333 190.83C242.333 189.455 241.572 188.58 240.469 188.58C239.617 188.58 239.356 189.102 239.208 189.33H239.129V188.636H238.481V194.636ZM239.14 190.818C239.14 189.841 239.572 189.182 240.39 189.182C241.242 189.182 241.663 189.898 241.663 190.818C241.663 191.75 241.231 192.489 240.39 192.489C239.583 192.489 239.14 191.807 239.14 190.818ZM245.129 193.091C246.31 193.091 247.106 192.193 247.106 190.841C247.106 189.477 246.31 188.58 245.129 188.58C243.947 188.58 243.151 189.477 243.151 190.841C243.151 192.193 243.947 193.091 245.129 193.091ZM245.129 192.489C244.231 192.489 243.822 191.716 243.822 190.841C243.822 189.966 244.231 189.182 245.129 189.182C246.026 189.182 246.435 189.966 246.435 190.841C246.435 191.716 246.026 192.489 245.129 192.489ZM251.22 189.614C251.01 188.994 250.538 188.58 249.675 188.58C248.754 188.58 248.072 189.102 248.072 189.841C248.072 190.443 248.43 190.847 249.232 191.034L249.959 191.205C250.399 191.307 250.607 191.517 250.607 191.818C250.607 192.193 250.209 192.5 249.584 192.5C249.036 192.5 248.692 192.264 248.572 191.795L247.936 191.955C248.092 192.696 248.703 193.091 249.595 193.091C250.609 193.091 251.3 192.537 251.3 191.784C251.3 191.176 250.919 190.793 250.141 190.602L249.493 190.443C248.976 190.315 248.743 190.142 248.743 189.807C248.743 189.432 249.141 189.159 249.675 189.159C250.26 189.159 250.501 189.483 250.618 189.784L251.22 189.614ZM252.309 193H252.979V188.636H252.309V193ZM252.65 187.909C252.911 187.909 253.127 187.705 253.127 187.455C253.127 187.205 252.911 187 252.65 187C252.388 187 252.173 187.205 252.173 187.455C252.173 187.705 252.388 187.909 252.65 187.909ZM256.105 188.636H255.173V187.591H254.503V188.636H253.844V189.205H254.503V191.932C254.503 192.693 255.116 193.057 255.685 193.057C255.935 193.057 256.094 193.011 256.185 192.977L256.048 192.375C255.991 192.386 255.901 192.409 255.753 192.409C255.457 192.409 255.173 192.318 255.173 191.75V189.205H256.105V188.636ZM258.896 193.091C259.783 193.091 260.43 192.648 260.635 191.989L259.987 191.807C259.817 192.261 259.422 192.489 258.896 192.489C258.109 192.489 257.567 191.98 257.536 191.045H260.703V190.761C260.703 189.136 259.737 188.58 258.828 188.58C257.646 188.58 256.862 189.511 256.862 190.852C256.862 192.193 257.635 193.091 258.896 193.091ZM257.536 190.466C257.581 189.787 258.061 189.182 258.828 189.182C259.555 189.182 260.021 189.727 260.021 190.466H257.536ZM263.371 193.091C264.212 193.091 264.496 192.568 264.643 192.33H264.723V193H265.371V187.182H264.7V189.33H264.643C264.496 189.102 264.234 188.58 263.382 188.58C262.28 188.58 261.518 189.455 261.518 190.83C261.518 192.216 262.28 193.091 263.371 193.091ZM263.462 192.489C262.621 192.489 262.189 191.75 262.189 190.818C262.189 189.898 262.609 189.182 263.462 189.182C264.28 189.182 264.712 189.841 264.712 190.818C264.712 191.807 264.268 192.489 263.462 192.489ZM270.089 193H270.817L272.101 188.364H272.146L273.43 193H274.158L275.749 187.182H275.033L273.817 191.92H273.76L272.521 187.182H271.726L270.487 191.92H270.43L269.214 187.182H268.499L270.089 193ZM277.959 193.091C278.845 193.091 279.493 192.648 279.697 191.989L279.05 191.807C278.879 192.261 278.484 192.489 277.959 192.489C277.172 192.489 276.629 191.98 276.598 191.045H279.766V190.761C279.766 189.136 278.8 188.58 277.891 188.58C276.709 188.58 275.925 189.511 275.925 190.852C275.925 192.193 276.697 193.091 277.959 193.091ZM276.598 190.466C276.643 189.787 277.124 189.182 277.891 189.182C278.618 189.182 279.084 189.727 279.084 190.466H276.598ZM282.615 193.091C283.501 193.091 284.149 192.648 284.354 191.989L283.706 191.807C283.536 192.261 283.141 192.489 282.615 192.489C281.828 192.489 281.286 191.98 281.254 191.045H284.422V190.761C284.422 189.136 283.456 188.58 282.547 188.58C281.365 188.58 280.581 189.511 280.581 190.852C280.581 192.193 281.354 193.091 282.615 193.091ZM281.254 190.466C281.3 189.787 281.78 189.182 282.547 189.182C283.274 189.182 283.74 189.727 283.74 190.466H281.254ZM285.442 193H286.112V191.366L286.581 190.932L288.214 193H289.067L287.087 190.5L288.93 188.636H288.101L286.192 190.58H286.112V187.182H285.442V193ZM290.464 187.182H289.793V193H290.464V187.182ZM292.124 194.625C292.729 194.625 293.158 194.304 293.408 193.636L295.266 188.648L294.533 188.636L293.328 192.114H293.283L292.078 188.636H291.351L292.964 193.023L292.839 193.364C292.601 194.017 292.294 194.08 291.805 193.955L291.635 194.545C291.703 194.58 291.896 194.625 292.124 194.625Z" fill="#494C55" fill-opacity="0.67"/>
<rect x="461.25" y="123.25" width="295.5" height="80.5" rx="4.75" fill="white" stroke="url(#paint1_linear)" stroke-width="0.5"/>
<g clip-path="url(#clip0)">
<g filter="url(#filter1_i)">
<rect x="480.001" y="141" width="123.074" height="51" fill="black" fill-opacity="0.01"/>
</g>
<path d="M480.477 145.598H483.175V153H484.743V145.598H487.44V144.273H480.477V145.598ZM490.62 153.128C492.538 153.128 493.757 151.777 493.757 149.753C493.757 147.724 492.538 146.369 490.62 146.369C488.703 146.369 487.484 147.724 487.484 149.753C487.484 151.777 488.703 153.128 490.62 153.128ZM490.629 151.892C489.568 151.892 489.048 150.946 489.048 149.749C489.048 148.551 489.568 147.592 490.629 147.592C491.673 147.592 492.193 148.551 492.193 149.749C492.193 150.946 491.673 151.892 490.629 151.892ZM498.335 146.455H497.043V144.886H495.501V146.455H494.572V147.648H495.501V151.287C495.492 152.518 496.387 153.124 497.546 153.089C497.985 153.077 498.288 152.991 498.454 152.936L498.194 151.73C498.109 151.751 497.934 151.79 497.742 151.79C497.354 151.79 497.043 151.653 497.043 151.031V147.648H498.335V146.455ZM501.508 153.132C502.535 153.132 503.149 152.651 503.43 152.101H503.481V153H504.964V148.619C504.964 146.889 503.554 146.369 502.305 146.369C500.929 146.369 499.872 146.983 499.531 148.176L500.971 148.381C501.125 147.933 501.559 147.55 502.314 147.55C503.029 147.55 503.422 147.916 503.422 148.56V148.585C503.422 149.028 502.957 149.05 501.802 149.173C500.532 149.31 499.318 149.689 499.318 151.163C499.318 152.45 500.26 153.132 501.508 153.132ZM501.909 151.999C501.265 151.999 500.805 151.705 500.805 151.138C500.805 150.545 501.321 150.298 502.011 150.2C502.416 150.145 503.225 150.043 503.426 149.881V150.652C503.426 151.381 502.838 151.999 501.909 151.999ZM508.058 144.273H506.515V153H508.058V144.273ZM514.27 144.273H512.689V153H514.27V144.273ZM517.456 149.165C517.456 148.219 518.027 147.673 518.841 147.673C519.638 147.673 520.115 148.197 520.115 149.071V153H521.658V148.832C521.662 147.264 520.767 146.369 519.417 146.369C518.436 146.369 517.763 146.838 517.465 147.567H517.388V146.455H515.914V153H517.456V149.165ZM528.838 146.455H527.198L525.689 151.317H525.621L524.117 146.455H522.472L524.803 153H526.507L528.838 146.455ZM532.581 153.128C534.107 153.128 535.155 152.382 535.428 151.244L533.987 151.082C533.778 151.636 533.267 151.926 532.602 151.926C531.605 151.926 530.945 151.27 530.932 150.149H535.491V149.676C535.491 147.379 534.111 146.369 532.5 146.369C530.625 146.369 529.402 147.746 529.402 149.766C529.402 151.82 530.608 153.128 532.581 153.128ZM530.936 149.109C530.983 148.274 531.601 147.571 532.521 147.571C533.408 147.571 534.004 148.219 534.013 149.109H530.936ZM541.97 148.185C541.757 147.077 540.87 146.369 539.336 146.369C537.76 146.369 536.686 147.145 536.69 148.355C536.686 149.31 537.274 149.94 538.531 150.2L539.647 150.435C540.248 150.567 540.529 150.81 540.529 151.18C540.529 151.628 540.044 151.964 539.311 151.964C538.603 151.964 538.143 151.658 538.011 151.07L536.507 151.214C536.699 152.416 537.708 153.128 539.315 153.128C540.951 153.128 542.106 152.28 542.11 151.04C542.106 150.107 541.505 149.536 540.27 149.267L539.153 149.028C538.488 148.879 538.224 148.649 538.228 148.27C538.224 147.827 538.714 147.52 539.358 147.52C540.069 147.52 540.444 147.908 540.564 148.338L541.97 148.185ZM546.651 146.455H545.36V144.886H543.817V146.455H542.888V147.648H543.817V151.287C543.809 152.518 544.703 153.124 545.863 153.089C546.301 153.077 546.604 152.991 546.77 152.936L546.51 151.73C546.425 151.751 546.25 151.79 546.059 151.79C545.671 151.79 545.36 151.653 545.36 151.031V147.648H546.651V146.455ZM550.768 153.128C552.294 153.128 553.342 152.382 553.615 151.244L552.175 151.082C551.966 151.636 551.455 151.926 550.79 151.926C549.793 151.926 549.132 151.27 549.119 150.149H553.679V149.676C553.679 147.379 552.298 146.369 550.688 146.369C548.812 146.369 547.589 147.746 547.589 149.766C547.589 151.82 548.795 153.128 550.768 153.128ZM549.124 149.109C549.17 148.274 549.788 147.571 550.709 147.571C551.595 147.571 552.192 148.219 552.2 149.109H549.124ZM557.413 153.115C558.538 153.115 559.045 152.446 559.288 151.969H559.382V153H560.899V144.273H559.352V147.537H559.288C559.054 147.064 558.572 146.369 557.417 146.369C555.904 146.369 554.716 147.554 554.716 149.736C554.716 151.892 555.87 153.115 557.413 153.115ZM557.843 151.849C556.825 151.849 556.288 150.955 556.288 149.727C556.288 148.509 556.816 147.635 557.843 147.635C558.836 147.635 559.382 148.457 559.382 149.727C559.382 150.997 558.828 151.849 557.843 151.849Z" fill="black"/>
<path d="M488.343 183.268H489.48L489.485 182.039C491.786 181.873 493.106 180.607 493.111 178.81C493.106 176.906 491.534 176.037 489.882 175.645L489.528 175.554L489.55 172.491C490.408 172.641 490.96 173.156 491.046 173.929H492.961C492.929 172.223 491.588 170.979 489.56 170.786L489.566 169.536H488.429L488.423 170.786C486.412 170.989 484.963 172.223 484.969 173.999C484.969 175.576 486.09 176.482 487.897 176.949L488.38 177.072L488.359 180.317C487.399 180.167 486.707 179.62 486.637 178.649H484.679C484.754 180.661 486.138 181.857 488.348 182.039L488.343 183.268ZM489.496 180.317L489.517 177.373C490.494 177.657 491.116 178.032 491.121 178.794C491.116 179.588 490.478 180.157 489.496 180.317ZM488.391 175.265C487.651 175.029 486.975 174.637 486.986 173.875C486.991 173.183 487.511 172.647 488.412 172.491L488.391 175.265ZM498.721 182.045C501.07 182.045 502.781 180.698 502.776 178.842C502.781 177.469 501.923 176.482 500.384 176.262V176.176C501.575 175.919 502.374 175.034 502.368 173.8C502.374 172.127 500.947 170.759 498.753 170.759C496.618 170.759 494.966 172.03 494.923 173.87H496.838C496.87 172.947 497.729 172.373 498.742 172.373C499.767 172.373 500.448 172.996 500.443 173.918C500.448 174.878 499.654 175.517 498.517 175.517H497.546V177.051H498.517C499.906 177.051 500.732 177.748 500.727 178.74C500.732 179.711 499.89 180.376 498.716 180.376C497.611 180.376 496.758 179.803 496.709 178.907H494.692C494.746 180.763 496.404 182.045 498.721 182.045ZM506.402 180.393H504.686L504.648 180.993C504.557 182.447 504.176 183.928 504.021 184.577H505.329C505.587 183.901 506.182 182.334 506.333 180.983L506.402 180.393ZM511.829 170.909H509.936L507.206 172.663V174.487L509.775 172.845H509.839V181.895H511.829V170.909ZM515.021 181.895H517.086L521.753 172.609V170.909H514.27V172.572H519.693V172.647L515.021 181.895ZM527.156 182.045C529.479 182.045 531.098 180.468 531.098 178.285C531.098 176.171 529.629 174.648 527.633 174.648C526.743 174.648 525.954 175.002 525.547 175.484H525.482L525.799 172.572H530.525V170.909H524.152L523.578 176.573L525.375 176.868C525.745 176.461 526.442 176.187 527.102 176.193C528.309 176.198 529.178 177.088 529.173 178.333C529.178 179.561 528.331 180.436 527.156 180.436C526.164 180.436 525.364 179.808 525.295 178.907H523.363C523.417 180.731 525.01 182.045 527.156 182.045Z" fill="#222429"/>
</g>
<g clip-path="url(#clip1)">
<g filter="url(#filter2_i)">
<rect x="615.538" y="141" width="123.074" height="51" fill="black" fill-opacity="0.01"/>
</g>
<path d="M624.331 147.217C624.062 145.278 622.571 144.153 620.636 144.153C618.357 144.153 616.639 145.815 616.639 148.636C616.639 151.453 618.335 153.119 620.636 153.119C622.712 153.119 624.088 151.777 624.331 150.111L622.737 150.102C622.537 151.125 621.702 151.7 620.658 151.7C619.243 151.7 618.229 150.639 618.229 148.636C618.229 146.668 619.234 145.572 620.662 145.572C621.723 145.572 622.554 146.173 622.737 147.217H624.331ZM629.882 150.247C629.882 151.244 629.171 151.739 628.489 151.739C627.748 151.739 627.253 151.214 627.253 150.384V146.455H625.711V150.622C625.711 152.195 626.605 153.085 627.892 153.085C628.873 153.085 629.563 152.57 629.861 151.837H629.929V153H631.425V146.455H629.882V150.247ZM633.011 153H634.554V149.152C634.554 148.321 635.18 147.733 636.028 147.733C636.288 147.733 636.612 147.78 636.744 147.822V146.403C636.604 146.378 636.361 146.361 636.19 146.361C635.44 146.361 634.814 146.787 634.575 147.545H634.507V146.455H633.011V153ZM637.769 153H639.312V149.152C639.312 148.321 639.938 147.733 640.786 147.733C641.046 147.733 641.37 147.78 641.502 147.822V146.403C641.362 146.378 641.119 146.361 640.948 146.361C640.198 146.361 639.572 146.787 639.333 147.545H639.265V146.455H637.769V153ZM645.155 153.128C646.681 153.128 647.729 152.382 648.002 151.244L646.561 151.082C646.353 151.636 645.841 151.926 645.176 151.926C644.179 151.926 643.519 151.27 643.506 150.149H648.066V149.676C648.066 147.379 646.685 146.369 645.074 146.369C643.199 146.369 641.976 147.746 641.976 149.766C641.976 151.82 643.182 153.128 645.155 153.128ZM643.51 149.109C643.557 148.274 644.175 147.571 645.096 147.571C645.982 147.571 646.578 148.219 646.587 149.109H643.51ZM650.913 149.165C650.913 148.219 651.484 147.673 652.298 147.673C653.095 147.673 653.572 148.197 653.572 149.071V153H655.115V148.832C655.119 147.264 654.224 146.369 652.874 146.369C651.893 146.369 651.22 146.838 650.922 147.567H650.845V146.455H649.371V153H650.913V149.165ZM659.952 146.455H658.661V144.886H657.118V146.455H656.189V147.648H657.118V151.287C657.109 152.518 658.004 153.124 659.163 153.089C659.602 153.077 659.905 152.991 660.071 152.936L659.811 151.73C659.726 151.751 659.551 151.79 659.359 151.79C658.972 151.79 658.661 151.653 658.661 151.031V147.648H659.952V146.455ZM665.454 144.273H663.72L666.792 153H668.744L671.821 144.273H670.082L667.815 151.142H667.725L665.454 144.273ZM674.094 153.132C675.121 153.132 675.735 152.651 676.016 152.101H676.067V153H677.55V148.619C677.55 146.889 676.14 146.369 674.891 146.369C673.515 146.369 672.458 146.983 672.117 148.176L673.557 148.381C673.711 147.933 674.145 147.55 674.9 147.55C675.615 147.55 676.007 147.916 676.007 148.56V148.585C676.007 149.028 675.543 149.05 674.388 149.173C673.118 149.31 671.904 149.689 671.904 151.163C671.904 152.45 672.846 153.132 674.094 153.132ZM674.495 151.999C673.851 151.999 673.391 151.705 673.391 151.138C673.391 150.545 673.907 150.298 674.597 150.2C675.002 150.145 675.811 150.043 676.012 149.881V150.652C676.012 151.381 675.424 151.999 674.495 151.999ZM680.644 144.273H679.101V153H680.644V144.273ZM686.402 150.247C686.402 151.244 685.69 151.739 685.009 151.739C684.267 151.739 683.773 151.214 683.773 150.384V146.455H682.23V150.622C682.23 152.195 683.125 153.085 684.412 153.085C685.392 153.085 686.082 152.57 686.381 151.837H686.449V153H687.945V146.455H686.402V150.247ZM692.429 153.128C693.954 153.128 695.002 152.382 695.275 151.244L693.835 151.082C693.626 151.636 693.115 151.926 692.45 151.926C691.453 151.926 690.792 151.27 690.779 150.149H695.339V149.676C695.339 147.379 693.958 146.369 692.348 146.369C690.473 146.369 689.25 147.746 689.25 149.766C689.25 151.82 690.456 153.128 692.429 153.128ZM690.784 149.109C690.831 148.274 691.449 147.571 692.369 147.571C693.255 147.571 693.852 148.219 693.86 149.109H690.784Z" fill="#881DEB"/>
<path d="M623.394 184.562H624.531L624.536 183.334C626.837 183.168 628.157 181.902 628.162 180.105C628.157 178.201 626.585 177.332 624.933 176.94L624.579 176.849L624.601 173.786C625.459 173.936 626.011 174.451 626.097 175.224H628.012C627.98 173.518 626.639 172.273 624.611 172.08L624.617 170.83H623.48L623.474 172.08C621.463 172.284 620.014 173.518 620.02 175.293C620.02 176.87 621.141 177.777 622.949 178.244L623.431 178.367L623.41 181.612C622.45 181.462 621.758 180.915 621.688 179.944H619.73C619.805 181.956 621.189 183.152 623.399 183.334L623.394 184.562ZM624.547 181.612L624.568 178.667C625.545 178.952 626.167 179.327 626.172 180.089C626.167 180.883 625.529 181.451 624.547 181.612ZM623.442 176.559C622.702 176.323 622.026 175.932 622.037 175.17C622.042 174.478 622.562 173.942 623.463 173.786L623.442 176.559ZM633.649 183.339C635.971 183.339 637.591 181.762 637.591 179.579C637.591 177.466 636.121 175.942 634.126 175.942C633.235 175.942 632.447 176.296 632.039 176.779H631.975L632.291 173.866H637.017V172.204H630.645L630.071 177.868L631.868 178.163C632.238 177.755 632.935 177.482 633.595 177.487C634.802 177.493 635.671 178.383 635.665 179.628C635.671 180.856 634.823 181.73 633.649 181.73C632.656 181.73 631.857 181.103 631.787 180.201H629.856C629.91 182.025 631.503 183.339 633.649 183.339ZM641.173 181.687H639.456L639.419 182.288C639.328 183.742 638.947 185.222 638.791 185.871H640.1C640.358 185.195 640.953 183.629 641.103 182.277L641.173 181.687ZM643.327 183.189H650.858V181.526H646.073V181.451L647.967 179.526C650.102 177.477 650.692 176.479 650.692 175.24C650.692 173.4 649.195 172.053 646.985 172.053C644.807 172.053 643.262 173.405 643.262 175.492H645.156C645.156 174.371 645.864 173.668 646.958 173.668C648.004 173.668 648.782 174.306 648.782 175.342C648.782 176.259 648.224 176.913 647.141 178.013L643.327 181.752V183.189ZM656.769 183.398C659.419 183.404 661.001 181.312 661.001 177.707C661.001 174.124 659.408 172.053 656.769 172.053C654.13 172.053 652.542 174.119 652.537 177.707C652.537 181.306 654.119 183.398 656.769 183.398ZM656.769 181.72C655.401 181.72 654.543 180.346 654.548 177.707C654.554 175.09 655.407 173.711 656.769 173.711C658.137 173.711 658.99 175.09 658.995 177.707C658.995 180.346 658.142 181.72 656.769 181.72ZM666.603 183.339C668.925 183.339 670.545 181.762 670.545 179.579C670.545 177.466 669.076 175.942 667.08 175.942C666.19 175.942 665.401 176.296 664.994 176.779H664.929L665.246 173.866H669.971V172.204H663.599L663.025 177.868L664.822 178.163C665.192 177.755 665.889 177.482 666.549 177.487C667.756 177.493 668.625 178.383 668.62 179.628C668.625 180.856 667.778 181.73 666.603 181.73C665.61 181.73 664.811 181.103 664.741 180.201H662.81C662.864 182.025 664.457 183.339 666.603 183.339Z" fill="#222429"/>
</g>
<g clip-path="url(#clip2)">
<rect x="69" y="239" width="735.992" height="273" rx="2.27419" fill="white"/>
<mask id="mask0" mask-type="alpha" maskUnits="userSpaceOnUse" x="69" y="239" width="736" height="273">
<rect x="69" y="239" width="735.992" height="273" rx="10" fill="white"/>
</mask>
<g mask="url(#mask0)">
<path d="M69 482.42L74.8412 481.69L80.6824 481.151L86.5236 480.308L92.3648 480.532L98.206 479.698L104.047 477.935L109.888 477.578L115.73 476.006L121.571 476.079L127.412 476.308L133.253 475.391L139.094 475.866L144.936 474.996L150.777 473.259L156.618 472.186L162.459 471.004L168.3 470.103L174.142 470.047L179.983 469.451L185.824 469.588L191.665 468.581L197.507 468.552L203.348 468.065L209.189 467.589L215.03 466.68L220.871 465.635L226.713 465.213L232.554 463.572L238.395 462.119L244.236 462.416L250.077 462.289L255.919 461.394L261.76 460.497L267.601 459.227L273.442 459.393L279.283 458.396L285.125 457.425L290.966 456.806L296.807 456.098L302.648 455.788L308.489 454.796L314.331 454.064L320.172 453.308L326.013 452.647L331.854 452.794L337.695 455.655L343.537 454.328L349.378 456.231L355.219 457.19L361.06 452.763L366.901 452.584L372.743 450.795L378.584 452.707L384.425 451.82L390.266 451.075L396.107 450.967L401.949 449.079L407.79 448.452L413.631 447.167L419.472 446.192L425.314 444.77L431.155 443.697L436.996 442.929L442.837 441.493L448.678 434.588L454.52 433.993L460.361 432.392L466.202 432.557L472.043 428.45L477.884 420.555L483.726 411.688L489.567 407.769L495.408 406.958L501.249 413.296L507.09 403.839L512.932 391.572L518.773 391.936L524.614 386.034L530.455 395.175L536.296 390.584L542.138 397.897L547.979 386.043L553.82 381.301L559.661 389.739L565.502 390.819L571.344 392.649L577.185 386.976L583.026 386.982L588.867 388.149L594.708 402.551L600.55 403.416L606.391 399.356L612.232 399.138L618.073 387.884L623.914 390.08L629.756 390.724L635.597 394.347L641.438 406.268L647.279 401.783L653.121 400.097L658.962 402.638L664.803 398.914L670.644 398.975L676.485 398.627L682.327 391.208L688.168 385.985L694.009 386.321L699.85 379.466L705.691 372.083L711.533 372.703L717.374 372.046L723.215 382.968L729.056 386.498L734.897 405.1L740.739 396.613L746.58 394.964L752.421 380.927L758.262 377.527L764.103 374.446L769.945 365.394L775.786 346.633L781.627 348.157L787.468 333.213L793.309 346.704L799.151 334.856L804.992 329.644" stroke="#BE6CFF" stroke-width="1.10502" stroke-miterlimit="10"/>
<path d="M69 482.42L74.8412 481.69L80.6824 481.151L86.5236 480.308L92.3648 480.532L98.206 479.698L104.047 477.935L109.888 477.578L115.73 476.006L121.571 476.079L127.412 476.308L133.253 475.391L139.094 475.866L144.936 474.996L150.777 473.259L156.618 472.186L162.459 471.004L168.3 470.103L174.142 470.047L179.983 469.451L185.824 469.588L191.665 468.581L197.507 468.552L203.348 468.065L209.189 467.589L215.03 466.68L220.871 465.635L226.713 465.213L232.554 463.572L238.395 462.119L244.236 462.416L250.077 462.289L255.919 461.394L261.76 460.497L267.601 459.227L273.442 459.393L279.283 458.396L285.125 457.425L290.966 456.806L296.807 456.098L302.648 455.788L308.489 454.796L314.331 454.064L320.172 453.308L326.013 452.647L331.854 452.794L337.695 455.655L343.537 454.328L349.378 456.231L355.219 457.19L361.06 452.763L366.901 452.584L372.743 450.795L378.584 452.707L384.425 451.82L390.266 451.075L396.108 450.967L401.949 449.079L407.79 448.452L413.631 447.167L419.472 446.192L425.314 444.77L431.155 443.697L436.996 442.929L442.837 441.493L448.678 434.588L454.52 433.993L460.361 432.392L466.202 432.557L472.043 428.45L477.884 420.555L483.726 411.688L489.567 407.769L495.408 406.958L501.249 413.296L507.09 403.839L512.932 391.572L518.773 391.936L524.614 386.034L530.455 395.175L536.296 390.584L542.138 397.897L547.979 386.043L553.82 381.301L559.661 389.739L565.502 390.819L571.344 392.649L577.185 386.976L583.026 386.982L588.867 388.149L594.708 402.551L600.55 403.416L606.391 399.356L612.232 399.138L618.073 387.884L623.914 390.08L629.756 390.724L635.597 394.347L641.438 406.268L647.279 401.783L653.121 400.097L658.962 402.638L664.803 398.914L670.644 398.975L676.485 398.627L682.327 391.208L688.168 385.985L694.009 386.321L699.85 379.466L705.691 372.083L711.533 372.703L717.374 372.046L723.215 382.968L729.056 386.498L734.897 405.1L740.739 396.613L746.58 394.964L752.421 380.927L758.262 377.527L764.103 374.446L769.945 365.394L775.786 346.633L781.627 348.157L787.468 333.213L793.309 346.704L799.151 334.856L804.992 329.644V483.158H799.151H793.309H787.468H781.627H775.786H769.945H764.103H758.262H752.421H746.58H740.739H734.897H729.056H723.215H717.374H711.533H705.691H699.85H694.009H688.168H682.327H676.485H670.644H664.803H658.962H653.121H647.279H641.438H635.597H629.756H623.914H618.073H612.232H606.391H600.55H594.708H588.867H583.026H577.185H571.344H565.502H559.661H553.82H547.979H542.138H536.296H530.455H524.614H518.773H512.932H507.09H501.249H495.408H489.567H483.726H477.884H472.043H466.202H460.361H454.52H448.678H442.837H436.996H431.155H425.314H419.472H413.631H407.79H401.949H396.108H390.266H384.425H378.584H372.743H366.901H361.06H355.219H349.378H343.537H337.695H331.854H326.013H320.172H314.331H308.489H302.648H296.807H290.966H285.125H279.283H273.442H267.601H261.76H255.919H250.077H244.236H238.395H232.554H226.713H220.871H215.03H209.189H203.348H197.507H191.665H185.824H179.983H174.142H168.3H162.459H156.618H150.777H144.936H139.094H133.253H127.412H121.571H115.73H109.888H104.047H98.206H92.3648H86.5236H80.6824H74.8412H69V482.42Z" fill="url(#paint2_linear)" fill-opacity="0.301961"/>
</g>
<path d="M86.8301 492.301V496.322C86.8301 497.023 86.495 497.399 85.9072 497.399C85.3715 497.399 84.9842 497.086 84.9842 496.608H84.314C84.314 497.473 84.9842 498.003 85.9072 498.003C86.885 498.003 87.5113 497.402 87.5113 496.322V492.301H86.8301ZM90.0302 498.025C90.7663 498.025 91.1509 497.63 91.2827 497.355H91.3157V497.926H91.964V495.147C91.964 493.806 90.9421 493.652 90.4037 493.652C89.7665 493.652 89.0413 493.872 88.7117 494.641L89.327 494.861C89.4698 494.553 89.8077 494.224 90.4257 494.224C91.0218 494.224 91.3157 494.54 91.3157 495.081V495.103C91.3157 495.416 90.9971 495.388 90.2279 495.487C89.4451 495.589 88.5908 495.762 88.5908 496.729C88.5908 497.553 89.2281 498.025 90.0302 498.025ZM90.1291 497.443C89.6127 497.443 89.2391 497.212 89.2391 496.762C89.2391 496.267 89.6896 496.113 90.195 496.048C90.4697 496.015 91.2058 495.938 91.3157 495.806V496.399C91.3157 496.927 90.8982 497.443 90.1291 497.443ZM93.7954 495.388C93.7954 494.652 94.2514 494.235 94.8722 494.235C95.4737 494.235 95.8391 494.627 95.8391 495.289V497.926H96.4873V495.245C96.4873 494.169 95.9132 493.652 95.059 493.652C94.4217 493.652 94.0261 493.938 93.8284 494.366H93.7734V493.707H93.1472V497.926H93.7954V495.388ZM99.8364 497.926H103.385V497.322H100.77V497.278L102.034 495.927C103.001 494.891 103.286 494.408 103.286 493.784C103.286 492.916 102.583 492.224 101.594 492.224C100.608 492.224 99.8584 492.894 99.8584 493.883H100.507C100.507 493.243 100.921 492.817 101.572 492.817C102.182 492.817 102.649 493.191 102.649 493.784C102.649 494.303 102.344 494.688 101.693 495.399L99.8364 497.432V497.926ZM106.355 498.003C107.596 498.003 108.31 496.951 108.31 495.114C108.31 493.29 107.585 492.224 106.355 492.224C105.124 492.224 104.399 493.29 104.399 495.114C104.399 496.951 105.113 498.003 106.355 498.003ZM106.355 497.399C105.536 497.399 105.058 496.578 105.058 495.114C105.058 493.652 105.542 492.817 106.355 492.817C107.168 492.817 107.651 493.652 107.651 495.114C107.651 496.578 107.173 497.399 106.355 497.399ZM111.332 492.301H110.651L109.244 493.235V493.927L110.618 493.015H110.651V497.926H111.332V492.301ZM114.752 498.003C115.875 498.003 116.658 497.347 116.664 496.432C116.658 495.721 116.183 495.116 115.576 495.004V494.971C116.103 494.833 116.449 494.317 116.455 493.718C116.449 492.861 115.73 492.224 114.752 492.224C113.763 492.224 113.043 492.861 113.049 493.718C113.043 494.317 113.389 494.833 113.928 494.971V495.004C113.31 495.116 112.834 495.721 112.84 496.432C112.834 497.347 113.617 498.003 114.752 498.003ZM114.752 497.399C113.98 497.399 113.505 497.003 113.51 496.399C113.505 495.765 114.029 495.311 114.752 495.311C115.463 495.311 115.988 495.765 115.993 496.399C115.988 497.003 115.513 497.399 114.752 497.399ZM114.752 494.729C114.136 494.729 113.702 494.345 113.708 493.762C113.702 493.191 114.12 492.817 114.752 492.817C115.373 492.817 115.79 493.191 115.796 493.762C115.79 494.345 115.356 494.729 114.752 494.729Z" fill="#494C55"/>
<path d="M224.111 492.301V496.322C224.111 497.023 223.776 497.399 223.188 497.399C222.653 497.399 222.265 497.086 222.265 496.608H221.595C221.595 497.473 222.265 498.003 223.188 498.003C224.166 498.003 224.792 497.402 224.792 496.322V492.301H224.111ZM228.729 496.201C228.729 496.992 228.124 497.355 227.641 497.355C227.102 497.355 226.718 496.96 226.718 496.344V493.707H226.07V496.388C226.07 497.465 226.641 497.981 227.432 497.981C228.069 497.981 228.487 497.641 228.685 497.212H228.729V497.926H229.377V493.707H228.729V496.201ZM231.212 495.388C231.212 494.652 231.668 494.235 232.289 494.235C232.891 494.235 233.256 494.627 233.256 495.289V497.926H233.904V495.245C233.904 494.169 233.33 493.652 232.476 493.652C231.839 493.652 231.443 493.938 231.245 494.366H231.19V493.707H230.564V497.926H231.212V495.388ZM236.858 498.014C237.715 498.014 238.341 497.586 238.539 496.949L237.913 496.773C237.748 497.212 237.366 497.432 236.858 497.432C236.097 497.432 235.572 496.94 235.542 496.037H238.605V495.762C238.605 494.191 237.671 493.652 236.792 493.652C235.649 493.652 234.891 494.553 234.891 495.85C234.891 497.146 235.638 498.014 236.858 498.014ZM235.542 495.476C235.586 494.82 236.05 494.235 236.792 494.235C237.495 494.235 237.946 494.762 237.946 495.476H235.542ZM241.755 497.926H245.304V497.322H242.689V497.278L243.953 495.927C244.92 494.891 245.205 494.408 245.205 493.784C245.205 492.916 244.502 492.224 243.513 492.224C242.527 492.224 241.777 492.894 241.777 493.883H242.426C242.426 493.243 242.84 492.817 243.491 492.817C244.101 492.817 244.568 493.191 244.568 493.784C244.568 494.303 244.263 494.688 243.612 495.399L241.755 497.432V497.926ZM248.274 498.003C249.515 498.003 250.229 496.951 250.229 495.114C250.229 493.29 249.504 492.224 248.274 492.224C247.043 492.224 246.318 493.29 246.318 495.114C246.318 496.951 247.032 498.003 248.274 498.003ZM248.274 497.399C247.455 497.399 246.977 496.578 246.977 495.114C246.977 493.652 247.461 492.817 248.274 492.817C249.087 492.817 249.57 493.652 249.57 495.114C249.57 496.578 249.092 497.399 248.274 497.399ZM253.251 492.301H252.57L251.163 493.235V493.927L252.537 493.015H252.57V497.926H253.251V492.301ZM256.671 498.003C257.794 498.003 258.577 497.347 258.583 496.432C258.577 495.721 258.102 495.116 257.495 495.004V494.971C258.022 494.833 258.368 494.317 258.374 493.718C258.368 492.861 257.649 492.224 256.671 492.224C255.682 492.224 254.962 492.861 254.968 493.718C254.962 494.317 255.308 494.833 255.847 494.971V495.004C255.229 495.116 254.754 495.721 254.759 496.432C254.754 497.347 255.536 498.003 256.671 498.003ZM256.671 497.399C255.899 497.399 255.424 497.003 255.429 496.399C255.424 495.765 255.948 495.311 256.671 495.311C257.382 495.311 257.907 495.765 257.912 496.399C257.907 497.003 257.432 497.399 256.671 497.399ZM256.671 494.729C256.056 494.729 255.622 494.345 255.627 493.762C255.622 493.191 256.039 492.817 256.671 492.817C257.292 492.817 257.709 493.191 257.715 493.762C257.709 494.345 257.275 494.729 256.671 494.729Z" fill="#494C55"/>
<path d="M356.773 492.301V496.322C356.773 497.023 356.438 497.399 355.85 497.399C355.315 497.399 354.927 497.086 354.927 496.608H354.257C354.257 497.473 354.927 498.003 355.85 498.003C356.828 498.003 357.455 497.402 357.455 496.322V492.301H356.773ZM359.973 498.025C360.71 498.025 361.094 497.63 361.226 497.355H361.259V497.926H361.907V495.147C361.907 493.806 360.885 493.652 360.347 493.652C359.71 493.652 358.985 493.872 358.655 494.641L359.27 494.861C359.413 494.553 359.751 494.224 360.369 494.224C360.965 494.224 361.259 494.54 361.259 495.081V495.103C361.259 495.416 360.94 495.388 360.171 495.487C359.388 495.589 358.534 495.762 358.534 496.729C358.534 497.553 359.171 498.025 359.973 498.025ZM360.072 497.443C359.556 497.443 359.182 497.212 359.182 496.762C359.182 496.267 359.633 496.113 360.138 496.048C360.413 496.015 361.149 495.938 361.259 495.806V496.399C361.259 496.927 360.841 497.443 360.072 497.443ZM363.739 495.388C363.739 494.652 364.195 494.235 364.815 494.235C365.417 494.235 365.782 494.627 365.782 495.289V497.926H366.431V495.245C366.431 494.169 365.856 493.652 365.002 493.652C364.365 493.652 363.969 493.938 363.772 494.366H363.717V493.707H363.09V497.926H363.739V495.388ZM369.78 497.926H373.329V497.322H370.714V497.278L371.977 495.927C372.944 494.891 373.23 494.408 373.23 493.784C373.23 492.916 372.526 492.224 371.538 492.224C370.552 492.224 369.802 492.894 369.802 493.883H370.45C370.45 493.243 370.865 492.817 371.516 492.817C372.125 492.817 372.592 493.191 372.592 493.784C372.592 494.303 372.288 494.688 371.637 495.399L369.78 497.432V497.926ZM376.298 498.003C377.539 498.003 378.254 496.951 378.254 495.114C378.254 493.29 377.528 492.224 376.298 492.224C375.067 492.224 374.342 493.29 374.342 495.114C374.342 496.951 375.056 498.003 376.298 498.003ZM376.298 497.399C375.479 497.399 375.001 496.578 375.001 495.114C375.001 493.652 375.485 492.817 376.298 492.817C377.111 492.817 377.594 493.652 377.594 495.114C377.594 496.578 377.116 497.399 376.298 497.399ZM381.275 492.301H380.594L379.188 493.235V493.927L380.561 493.015H380.594V497.926H381.275V492.301ZM384.684 492.213C383.541 492.202 382.805 493.059 382.805 494.103C382.805 495.191 383.607 495.971 384.574 495.971C385.156 495.971 385.651 495.685 385.959 495.223H386.002C386.002 496.608 385.464 497.399 384.596 497.399C384.003 497.399 383.64 497.025 383.519 496.509H382.849C382.981 497.399 383.651 498.003 384.596 498.003C385.86 498.003 386.64 496.883 386.64 494.883C386.64 492.806 385.607 492.224 384.684 492.213ZM384.684 492.817C385.387 492.817 385.904 493.422 385.904 494.092C385.904 494.762 385.354 495.366 384.662 495.366C383.97 495.366 383.464 494.806 383.464 494.103C383.464 493.389 383.992 492.817 384.684 492.817Z" fill="#494C55"/>
<path d="M490.588 492.301V496.322C490.588 497.023 490.253 497.399 489.665 497.399C489.13 497.399 488.742 497.086 488.742 496.608H488.072C488.072 497.473 488.742 498.003 489.665 498.003C490.643 498.003 491.269 497.402 491.269 496.322V492.301H490.588ZM495.206 496.201C495.206 496.992 494.601 497.355 494.118 497.355C493.579 497.355 493.195 496.96 493.195 496.344V493.707H492.547V496.388C492.547 497.465 493.118 497.981 493.909 497.981C494.546 497.981 494.964 497.641 495.162 497.212H495.206V497.926H495.854V493.707H495.206V496.201ZM497.689 495.388C497.689 494.652 498.145 494.235 498.766 494.235C499.368 494.235 499.733 494.627 499.733 495.289V497.926H500.381V495.245C500.381 494.169 499.807 493.652 498.953 493.652C498.316 493.652 497.92 493.938 497.722 494.366H497.667V493.707H497.041V497.926H497.689V495.388ZM503.335 498.014C504.192 498.014 504.818 497.586 505.016 496.949L504.39 496.773C504.225 497.212 503.843 497.432 503.335 497.432C502.574 497.432 502.049 496.94 502.019 496.037H505.082V495.762C505.082 494.191 504.148 493.652 503.269 493.652C502.126 493.652 501.368 494.553 501.368 495.85C501.368 497.146 502.115 498.014 503.335 498.014ZM502.019 495.476C502.063 494.82 502.527 494.235 503.269 494.235C503.972 494.235 504.423 494.762 504.423 495.476H502.019ZM508.233 497.926H511.781V497.322H509.166V497.278L510.43 495.927C511.397 494.891 511.683 494.408 511.683 493.784C511.683 492.916 510.979 492.224 509.99 492.224C509.004 492.224 508.254 492.894 508.254 493.883H508.903C508.903 493.243 509.318 492.817 509.969 492.817C510.578 492.817 511.045 493.191 511.045 493.784C511.045 494.303 510.74 494.688 510.089 495.399L508.233 497.432V497.926ZM514.751 498.003C515.992 498.003 516.707 496.951 516.707 495.114C516.707 493.29 515.981 492.224 514.751 492.224C513.52 492.224 512.795 493.29 512.795 495.114C512.795 496.951 513.509 498.003 514.751 498.003ZM514.751 497.399C513.932 497.399 513.454 496.578 513.454 495.114C513.454 493.652 513.938 492.817 514.751 492.817C515.564 492.817 516.047 493.652 516.047 495.114C516.047 496.578 515.569 497.399 514.751 497.399ZM519.728 492.301H519.047L517.64 493.235V493.927L519.014 493.015H519.047V497.926H519.728V492.301ZM523.137 492.213C521.994 492.202 521.258 493.059 521.258 494.103C521.258 495.191 522.06 495.971 523.027 495.971C523.609 495.971 524.104 495.685 524.411 495.223H524.455C524.455 496.608 523.917 497.399 523.049 497.399C522.456 497.399 522.093 497.025 521.972 496.509H521.302C521.434 497.399 522.104 498.003 523.049 498.003C524.313 498.003 525.093 496.883 525.093 494.883C525.093 492.806 524.06 492.224 523.137 492.213ZM523.137 492.817C523.84 492.817 524.356 493.422 524.356 494.092C524.356 494.762 523.807 495.366 523.115 495.366C522.423 495.366 521.917 494.806 521.917 494.103C521.917 493.389 522.445 492.817 523.137 492.817Z" fill="#494C55"/>
<path d="M624.407 492.301V496.322C624.407 497.023 624.072 497.399 623.484 497.399C622.949 497.399 622.561 497.086 622.561 496.608H621.891C621.891 497.473 622.561 498.003 623.484 498.003C624.462 498.003 625.088 497.402 625.088 496.322V492.301H624.407ZM627.607 498.025C628.343 498.025 628.728 497.63 628.86 497.355H628.893V497.926H629.541V495.147C629.541 493.806 628.519 493.652 627.981 493.652C627.344 493.652 626.618 493.872 626.289 494.641L626.904 494.861C627.047 494.553 627.385 494.224 628.003 494.224C628.599 494.224 628.893 494.54 628.893 495.081V495.103C628.893 495.416 628.574 495.388 627.805 495.487C627.022 495.589 626.168 495.762 626.168 496.729C626.168 497.553 626.805 498.025 627.607 498.025ZM627.706 497.443C627.19 497.443 626.816 497.212 626.816 496.762C626.816 496.267 627.267 496.113 627.772 496.048C628.047 496.015 628.783 495.938 628.893 495.806V496.399C628.893 496.927 628.475 497.443 627.706 497.443ZM631.373 495.388C631.373 494.652 631.829 494.235 632.449 494.235C633.051 494.235 633.416 494.627 633.416 495.289V497.926H634.064V495.245C634.064 494.169 633.49 493.652 632.636 493.652C631.999 493.652 631.603 493.938 631.406 494.366H631.351V493.707H630.724V497.926H631.373V495.388ZM637.414 497.926H640.962V497.322H638.347V497.278L639.611 495.927C640.578 494.891 640.864 494.408 640.864 493.784C640.864 492.916 640.16 492.224 639.172 492.224C638.185 492.224 637.436 492.894 637.436 493.883H638.084C638.084 493.243 638.499 492.817 639.15 492.817C639.759 492.817 640.226 493.191 640.226 493.784C640.226 494.303 639.921 494.688 639.27 495.399L637.414 497.432V497.926ZM643.932 498.003C645.173 498.003 645.888 496.951 645.888 495.114C645.888 493.29 645.162 492.224 643.932 492.224C642.701 492.224 641.976 493.29 641.976 495.114C641.976 496.951 642.69 498.003 643.932 498.003ZM643.932 497.399C643.113 497.399 642.635 496.578 642.635 495.114C642.635 493.652 643.119 492.817 643.932 492.817C644.745 492.817 645.228 493.652 645.228 495.114C645.228 496.578 644.75 497.399 643.932 497.399ZM646.931 497.926H650.48V497.322H647.865V497.278L649.129 495.927C650.096 494.891 650.381 494.408 650.381 493.784C650.381 492.916 649.678 492.224 648.689 492.224C647.703 492.224 646.953 492.894 646.953 493.883H647.602C647.602 493.243 648.016 492.817 648.667 492.817C649.277 492.817 649.744 493.191 649.744 493.784C649.744 494.303 649.439 494.688 648.788 495.399L646.931 497.432V497.926ZM653.45 498.003C654.691 498.003 655.405 496.951 655.405 495.114C655.405 493.29 654.68 492.224 653.45 492.224C652.219 492.224 651.494 493.29 651.494 495.114C651.494 496.951 652.208 498.003 653.45 498.003ZM653.45 497.399C652.631 497.399 652.153 496.578 652.153 495.114C652.153 493.652 652.637 492.817 653.45 492.817C654.263 492.817 654.746 493.652 654.746 495.114C654.746 496.578 654.268 497.399 653.45 497.399Z" fill="#494C55"/>
<path d="M758.222 492.301V496.322C758.222 497.023 757.887 497.399 757.299 497.399C756.764 497.399 756.376 497.086 756.376 496.608H755.706C755.706 497.473 756.376 498.003 757.299 498.003C758.277 498.003 758.903 497.402 758.903 496.322V492.301H758.222ZM762.84 496.201C762.84 496.992 762.235 497.355 761.752 497.355C761.214 497.355 760.829 496.96 760.829 496.344V493.707H760.181V496.388C760.181 497.465 760.752 497.981 761.543 497.981C762.18 497.981 762.598 497.641 762.796 497.212H762.84V497.926H763.488V493.707H762.84V496.201ZM765.323 495.388C765.323 494.652 765.779 494.235 766.4 494.235C767.002 494.235 767.367 494.627 767.367 495.289V497.926H768.015V495.245C768.015 494.169 767.441 493.652 766.587 493.652C765.95 493.652 765.554 493.938 765.356 494.366H765.301V493.707H764.675V497.926H765.323V495.388ZM770.969 498.014C771.826 498.014 772.452 497.586 772.65 496.949L772.024 496.773C771.859 497.212 771.477 497.432 770.969 497.432C770.208 497.432 769.683 496.94 769.653 496.037H772.716V495.762C772.716 494.191 771.782 493.652 770.903 493.652C769.76 493.652 769.002 494.553 769.002 495.85C769.002 497.146 769.749 498.014 770.969 498.014ZM769.653 495.476C769.697 494.82 770.161 494.235 770.903 494.235C771.606 494.235 772.057 494.762 772.057 495.476H769.653ZM775.867 497.926H779.415V497.322H776.8V497.278L778.064 495.927C779.031 494.891 779.317 494.408 779.317 493.784C779.317 492.916 778.613 492.224 777.625 492.224C776.638 492.224 775.889 492.894 775.889 493.883H776.537C776.537 493.243 776.952 492.817 777.603 492.817C778.212 492.817 778.679 493.191 778.679 493.784C778.679 494.303 778.374 494.688 777.723 495.399L775.867 497.432V497.926ZM782.385 498.003C783.626 498.003 784.341 496.951 784.341 495.114C784.341 493.29 783.615 492.224 782.385 492.224C781.154 492.224 780.429 493.29 780.429 495.114C780.429 496.951 781.143 498.003 782.385 498.003ZM782.385 497.399C781.566 497.399 781.088 496.578 781.088 495.114C781.088 493.652 781.572 492.817 782.385 492.817C783.198 492.817 783.681 493.652 783.681 495.114C783.681 496.578 783.203 497.399 782.385 497.399ZM785.384 497.926H788.933V497.322H786.318V497.278L787.582 495.927C788.549 494.891 788.834 494.408 788.834 493.784C788.834 492.916 788.131 492.224 787.142 492.224C786.156 492.224 785.406 492.894 785.406 493.883H786.055C786.055 493.243 786.469 492.817 787.12 492.817C787.73 492.817 788.197 493.191 788.197 493.784C788.197 494.303 787.892 494.688 787.241 495.399L785.384 497.432V497.926ZM791.903 498.003C793.144 498.003 793.858 496.951 793.858 495.114C793.858 493.29 793.133 492.224 791.903 492.224C790.672 492.224 789.947 493.29 789.947 495.114C789.947 496.951 790.661 498.003 791.903 498.003ZM791.903 497.399C791.084 497.399 790.606 496.578 790.606 495.114C790.606 493.652 791.09 492.817 791.903 492.817C792.716 492.817 793.199 493.652 793.199 495.114C793.199 496.578 792.721 497.399 791.903 497.399Z" fill="#494C55"/>
</g>
</g>
<defs>
<filter id="filter0_d" x="-31" y="0" width="936" height="613" filterUnits="userSpaceOnUse" color-interpolation-filters="sRGB">
<feFlood flood-opacity="0" result="BackgroundImageFix"/>
<feColorMatrix in="SourceAlpha" type="matrix" values="0 0 0 0 0 0 0 0 0 0 0 0 0 0 0 0 0 0 127 0"/>
<feOffset dy="1"/>
<feGaussianBlur stdDeviation="50"/>
<feColorMatrix type="matrix" values="0 0 0 0 0.266975 0 0 0 0 0.14401 0 0 0 0 0.4375 0 0 0 0.8 0"/>
<feBlend mode="normal" in2="BackgroundImageFix" result="effect1_dropShadow"/>
<feBlend mode="normal" in="SourceGraphic" in2="effect1_dropShadow" result="shape"/>
</filter>
<filter id="filter1_i" x="480.001" y="141" width="123.074" height="51" filterUnits="userSpaceOnUse" color-interpolation-filters="sRGB">
<feFlood flood-opacity="0" result="BackgroundImageFix"/>
<feBlend mode="normal" in="SourceGraphic" in2="BackgroundImageFix" result="shape"/>
<feColorMatrix in="SourceAlpha" type="matrix" values="0 0 0 0 0 0 0 0 0 0 0 0 0 0 0 0 0 0 127 0" result="hardAlpha"/>
<feOffset dy="-0.755263"/>
<feComposite in2="hardAlpha" operator="arithmetic" k2="-1" k3="1"/>
<feColorMatrix type="matrix" values="0 0 0 0 0.878431 0 0 0 0 0.52549 0 0 0 0 0.827451 0 0 0 0.293242 0"/>
<feBlend mode="normal" in2="shape" result="effect1_innerShadow"/>
</filter>
<filter id="filter2_i" x="615.538" y="141" width="123.074" height="51" filterUnits="userSpaceOnUse" color-interpolation-filters="sRGB">
<feFlood flood-opacity="0" result="BackgroundImageFix"/>
<feBlend mode="normal" in="SourceGraphic" in2="BackgroundImageFix" result="shape"/>
<feColorMatrix in="SourceAlpha" type="matrix" values="0 0 0 0 0 0 0 0 0 0 0 0 0 0 0 0 0 0 127 0" result="hardAlpha"/>
<feOffset dy="-0.755263"/>
<feComposite in2="hardAlpha" operator="arithmetic" k2="-1" k3="1"/>
<feColorMatrix type="matrix" values="0 0 0 0 0.878431 0 0 0 0 0.52549 0 0 0 0 0.827451 0 0 0 0.293242 0"/>
<feBlend mode="normal" in2="shape" result="effect1_innerShadow"/>
</filter>
<linearGradient id="paint0_linear" x1="264" y1="123" x2="264" y2="204" gradientUnits="userSpaceOnUse">
<stop stop-color="#FF35E2"/>
<stop offset="1" stop-color="#881DEB"/>
</linearGradient>
<linearGradient id="paint1_linear" x1="609" y1="123" x2="609" y2="204" gradientUnits="userSpaceOnUse">
<stop stop-color="#FF35E2"/>
<stop offset="1" stop-color="#881DEB"/>
</linearGradient>
<linearGradient id="paint2_linear" x1="436.996" y1="329.644" x2="436.996" y2="483.158" gradientUnits="userSpaceOnUse">
<stop stop-color="#FF35E2"/>
<stop offset="1" stop-color="#881DEB"/>
</linearGradient>
<clipPath id="clip0">
<rect width="123.074" height="51" fill="white" transform="translate(480 141)"/>
</clipPath>
<clipPath id="clip1">
<rect width="123.074" height="51" fill="white" transform="translate(615.539 141)"/>
</clipPath>
<clipPath id="clip2">
<rect width="735.992" height="273" fill="white" transform="translate(69 239)"/>
</clipPath>
</defs>
</svg>
