<svg width="54" height="21" viewBox="0 0 54 21" fill="none" xmlns="http://www.w3.org/2000/svg">
<path d="M26.2238 9.81629H25.4478V8.05258H26.1533C27.0099 8.05258 27.4332 8.34486 27.4332 8.93948C27.4231 9.52402 27.02 9.81629 26.2238 9.81629ZM28.3907 6.91373C27.9371 6.54083 27.1611 6.34935 26.0726 6.34935H23.5934V13.898H25.4377V11.5296H26.2641C27.272 11.5296 28.0077 11.3079 28.4713 10.8745C28.9953 10.3807 29.2675 9.73566 29.2675 8.91932C29.2675 8.07274 28.9752 7.39749 28.3907 6.91373ZM32.4321 6.34935H30.5071V13.898H34.6594V12.1847H32.4321V6.34935ZM38.4085 11.2676L39.2047 8.68752L39.9807 11.2676H38.4085ZM38.4287 6.34935L35.4052 13.898H37.4813L37.8744 12.7995H40.5048L40.8676 13.898H42.9639L39.9606 6.34935H38.4287ZM43.9214 13.898H45.8463V6.34935H43.9214V13.898ZM50.2405 12.1847H49.414V8.05258H50.2505C50.8351 8.05258 51.2886 8.23399 51.6111 8.59681C51.9235 8.95963 52.0848 9.47363 52.0848 10.1489C52.0848 11.5094 51.47 12.1847 50.2405 12.1847ZM53.3144 7.76031C53.0624 7.39749 52.75 7.10522 52.3972 6.8835C51.8127 6.52068 51.0266 6.33927 50.0187 6.33927H47.479V13.8879H50.442C51.5103 13.8879 52.3771 13.5453 53.0221 12.8499C53.6671 12.1545 53.9997 11.2373 53.9997 10.0884C54.0098 9.18136 53.778 8.40532 53.3144 7.76031ZM18.5542 18.5542L20.1667 12.2653L17.9898 10.0884L20.1667 7.90141L18.5542 1.61253L12.2653 0L10.0884 2.187L7.90141 0.0100782L1.61253 1.62261L0 7.91149L2.187 10.0884L0 12.2754L1.61253 18.5643L7.90141 20.1768L10.0884 17.9898L12.2653 20.1667L18.5542 18.5542ZM11.328 16.73L13.4042 14.6539L16.0447 17.2944L12.739 18.141L11.328 16.73ZM8.00219 6.75248L10.0783 4.67634L12.1545 6.75248L10.0783 8.82861L8.00219 6.75248ZM8.83869 10.0783L6.76256 12.1545L4.68642 10.0783L6.76256 8.00219L8.83869 10.0783ZM13.4042 8.00219L15.4803 10.0783L13.4042 12.1545L11.328 10.0783L13.4042 8.00219ZM12.1645 13.4042L10.0884 15.4803L8.01227 13.4042L10.0884 11.328L12.1645 13.4042ZM7.41765 18.141L4.11196 17.2944L6.75248 14.6539L8.82862 16.73L7.41765 18.141ZM3.43671 11.328L5.51285 13.4042L2.87232 16.0447L2.02574 12.739L3.43671 11.328ZM2.86225 4.11196L5.50277 6.75248L3.43671 8.83869L2.02574 7.42773L2.86225 4.11196ZM8.83869 3.43671L6.76256 5.51285L4.12204 2.87232L7.42773 2.02574L8.83869 3.43671ZM12.739 2.01567L16.0447 2.86225L13.4042 5.50277L11.328 3.43671L12.739 2.01567ZM16.73 8.83869L14.6539 6.76256L17.2944 4.12204L18.141 7.42773L16.73 8.83869ZM17.2944 16.0548L14.6539 13.4143L16.73 11.3381L18.141 12.7491L17.2944 16.0548Z" fill="#494C55" fill-opacity="0.4"/>
</svg>
