<svg xmlns="http://www.w3.org/2000/svg" width="16" height="16" fill="none" viewBox="0 0 16 16">
    <path stroke="#494C55" stroke-miterlimit="10" stroke-width=".666" d="M14.76 1.04l-7.812.073c-.228.003-.41.189-.408.416l.001.137c.002.228.188.41.416.409l6.585-.064-12.36 12.594c-.16.162-.157.422.005.582l.099.096c.08.08.187.12.292.119.105-.001.21-.042.29-.124l12.36-12.594.06 6.421c-.002.01-.002.02 0 .029v.135c.002.228.188.41.416.409l.137-.002c.228-.002.41-.188.408-.416l-.073-7.812c-.002-.227-.188-.41-.416-.408z"/>
</svg>
