<svg xmlns="http://www.w3.org/2000/svg" width="26" height="36" fill="none" viewBox="0 0 26 36">
    <path fill="#fff" fill-rule="evenodd" d="M12.017 10.895L7.003 12.53c-.255-.822-.434-1.403-.69-2.225 2.932-1.078 5.642-2.073 8.664-3.185 1.75 2.811 2.46 5.908 3.54 9.118-.806.27-1.343.447-2.11.704l-2.036-5.165c-.406.702-.719 1.195-.986 1.711C9.788 20.447 6.204 27.412 2.6 34.366c-.847 1.633-1.112 1.692-2.6.727V.422C.719.286 1.415.045 2.114.04 6.42.004 10.73-.026 15.038.033c8.068.111 13.274 8.36 9.938 15.774-1.149 2.55-2.496 5.009-3.763 7.53l4.105 11.538c-1.605 1.202-2.057 1.146-2.61-.311-1.419-3.75-2.767-7.526-4.165-11.35 1.388-2.751 2.823-5.445 4.125-8.203 1.85-3.92.832-8.368-2.593-10.755-1.2-.836-2.746-1.543-4.167-1.61-4.422-.205-8.859-.075-13.445-.075v26.156l.224.147 9.33-17.98z" clip-rule="evenodd"/>
</svg>
