<svg width="32" height="44" viewBox="0 0 32 44" fill="none" xmlns="http://www.w3.org/2000/svg">
<path fill-rule="evenodd" clip-rule="evenodd" d="M14.7905 13.4088C12.4207 14.1816 10.6742 14.7526 8.61958 15.4233C8.30556 14.4107 8.08446 13.6961 7.77044 12.6847C11.3787 11.3575 14.7141 10.1325 18.4329 8.76374C20.5863 12.2241 21.4613 16.0358 22.7891 19.9865C21.7977 20.3177 21.1379 20.5373 20.1935 20.853C19.3338 18.6759 18.5717 16.741 17.6873 14.4962C17.1874 15.3604 16.8028 15.967 16.4735 16.6021C12.0467 25.1657 7.63519 33.7377 3.20015 42.2966C2.15813 44.3063 1.83118 44.3787 0 43.1916V0.519424C0.884421 0.352044 1.74179 0.0552727 2.60152 0.0493372C7.90334 0.00541503 13.2063 -0.0313847 18.5082 0.0410276C28.4379 0.177543 34.8453 10.3295 30.7395 19.4546C29.3259 22.5933 27.6676 25.6192 26.1081 28.7234C27.8146 33.5181 29.5105 38.2842 31.1606 42.9234C29.1859 44.4025 28.6284 44.3336 27.9487 42.5399C26.2022 37.9257 24.5427 33.2771 22.8221 28.5703C24.5309 25.1847 26.2963 21.8692 27.8993 18.4753C30.175 13.651 28.9225 8.17613 24.7073 5.23809C23.2314 4.20889 21.3284 3.33875 19.5796 3.25685C14.1366 3.004 8.67603 3.16425 3.03197 3.16425V35.3569L3.30717 35.5373C7.05067 28.3234 10.7954 21.1083 14.7905 13.4088Z" fill="url(#paint0_linear)"/>
<defs>
<linearGradient id="paint0_linear" x1="25.2239" y1="-6.31516e-07" x2="-1.09606" y2="60.845" gradientUnits="userSpaceOnUse">
<stop stop-color="#E086D3"/>
<stop offset="1" stop-color="#5B19D5"/>
</linearGradient>
</defs>
</svg>

